<?xml version="1.0" encoding="UTF-8"?>
<svg width="62px" height="36px" viewBox="0 0 62 36" version="1.1" xmlns="http://www.w3.org/2000/svg" xmlns:xlink="http://www.w3.org/1999/xlink">
    <!-- Generator: Sketch 52.6 (67491) - http://www.bohemiancoding.com/sketch -->
    <title>ic_sofa</title>
    <desc>Created with Sketch.</desc>
    <g id="ICONS" stroke="none" stroke-width="1" fill="none" fill-rule="evenodd">
        <g id="PLP-3.0-icons" transform="translate(-120.000000, -396.000000)" fill="#346AA0" stroke="#FFFFFF">
            <g id="ic_sofa" transform="translate(120.000000, 396.000000)">
                <g id="sofa" transform="translate(6.200000, 6.352941)">
                    <path d="M3.6,17.5 L46,17.5 L46,2.08 C46,1.2073901 45.2926099,0.5 44.42,0.5 L5.18,0.5 C4.3073901,0.5 3.6,1.2073901 3.6,2.08 L3.6,17.5 Z" id="Rectangle-18"></path>
                    <path d="M2.08,6.85294118 C1.2073901,6.85294118 0.5,7.56033127 0.5,8.43294118 L0.5,21.2141176 C0.5,22.0867276 1.2073901,22.7941176 2.08,22.7941176 L47.52,22.7941176 C48.3926099,22.7941176 49.1,22.0867276 49.1,21.2141176 L49.1,8.43294118 C49.1,7.56033127 48.3926099,6.85294118 47.52,6.85294118 L44.4466667,6.85294118 C43.5740568,6.85294118 42.8666667,7.56033127 42.8666667,8.43294118 L42.8666667,13.2729412 C42.8666667,14.6978358 41.7115613,15.8529412 40.2866667,15.8529412 L9.31333333,15.8529412 C7.88843868,15.8529412 6.73333333,14.6978358 6.73333333,13.2729412 L6.73333333,8.43294118 C6.73333333,7.56033127 6.02594324,6.85294118 5.15333333,6.85294118 L2.08,6.85294118 Z" id="Rectangle-5"></path>
                </g>
            </g>
        </g>
    </g>
</svg>