<?xml version="1.0" encoding="UTF-8"?>
<svg width="114px" height="36px" viewBox="0 0 114 36" version="1.1" xmlns="http://www.w3.org/2000/svg" xmlns:xlink="http://www.w3.org/1999/xlink">
    <!-- Generator: Sketch 52.6 (67491) - http://www.bohemiancoding.com/sketch -->
    <title>ic_bed combos</title>
    <desc>Created with Sketch.</desc>
    <g id="ICONS" stroke="none" stroke-width="1" fill="none" fill-rule="evenodd">
        <g id="PLP-3.0-icons" transform="translate(-233.000000, -1500.000000)">
            <g id="ic_bed-combos" transform="translate(233.000000, 1500.000000)">
                <g id="Group-5" transform="translate(53.000000, 14.000000)" fill-rule="nonzero" stroke="#346AA0" stroke-linecap="round" stroke-width="2">
                    <path d="M5,0.368842922 L5,10.3688429" id="Line-5"></path>
                    <path d="M5,0.368842922 L5,10.3688429" id="Line-5" transform="translate(5.000000, 5.368843) rotate(-90.000000) translate(-5.000000, -5.368843) "></path>
                </g>
                <g id="Group-10" transform="translate(3.000000, 2.000000)" fill-rule="nonzero" stroke="#FFFFFF">
                    <path d="M7,-0.5 L34.3333333,-0.5 C37.3708995,-0.5 39.8333333,1.96243388 39.8333333,5 L39.8333333,21.3186126 L1.5,21.6471609 L1.5,5 C1.5,1.96243388 3.96243388,-0.5 7,-0.5 Z" id="Rectangle" fill="#346AA0"></path>
                    <g id="Group-6" transform="translate(16.000000, 10.000000)" stroke-linecap="round" stroke-width="3">
                        <path d="M0.333333333,1 L10,1" id="Line"></path>
                    </g>
                    <path d="M3.42857143,15.2142857 L39.2380952,15.2142857 C41.4077853,15.2142857 43.1666667,16.9731671 43.1666667,19.1428571 L43.1666667,30.1496045 C43.1666667,31.3725207 42.1752972,32.3638902 40.952381,32.3638902 L39.7961989,32.3638902 C38.5732827,32.3638902 37.5819132,31.3725207 37.5819132,30.1496045 L37.5819132,28.0045267 C37.5819132,27.3338953 37.0382589,26.790241 36.3676275,26.790241 C36.3660264,26.7902417 36.3660264,26.7902417 36.3644253,26.7902452 L6.34029065,26.8694225 C5.67091169,26.8711877 5.12920714,27.4143227 5.12920714,28.083704 L5.12920714,30.2857143 C5.12920714,31.5086305 4.13783766,32.5 2.91492143,32.5 L1.71428571,32.5 C0.491369483,32.5 -0.5,31.5086305 -0.5,30.2857143 L-0.5,19.1428571 C-0.5,16.9731671 1.25888134,15.2142857 3.42857143,15.2142857 Z" id="Rectangle" fill="#346AA0"></path>
                </g>
                <g id="Group-14" transform="translate(69.000000, 4.000000)" stroke-width="1.04">
                    <rect id="Rectangle-5" stroke="#FFFFFF" fill="#346AA0" x="0.52" y="0.52" width="41.6" height="24.3717647" rx="2.08"></rect>
                    <rect id="Rectangle-5" stroke="#FFFFFF" fill="#346AA0" x="2.6" y="2.63764706" width="37.44" height="20.1364706" rx="2.08"></rect>
                    <path d="M9.88,28.0588235 L32.9717474,28.0588235" id="Line-3" stroke="#356BA0" stroke-linecap="round"></path>
                </g>
            </g>
        </g>
    </g>
</svg>