<svg xmlns="http://www.w3.org/2000/svg" width="30" height="30" viewBox="0 0 30 30">
    <defs>
        <linearGradient id="a" x1="70.515%" x2="12.124%" y1="50%" y2="80.826%">
            <stop offset="0%" stop-color="#346AA0"/>
            <stop offset="100%" stop-color="#7FADDB"/>
        </linearGradient>
    </defs>
    <g fill="none" fill-rule="evenodd">
        <path fill="#346AA0" d="M15 0c8.284 0 15 6.716 15 15 0 8.284-6.716 15-15 15-8.284 0-15-6.716-15-15C0 6.716 6.716 0 15 0zm0 .938C7.233.938.937 7.232.937 15c0 7.767 6.296 14.063 14.063 14.063S29.063 22.767 29.063 15 22.767.937 15 .937z"/>
        <path fill="url(#a)" fill-rule="nonzero" d="M13.787 5.493a1.738 1.738 0 0 1 2.426 0l1.221 1.181a.587.587 0 0 0 .493.16l1.683-.238a1.737 1.737 0 0 1 1.962 1.425l.293 1.673c.032.18.143.334.305.42l1.501.795a1.736 1.736 0 0 1 .75 2.306l-.747 1.526a.586.586 0 0 0 0 .518l.747 1.526c.415.85.086 1.862-.75 2.306l-1.501.796a.586.586 0 0 0-.305.419l-.293 1.673a1.737 1.737 0 0 1-1.962 1.425l-1.683-.238a.587.587 0 0 0-.493.16l-1.221 1.18a1.74 1.74 0 0 1-2.426 0l-1.221-1.18a.586.586 0 0 0-.493-.16l-1.682.238a1.736 1.736 0 0 1-1.962-1.425l-.294-1.673a.586.586 0 0 0-.305-.42l-1.501-.795a1.736 1.736 0 0 1-.75-2.306l.747-1.526a.586.586 0 0 0 0-.518l-.747-1.526a1.736 1.736 0 0 1 .75-2.305l1.501-.797a.586.586 0 0 0 .305-.419l.293-1.673a1.737 1.737 0 0 1 1.962-1.425l1.683.238a.587.587 0 0 0 .493-.16zm3.521 10.468a2.118 2.118 0 0 0-2.116 2.115c0 1.166.95 2.115 2.116 2.115a2.118 2.118 0 0 0 2.116-2.115c0-1.166-.95-2.115-2.116-2.115zm1.908-5.175a.577.577 0 0 0-.816 0l-7.616 7.613a.577.577 0 1 0 .816.815l7.616-7.613a.577.577 0 0 0 0-.815zm-1.908 6.329c.53 0 .962.431.962.961a.963.963 0 0 1-1.924 0c0-.53.432-.961.962-.961zm-4.616-7.306a2.118 2.118 0 0 0-2.116 2.115c0 1.166.95 2.115 2.116 2.115a2.118 2.118 0 0 0 2.116-2.115c0-1.166-.95-2.115-2.116-2.115zm0 1.154c.53 0 .962.431.962.961a.963.963 0 0 1-1.924 0c0-.53.432-.961.962-.961z"/>
    </g>
</svg>
