<svg xmlns="http://www.w3.org/2000/svg" width="20" height="20"><path fill="#3769a0" fill-rule="evenodd" d="M10 0C4.482 0 0 4.482 0 10s4.482 10 10 10 10-4.482 10-10S15.518 0 10 0zM5.125 6A1.14 1.14 0 0 0 4 7.143v5.714A1.14 1.14 0 0 0 5.125 14h9.75A1.14 1.14 0 0 0 16 12.857V7.143A1.14 1.14 0 0 0 14.875 6h-9.75zm.232 1h9.286c.204 0 .357.151.357.353v5.294a.346.346 0 0 1-.357.353H5.357A.346.346 0 0 1 5 12.647V7.353C5 7.15 5.153 7 5.357 7zm.995 1c-.147.005-.276.084-.327.2-.051.117-.014.248.094.333l1.787 1.42-1.792 1.517a.288.288 0 0 0-.114.218.286.286 0 0 0 .105.22.398.398 0 0 0 .26.092c.098 0 .191-.034.26-.093l1.81-1.531.731.586c.464.37 1.193.368 1.657 0l.737-.59 1.816 1.535c.068.06.16.093.259.093a.398.398 0 0 0 .26-.091.286.286 0 0 0 .105-.221.288.288 0 0 0-.114-.218l-1.792-1.516 1.787-1.421c.145-.117.152-.311.014-.434a.41.41 0 0 0-.513-.012l-3.053 2.428c-.145.116-.519.115-.664 0L6.62 8.087A.397.397 0 0 0 6.352 8z"/></svg>