<svg xmlns="http://www.w3.org/2000/svg" xmlns:xlink="http://www.w3.org/1999/xlink" width="1280" height="57"><g fill="none" fill-rule="evenodd"><g opacity=".15"><g fill="#3c3c3c"><path d="M83.544 55.98c-.3 0-.544-.187-.544-.42s.243-.417.544-.417h96.28c.3 0 .544.187.544.417s-.243.42-.544.42h-96.28z"/><path d="M164.452 53.16a1.182 1.182 0 0 1-.824.393l-1.332.003-.335-.001a.78.78 0 1 1-.004-1.562.415.415 0 0 0 .388-.564.778.778 0 0 1 .726-1.053c.362 0 .672.248.755.602a.42.42 0 0 0 .232.286c.4.187.678.582.7 1.03a1.2 1.2 0 0 1-.306.865m1.137-.906a2.03 2.03 0 0 0-1.013-1.662 1.599 1.599 0 0 0-1.505-1.053 1.615 1.615 0 0 0-1.606 1.698 1.618 1.618 0 0 0 .496 3.154l.33.002.267.003v1.154c0 .23.186.418.415.418s.415-.187.415-.418v-1.154l.283-.008a2.002 2.002 0 0 0 1.399-.668 2.03 2.03 0 0 0 .52-1.466M112.422 44.5h-3.21l.25-.26h3.32l.252.26h-.612zm-.416 3.658h-1.765v-2.823h1.765v2.823zm1.25-4.628a.413.413 0 0 0-.297-.128h-3.67a.416.416 0 0 0-.298.128l-1.057 1.097a.42.42 0 0 0-.083.454.416.416 0 0 0 .382.254h1.178v3.24c0 .23.186.42.415.42h2.597c.23 0 .415-.188.415-.42v-3.24h1.178a.418.418 0 0 0 .298-.71l-1.056-1.096zm-2.132-20.507c.23 0 .415-.187.415-.42v-1.567a.416.416 0 1 0-.83 0v1.567c0 .232.185.42.415.42m1.81 26.232h-3.624a.416.416 0 0 0-.416.418c0 .23.186.418.416.418h3.624c.23 0 .416-.187.416-.418a.416.416 0 0 0-.416-.418m-1.81-7.874a.464.464 0 0 1 0 .929.463.463 0 0 1-.462-.465c0-.256.207-.464.462-.464m0 1.765a1.3 1.3 0 1 0 0-2.601 1.3 1.3 0 1 0 0 2.6m-.415 10.174h.83v-1.113h-.83v1.114zm1.245-1.95h-1.662a.416.416 0 0 0-.415.418v1.95c0 .23.186.42.415.42h1.662c.23 0 .416-.188.416-.418v-1.95a.417.417 0 0 0-.416-.418zm5.8-8.175h-2.113a.416.416 0 0 0-.415.417c0 .232.186.418.415.418h2.113c.23 0 .415-.186.415-.418a.416.416 0 0 0-.415-.417m4.582 0h-2.113a.416.416 0 0 0-.416.417c0 .232.186.418.416.418h2.113c.23 0 .415-.186.415-.418a.416.416 0 0 0-.415-.417m4.58 0h-2.113a.416.416 0 0 0-.415.417c0 .232.186.418.415.418h2.113c.23 0 .416-.186.416-.418a.416.416 0 0 0-.416-.417m-1.057 1.114a.417.417 0 0 0-.415.419V51.6a.42.42 0 0 0 .416.419c.23 0 .415-.188.415-.42v-6.86a.417.417 0 0 0-.415-.419m-4.58 0a.417.417 0 0 0-.416.419V51.6c0 .23.186.42.415.42s.416-.188.416-.42v-6.86a.417.417 0 0 0-.416-.419m-4.58 0a.417.417 0 0 0-.416.419V51.6a.42.42 0 0 0 .416.419c.23 0 .415-.188.415-.42v-6.86a.417.417 0 0 0-.415-.419m4.41-23.9c.957-1.8 4.513-4.225 5.16-4.656h4.6c.647.43 4.204 2.856 5.16 4.656.868 1.637.26 2.65-.22 3.286h-4.324c.136-.403.137-.832-.02-1.194s-.44-.6-.813-.724c-.128-1.128-1.668-2.114-1.865-2.235l-.024-.01a.774.774 0 0 0-.036-.02.82.82 0 0 0-.042-.013l-.035-.01-.044-.006a.476.476 0 0 0-.079 0l-.036.006a.865.865 0 0 0-.044.011c-.01.003-.02.008-.032.01a.453.453 0 0 0-.045.023l-.018.01c-.197.12-1.737 1.107-1.866 2.235-.373.113-.66.365-.814.724s-.154.79-.018 1.194h-4.324c-.48-.637-1.1-1.65-.22-3.286zm5.45-6.433h4.016v.94h-4.016v-.94zm.873-1.29h2.27v.453h-2.27v-.453zm-.884-3.995c.024-.104.16-.145.24-.16a.939.939 0 0 1 .73.19c-.092.473-.157 1.08-.175 1.85-.497-.552-.946-1.207-.795-1.88zm3.798-.16c.08.015.216.056.24.16.152.673-.298 1.328-.795 1.88a11.037 11.037 0 0 0-.175-1.85.943.943 0 0 1 .73-.19zm-2.158 3.32c-.093-2.296.18-3.323.38-3.76.2.437.47 1.464.378 3.76h-.758zm-1.755 10.98c.08-.185.24-.278.496-.286a.419.419 0 0 0 .39-.522c-.117-.454.614-1.18 1.248-1.625.634.443 1.365 1.17 1.25 1.625a.421.421 0 0 0 .07.355.415.415 0 0 0 .319.167c.254.008.417.1.496.286.103.242.046.584-.135.863h-3.997c-.182-.28-.24-.62-.136-.863zm2.134 2.57h-7.03v-.87h14.058v.87h-7.03zm-7.86-1.146v1.146h-1.86a.418.418 0 0 0-.415.419v.8c0 .232.186.42.415.42s.416-.187.416-.418v-.383h.68v.383a.416.416 0 1 0 .831 0v-.383h.68v.383a.416.416 0 1 0 .832 0v-.383h.68v.383a.417.417 0 1 0 .832 0v-.383h.68v.383a.416.416 0 1 0 .83 0v-.383h.682v.383c0 .23.186.418.416.418a.416.416 0 0 0 .414-.418v-.383h.68v.383a.416.416 0 0 0 .832 0v-.383h.462v.383a.416.416 0 1 0 .831 0v-.383h.68v.383a.417.417 0 1 0 .832 0v-.383h.68v.383a.416.416 0 1 0 .831 0v-.383h.68v.383c0 .23.186.418.416.418a.416.416 0 0 0 .415-.418v-.383h.68v.383a.417.417 0 0 0 .832 0v-.383h.68v.383a.416.416 0 1 0 .831 0v-.383h.68v.383a.416.416 0 0 0 .83 0l.002-.8a.417.417 0 0 0-.416-.419h-1.858v-1.146c.518-.68 1.466-2.107.332-4.24-1.026-1.933-4.493-4.33-5.353-4.907v-1.552a.416.416 0 0 0-.415-.417h-.458v-.87a.416.416 0 0 0-.415-.419h-.34v-.066l.12-.123c.716-.723 1.797-1.815 1.496-3.154-.094-.412-.43-.71-.897-.8a1.804 1.804 0 0 0-1.12.172c-.242-.61-.526-.792-.668-.846-.008-.003-.015-.003-.022-.006a.35.35 0 0 0-.165-.016.292.292 0 0 0-.037.005.27.27 0 0 0-.043.011c-.008.003-.016.003-.023.006-.14.054-.425.235-.668.846a1.804 1.804 0 0 0-1.12-.172c-.47.1-.804.387-.895.8-.303 1.34.78 2.43 1.494 3.154l.12.123.003.066h-.34a.416.416 0 0 0-.416.418v.87h-.457a.416.416 0 0 0-.416.417V15.1c-.86.576-4.327 2.974-5.353 4.906-1.133 2.134-.186 3.56.332 4.24zm1.628 5.5h-1.057a.416.416 0 0 0-.415.418c0 .23.185.418.415.418h1.057c.23 0 .415-.187.415-.418a.416.416 0 0 0-.415-.418m2.604 0h-1.056a.417.417 0 0 0-.415.418c0 .23.186.418.415.418h1.056c.23 0 .416-.187.416-.418a.416.416 0 0 0-.416-.418m1.55.837h1.055c.23 0 .416-.187.416-.42a.416.416 0 0 0-.416-.416h-1.055a.416.416 0 0 0-.416.417c0 .232.186.42.416.42"/><path d="M150.58 55.144h-8.68V52.67a.416.416 0 0 0-.415-.418h-2.112a.417.417 0 0 0-.416.418v2.474h-1.64V52.67a.416.416 0 0 0-.414-.418h-2.113a.416.416 0 0 0-.416.418v2.474h-1.638V52.67a.416.416 0 0 0-.415-.418H130.2a.417.417 0 0 0-.417.418v2.474h-2.47V52.67a.416.416 0 0 0-.415-.418h-2.113a.416.416 0 0 0-.415.418v2.474h-1.638V52.67a.416.416 0 0 0-.416-.418h-2.112a.416.416 0 0 0-.415.418v2.474h-1.64V52.67a.416.416 0 0 0-.415-.418h-2.112a.416.416 0 0 0-.415.418v2.474h-8.68v-18.36h7.683l-2.375 2.498a.417.417 0 1 0 .3.707h3.072v2.474c0 .23.186.42.415.42h2.112c.23 0 .416-.188.416-.42V40h1.64v2.474c0 .23.186.42.415.42h2.112c.23 0 .416-.188.416-.42V40h1.638v2.474c0 .23.186.42.415.42h2.113c.23 0 .415-.188.415-.42V40h2.47v2.474a.42.42 0 0 0 .417.419h2.112c.23 0 .415-.188.415-.42V40h1.638v2.474a.42.42 0 0 0 .416.419h2.113a.417.417 0 0 0 .414-.42V40h1.64v2.474a.42.42 0 0 0 .416.419h2.112c.23 0 .415-.188.415-.42V40h3.072a.417.417 0 0 0 .3-.707l-2.376-2.498h7.685v18.36zm-10.792 0h1.282v-2.056h-1.282v2.056zm-4.582 0h1.282v-2.056h-1.282v2.056zm-4.58 0h1.28v-2.056h-1.28v2.056zm-5.415 0h1.28v-2.056h-1.28v2.056zm-4.582 0h1.28v-2.056h-1.28v2.056zm-4.582 0h1.282v-2.056h-1.282v2.056zm-8.803-19.44h7.533v.244h-7.744l.2-.244zm.226-2.042l1.025-1.232h5.256l1.026 1.232v1.207h-7.307v-1.207zm3.17-4.385c0-.36.254-.765.484-1.053.23.287.485.694.485 1.053 0 .483-.268.974-.426 1.22h-.117c-.157-.246-.426-.74-.426-1.22zm.207 2.055h2.49l.25.26h-4.93l.25-.26h1.936zm-1.446-3.504l.9-.937c.26-.29.6-.718.834-1.042l.832 1.042.89.937c.67.676.943.97.943 1.432 0 .53-.307 1.01-.475 1.236h-1.183c.16-.338.307-.77.307-1.22 0-1-.928-1.88-1.034-1.978-.017-.016-.038-.023-.056-.035-.024-.016-.045-.033-.07-.043s-.05-.013-.077-.018-.052-.012-.078-.012-.052.007-.08.012-.052.008-.076.018-.047.027-.07.043-.04.02-.057.035c-.106.098-1.034.99-1.034 1.98 0 .45.147.88.307 1.22h-1.184c-.167-.225-.474-.708-.474-1.237 0-.463.272-.756.943-1.432zm1.724-3.83a.366.366 0 0 1 0 .732.365.365 0 0 1 0-.732zm4.923 18.046h1.282V39.99h-1.282v2.056zm4.582 0h1.28V39.99h-1.28v2.056zm4.582 0h1.28V39.99h-1.28v2.056zm5.414 0h1.28V39.99h-1.28v2.056zm4.58 0h1.282V39.99h-1.282v2.056zm4.582 0h1.282V39.99h-1.282v2.056zm-24.42-5.26h26.377L144 39.152h-30.88l2.25-2.37zm.24-1.498v-1.36h1.385v2.02h-1.385v-.66zm.692-3.176a.418.418 0 0 1 0 .837.418.418 0 0 1 0-.837zm2.955 1.33h6.273a2.41 2.41 0 0 0-.086.64l-.003 1.868h-.7v-1.58a.417.417 0 0 0-.416-.418.417.417 0 0 0-.415.418v1.58h-.543v-1.58a.417.417 0 0 0-.415-.418.417.417 0 0 0-.416.418v1.58h-.542v-1.58a.417.417 0 0 0-.416-.418.417.417 0 0 0-.415.418v1.58h-.542v-1.58a.418.418 0 0 0-.416-.418.417.417 0 0 0-.415.418v1.58h-.543V33.44zm11.592 2.508h-4.577l.003-1.847c.005-.244.026-.516.188-.654.15-.125.44-.16.837-.104a.416.416 0 0 0 .475-.417c-.006-.675.267-1.054.43-1.22.18-.18.325-.217.355-.217s.177.037.354.218c.164.165.437.544.43 1.22a.418.418 0 0 0 .475.417c.398-.057.687-.02.836.104.163.138.183.4.2.654l.003 1.847zm-11.177-4.42l.497-.48a.418.418 0 0 0 .127-.302v-1.09a.418.418 0 0 0-.122-.295l-.502-.504v-.405h17.776v.405l-.502.504a.418.418 0 0 0-.122.295v1.09a.42.42 0 0 0 .127.302l.497.48v1.077h-6.6a1.83 1.83 0 0 0-.686-.123h-.005c-.1-.71-.43-1.148-.643-1.363-.3-.295-.635-.465-.944-.465s-.653.17-.945.465c-.212.215-.543.654-.642 1.363-.26 0-.49.044-.688.123h-6.613v-1.077zm18.19 1.912v2.508h-.543v-1.58a.417.417 0 0 0-.414-.418.417.417 0 0 0-.416.418v1.58h-.543v-1.58a.417.417 0 0 0-.416-.418.417.417 0 0 0-.415.418v1.58h-.542v-1.58a.417.417 0 0 0-.416-.418.417.417 0 0 0-.415.418v1.58h-.543v-1.58a.417.417 0 0 0-.415-.418.417.417 0 0 0-.416.418v1.58h-.7l-.003-1.87a2.445 2.445 0 0 0-.086-.639h6.273zm2.262.488h1.386v2.02h-1.386v-2.02zm.693-1.817a.418.418 0 0 1 0 .837.417.417 0 0 1-.415-.418c0-.23.186-.42.415-.42zm1.523 3.593h7.533l.21.244h-7.744v-.244zm0-2.042l1.025-1.232h5.256l1.026 1.232v1.207h-7.307v-1.207zm3.17-4.385c0-.36.254-.765.484-1.053.23.287.486.694.486 1.053 0 .483-.27.974-.426 1.22h-.118c-.157-.246-.426-.74-.426-1.22zm.208 2.055h2.5l.25.26h-4.93l.252-.26h1.936zm-1.447-3.504l.9-.937c.26-.29.6-.718.834-1.042l.833 1.042.9.937c.67.676.943.97.943 1.432 0 .53-.307 1.01-.475 1.236H147c.16-.338.307-.77.307-1.22 0-1-.928-1.88-1.033-1.978-.017-.016-.038-.023-.056-.034-.024-.017-.046-.034-.07-.044s-.05-.013-.078-.018-.052-.012-.078-.012-.052.007-.08.012-.05.008-.076.018-.047.027-.07.043-.04.02-.057.035c-.106.098-1.034.99-1.034 1.98 0 .45.147.88.308 1.22H143.8c-.17-.225-.475-.708-.475-1.237 0-.463.272-.756.942-1.432zm1.724-3.83a.366.366 0 0 1 0 .732.365.365 0 0 1 0-.732zm5.416 12.344a.28.28 0 0 0-.012-.083c-.004-.013-.007-.027-.013-.04a.362.362 0 0 0-.016-.037c-.006-.012-.01-.024-.02-.036a.329.329 0 0 0-.024-.034c-.005-.008-.01-.015-.015-.022l-.832-.962v-1.62a.415.415 0 0 0-.097-.267l-.727-.875a.416.416 0 0 0 .084-.646l-.807-.838c.237-.344.56-.94.56-1.623 0-.828-.497-1.33-1.184-2.023a22.075 22.075 0 0 1-.861-.904 17.075 17.075 0 0 1-.78-.975c.315-.218.523-.58.523-.993a1.2 1.2 0 0 0-1.195-1.202 1.204 1.204 0 1 0-.673 2.194l-.78.976-.86.904c-.688.694-1.184 1.195-1.184 2.023 0 .684.322 1.28.56 1.623l-.807.84a.419.419 0 0 0-.085.453.42.42 0 0 0 .169.192l-.29.347c.01-.06.02-.12.02-.184 0-.692-.56-1.255-1.247-1.255s-1.247.563-1.247 1.255c0 .202.054.392.14.56a.417.417 0 0 0-.415.418v2.44h-.6v-2.926a.416.416 0 0 0-.416-.418V31.35a.423.423 0 0 0-.128-.302l-.496-.48v-.74l.502-.504a.42.42 0 0 0 .122-.295v-.996a.418.418 0 0 0-.416-.419h-18.606a.417.417 0 0 0-.415.419v.996a.42.42 0 0 0 .121.295l.502.504v.74l-.496.48a.42.42 0 0 0-.127.302v1.254a.416.416 0 0 0-.416.418v2.926h-.6v-2.44a.417.417 0 0 0-.416-.418 1.24 1.24 0 0 0 .139-.561c0-.692-.56-1.255-1.247-1.255s-1.246.563-1.246 1.255c0 .063.01.123.018.184l-.29-.347a.414.414 0 0 0 .084-.645l-.806-.84c.237-.344.56-.94.56-1.623 0-.828-.497-1.33-1.185-2.023l-.86-.904a17.075 17.075 0 0 1-.78-.975c.315-.218.522-.58.522-.993a1.2 1.2 0 0 0-1.194-1.202 1.2 1.2 0 0 0-1.195 1.202c0 .412.207.775.52.993l-.78.975-.86.904c-.688.694-1.184 1.195-1.184 2.023 0 .684.32 1.28.558 1.623l-.806.84a.419.419 0 0 0-.084.453.423.423 0 0 0 .168.192l-.727.875a.418.418 0 0 0-.097.267v1.62l-.833.962-.014.022a.337.337 0 0 0-.025.034l-.02.036a.362.362 0 0 0-.016.037l-.013.04-.008.038a.422.422 0 0 0-.005.045l-.001.024v19.195c0 .23.185.418.415.418h44.876c.23 0 .416-.187.416-.418V36.367c0-.01-.002-.016-.003-.024z"/><path d="M147.903 44.5h-3.82l.252-.26h3.318l.25.26zm-1.027 3.658H145.1v-2.823h1.766v2.823zm-1.714-4.756h-1.004a.413.413 0 0 0-.299.128l-1.056 1.097a.416.416 0 1 0 .299.709h1.177v3.24c0 .23.186.42.415.42h2.598a.418.418 0 0 0 .415-.419v-3.24h1.177c.167 0 .318-.1.383-.255a.422.422 0 0 0-.084-.454l-1.057-1.097a.413.413 0 0 0-.298-.128h-2.666zm.415-22.365v1.567a.42.42 0 0 0 .416.42c.23 0 .415-.19.415-.42v-1.567a.417.417 0 0 0-.415-.419.417.417 0 0 0-.416.42m2.228 28.217h-3.624a.416.416 0 0 0-.415.418c0 .23.185.418.415.418h3.624c.23 0 .415-.187.415-.418a.416.416 0 0 0-.415-.418m-1.812-7.874a.464.464 0 0 1 0 .929.463.463 0 0 1-.462-.465c0-.256.207-.464.462-.464m-1.293.464a1.3 1.3 0 0 0 1.293 1.3 1.3 1.3 0 1 0 0-2.6 1.3 1.3 0 0 0-1.293 1.3m.878 11.474h.83v-1.113h-.83v1.114zm1.246-1.95h-1.662a.416.416 0 0 0-.416.418v1.95c0 .23.186.42.416.42h1.662c.23 0 .416-.188.416-.418v-1.95a.416.416 0 0 0-.416-.418zm-5.34-8.175h-2.113a.417.417 0 0 0-.415.417c0 .232.186.418.415.418h2.113c.23 0 .416-.186.416-.418a.416.416 0 0 0-.416-.417m-4.582 0h-2.112a.417.417 0 0 0-.416.417c0 .232.187.418.416.418h2.112c.23 0 .416-.186.416-.418a.416.416 0 0 0-.416-.417m-4.58 0h-2.113a.417.417 0 0 0-.415.417c0 .232.186.418.415.418h2.113c.23 0 .415-.186.415-.418a.416.416 0 0 0-.415-.417m-1.056 1.114a.417.417 0 0 0-.416.419V51.6a.42.42 0 0 0 .416.419c.23 0 .415-.188.415-.42v-6.86a.417.417 0 0 0-.415-.419m4.58 0a.417.417 0 0 0-.415.419V51.6c0 .23.186.42.415.42s.416-.188.416-.42v-6.86a.417.417 0 0 0-.416-.419m4.582 0a.417.417 0 0 0-.416.419V51.6a.42.42 0 0 0 .416.419c.23 0 .415-.188.415-.42v-6.86a.417.417 0 0 0-.415-.419m-5.638-13.725h1.056a.417.417 0 0 0 0-.836h-1.056a.416.416 0 0 0-.415.417c0 .232.185.42.415.42m-2.605 0h1.056a.416.416 0 1 0 0-.836h-1.056a.416.416 0 0 0-.415.417c0 .232.185.42.415.42m-2.606 0h1.057a.417.417 0 0 0 0-.836h-1.056a.416.416 0 0 0-.416.417c0 .232.186.42.416.42m27.627 24.56h-.2m4.61 0h-3.187m7.6 0h-3.187m-3.482 0h7.893m-9.022 0h2.353m2.06 0h-3.187m-.712 0h5.123m-.71 0h-3.188m7.6 0h-3.188m-2.665.5c0 .282.187.5.416.5h-8.08c.23 0 .415-.228.415-.5"/><path d="M163.863 55.144h-6.394m9.492 0h-6.394m1.6 0h5.614m-8.056.5c0 .282.186.5.415.5h4.128c.23 0 .415-.228.415-.5m-5.994-9.838a1.4 1.4 0 0 1 1.334-.986 1.4 1.4 0 0 1 1.333.986H158.7zm-3.623 0a1.4 1.4 0 0 1 1.333-.986 1.4 1.4 0 0 1 1.333.986h-2.666zm4.957-1.822a2.22 2.22 0 0 0-1.812.942 2.22 2.22 0 0 0-1.812-.942 2.236 2.236 0 0 0-2.227 2.24c0 .23.186.418.415.418h3.208v8.82c0 .23.186.418.416.418s.415-.188.415-.418v-8.82h3.208c.23 0 .416-.186.416-.417 0-1.235-1-2.24-2.227-2.24zm-59.448 4.33a1.4 1.4 0 0 1 1.333-.987 1.4 1.4 0 0 1 1.333.987h-2.666zm-3.624 0a1.4 1.4 0 0 1 1.333-.987 1.4 1.4 0 0 1 1.334.987H96.96zm4.957-1.822a2.22 2.22 0 0 0-1.812.942 2.218 2.218 0 0 0-1.812-.942 2.235 2.235 0 0 0-2.227 2.24.42.42 0 0 0 .416.418h3.208v6.3c0 .23.186.418.415.418s.416-.187.416-.418v-6.3h3.207c.23 0 .416-.188.416-.42 0-1.236-.998-2.24-2.227-2.24zm287.588 8.502h-1.72 1.72zm-2.735 0h-1.72 1.72zm-2.735 0zm-2.735 0h-1.634 1.634zm-80.37-19.588h1.786v-3.3h-1.785v3.3zm0-8.762h19.733v4.467h-19.732v-4.467zm20.747 4.467h4.558v-4.467h-4.558v4.467zm53.585 0H355.53v-4.467h19.733v4.467zm-1.786 4.295h1.786v-3.3h-1.786v3.3zm-61.855 11.006c.46.167 1.998.87 1.998 2.762 0 .25.185.458.426.496v5.273H309.2V49.67a.504.504 0 0 0 .427-.496c0-1.897 1.526-2.593 1.996-2.762zm-3.93-2.38h7.86v10.9h-.492v-5.768c0-.26-.2-.475-.456-.5-.24-2.04-1.927-3.03-2.85-3.278a.206.206 0 0 0-.033-.004c-.017-.003-.032-.007-.05-.008l-.052-.002-.047.002c-.018.001-.037.005-.054.008l-.03.004c-.923.248-2.6 1.238-2.85 3.278a.504.504 0 0 0-.455.5v5.77h-.493v-10.9zm3.93-5.746c.75.288 3.93 1.688 3.93 4.63v.1h-7.86v-.1c0-2.943 3.183-4.343 3.93-4.63zm18.583-7.175h1.786v-4.467h-1.786v4.467zm2.8 0h1.785v-4.467h-1.785v4.467zm2.8 0h1.785v-4.467h-1.785v4.467zm2.8 0h1.785v-4.467h-1.785v4.467zm2.8 0h1.786v-4.467h-1.785v4.467zm2.8 0H346v-4.467h-1.787v4.467zm2.408 11.916h-.74c-.313-7.502-7.567-9.526-7.642-9.546l-.033-.006a.469.469 0 0 0-.049-.008c-.018-.002-.035-.002-.052-.002s-.032 0-.046.002a.39.39 0 0 0-.057.01c-.01.001-.018.001-.028.004-.074.02-7.328 2.044-7.64 9.546h-.742a.505.505 0 0 0-.508.503v11.413h-.7V32.115h19.423v22.828h-.7V43.53a.504.504 0 0 0-.507-.503zm-8.516-8.536c.936.298 6.77 2.426 6.77 9.04 0 .276.228.502.508.502h.73v10.9H330.1v-10.9h.732c.28 0 .507-.226.507-.502 0-6.666 5.78-8.735 6.768-9.04zm10.848-3.38h-1.94v-4.467h1.94v4.467zm1.015 0h4.558v-4.467h-4.558v4.467zm5.694 1.004v22.828h-6.83V32.115h6.83zm13.864 11.917h.397c.28 0 .507-.226.507-.502a.504.504 0 0 0-.507-.503h-.397v-.1c0-4.052-4.592-5.582-4.8-5.643l-.003-.001c-.026-.01-.053-.014-.08-.02l-.02-.003a.35.35 0 0 0-.065-.001h-.036l-.042.008c-.02.004-.04.007-.06.014-.202.063-4.795 1.593-4.795 5.644v.1h-.395a.505.505 0 0 0-.509.503c0 .276.228.502.5.502h.395v10.9h-2.96V36.4h18.596v18.53h-5.746v-10.9zm-4.945-5.746c.748.288 3.93 1.688 3.93 4.63v.1h-7.86v-.1c0-2.943 3.182-4.343 3.93-4.63zm2.983 10.388c-.24-2.04-1.928-3.03-2.85-3.278l-.033-.004c-.016-.003-.033-.007-.05-.008s-.034-.002-.05-.002-.032 0-.047.002l-.054.008-.03.004c-.923.248-2.6 1.238-2.85 3.278a.505.505 0 0 0-.456.5v5.77h-.492v-10.9h7.86v10.9H368v-5.768c0-.26-.2-.475-.455-.5zm-2.984-2.262c.46.167 1.998.87 1.998 2.762 0 .25.185.458.426.496v5.273h-4.846V49.67a.505.505 0 0 0 .426-.496c0-1.896 1.526-2.593 1.996-2.762zm6.107-11.006h1.785v-3.3h-1.785v3.3zm-2.8 0h1.787v-3.3h-1.786v3.3zm-2.8 0h1.786v-3.3h-1.785v3.3zm-2.798 0h1.785v-3.3h-1.785v3.3zm-2.8 0h1.785v-3.3h-1.785v3.3zm-2.812 0h1.798v-3.3h-1.798v3.3zm-29.417-8.762h1.94v4.467h-1.94v-4.467zm-6.08 5.47h6.202v22.828h-6.83V32.115h.627zm-3.442 3.3h1.798v-3.3h-1.798v3.3zm-2.8 0h1.786v-3.3h-1.785v3.3zm-2.8 0h1.786v-3.3h-1.785v3.3zm-2.8 0h1.785v-3.3h-1.785v3.3zm-2.8 0h1.785v-3.3h-1.785v3.3zm-2.8 0h1.786v-3.3h-1.785v3.3zm-2.8 1.007h18.596v18.53h-2.96v-10.9h.395c.28 0 .508-.226.508-.502a.504.504 0 0 0-.508-.503h-.395v-.1c0-4.052-4.593-5.582-4.8-5.643l-.003-.001a.48.48 0 0 0-.078-.018l-.022-.004a.379.379 0 0 0-.064-.001h-.038a.25.25 0 0 0-.044.009c-.018.004-.038.006-.057.013-.203.063-4.796 1.593-4.796 5.644v.1h-.396a.504.504 0 0 0-.507.503c0 .276.227.502.507.502h.396v10.9h-5.745V36.4zm-7.88 16.67a.945.945 0 0 1-.948-.939c0-.514.424-.935.944-.937a.51.51 0 0 0 .415-.217.497.497 0 0 0 .057-.462.926.926 0 0 1-.06-.327c0-.518.424-.94.947-.94a.94.94 0 0 1 .92.725c.037.152.14.28.284.344.5.224.83.7.855 1.24a1.447 1.447 0 0 1-1.38 1.512c-.313.015-1.108.008-1.625.004l-.4-.002zm87.174-1.83c0-.47.27-.894.703-1.103a.5.5 0 0 0 .183-.755 2.145 2.145 0 0 1-.445-1.31c0-1.2.986-2.177 2.198-2.177a2.19 2.19 0 0 1 2.197 2.177 2.13 2.13 0 0 1-.109.674.5.5 0 0 0 .175.554 1.75 1.75 0 0 1 .702 1.402c0 .975-.8 1.768-1.783 1.768h-2.58a1.238 1.238 0 0 1-1.242-1.23zm3.812 3.74h-7.758V32.11h.577c.28 0 .507-.224.507-.502a.505.505 0 0 0-.507-.502h-.577V26.64h.577c.28 0 .507-.226.507-.502a.506.506 0 0 0-.507-.504H299.34a.505.505 0 0 0-.506.504c0 .276.226.502.506.502h.577v4.467h-.577a.505.505 0 0 0-.506.502c0 .278.226.502.506.502h.577v22.88h-5.126v-.9a5.87 5.87 0 0 0 .344-.01 2.458 2.458 0 0 0 1.707-.802c.443-.484.67-1.1.636-1.763a2.435 2.435 0 0 0-1.237-1.998 1.95 1.95 0 0 0-1.836-1.265 1.955 1.955 0 0 0-1.96 2.04 1.951 1.951 0 0 0-1.356 1.847c0 1.073.88 1.945 1.96 1.945l.728.005v.9h-4.27a.506.506 0 0 0-.507.504c0 .276.227.502.507.502h99.872L384.036 55zM389.38 56c.28 0 .507-.226.507-.502a.505.505 0 0 0-.507-.504h-5.83V53.5h.496c1.543 0 2.797-1.244 2.797-2.774a2.73 2.73 0 0 0-.837-1.975c.046-.215.07-.434.07-.655 0-1.754-1.442-3.182-3.212-3.182s-3.213 1.428-3.213 3.182a3.13 3.13 0 0 0 .361 1.464 2.203 2.203 0 0 0-.801 1.704 2.25 2.25 0 0 0 2.256 2.236h1.07v1.505l6.84.995zM323.957 9.456l1.454 2.17h-2.908l1.454-2.17zm14.14 7h11.233v1.297h-22.466v-1.297h11.233zm14.14-7l1.455 2.17h-2.908l1.454-2.17zm-1.892 14.75h3.786v-5.44h-3.786v5.44zm0-6.443h3.786V12.63h-3.786v5.133zm-12.248 1.004h11.233v5.44h-22.466v-5.44h11.233zm-16.032-1.004h3.786V12.63h-3.786v5.133zm0 6.443h3.786v-5.44h-3.786v5.44zm-2.03-5.44h1.015v5.44h-21.7a.504.504 0 0 0-.507.502c0 .277.226.503.507.503h77.514c.28 0 .507-.226.507-.503a.505.505 0 0 0-.507-.502h-21.7v-5.44h1.015c.28 0 .507-.224.507-.502a.505.505 0 0 0-.507-.502h-1.015v-5.568c.002-.023.007-.044.007-.068s-.01-.05-.015-.076l-.01-.042a.442.442 0 0 0-.053-.13.427.427 0 0 0-.027-.044c-.01-.013-.015-.03-.028-.045l-2.275-3.394V6.503a.507.507 0 0 0-1.015 0v1.893l-2.318 3.46a.555.555 0 0 0-.05.102l-.01.034a.47.47 0 0 0-.017.09c0 .01-.003.02-.003.033l-.002.012v3.333h-22.466l-.001-3.345c0-.012-.002-.022-.003-.032a.47.47 0 0 0-.017-.091l-.01-.034a.456.456 0 0 0-.05-.102l-.003-.006-.002-.003-2.313-3.45V6.502a.507.507 0 1 0-1.015 0v1.893l-2.318 3.46a.502.502 0 0 0-.05.102c-.004.012-.008.022-.01.034a.47.47 0 0 0-.017.09l-.004.033v5.648h-1.015a.505.505 0 0 0-.509.502c0 .278.228.502.5.502z"/><path d="M321.557 34.238h4.8c.28 0 .507-.224.507-.503a.505.505 0 0 0-.507-.501h-4.8a.505.505 0 0 0-.507.501c0 .28.228.503.507.503m0 2.174h4.8c.28 0 .507-.225.507-.503a.505.505 0 0 0-.507-.502h-4.8a.505.505 0 0 0-.507.502c0 .278.228.503.507.503m33.08-3.18h-4.8a.506.506 0 0 0-.508.503c0 .277.228.502.508.502h4.8c.28 0 .507-.225.507-.502a.506.506 0 0 0-.507-.503m0 2.173h-4.8a.506.506 0 0 0-.508.503c0 .277.228.503.508.503h4.8c.28 0 .507-.226.507-.503a.506.506 0 0 0-.507-.503m-30.68-22a.504.504 0 0 0-.507.503v2.046c0 .277.227.502.507.502s.508-.225.508-.502v-2.046a.504.504 0 0 0-.508-.503m28.28 3.05c.28 0 .507-.225.507-.502v-2.047a.505.505 0 0 0-.507-.501.505.505 0 0 0-.508.501v2.047c0 .277.228.502.508.502m212.66 25.395h-.548v-7.592h3.214v7.6h-2.666zm.438 13.256h1.242v-12.37h-1.242v12.37zm-.876 0h-33.676v-12.37h.55a.44.44 0 0 0 .438-.443v-1.67c0-2.025 1.634-3.674 3.642-3.674s3.64 1.65 3.64 3.674v1.23a.44.44 0 1 0-.003.876l-.01 4.096a12.72 12.72 0 0 1-.053.913c-.094 1.2-.212 2.718.46 3.453.254.277.602.424 1.005.424a1.33 1.33 0 0 0 1.006-.424c.674-.735.556-2.243.46-3.453a13.224 13.224 0 0 1-.052-.913l-.01-4.096a.44.44 0 0 0-.003-.876V41.6c0-3.208 2.588-5.82 5.768-5.82s5.767 2.6 5.767 5.82v.265a.44.44 0 1 0-.002.876l-.01 4.096a13.22 13.22 0 0 1-.052.913c-.096 1.2-.214 2.718.46 3.453.254.277.6.424 1.005.424s.752-.147 1.006-.424c.673-.735.556-2.243.46-3.453a13.224 13.224 0 0 1-.052-.913l-.01-4.096a.44.44 0 0 0-.004-.876v-1.23c0-2.026 1.634-3.675 3.642-3.675s3.642 1.65 3.642 3.674v1.67a.44.44 0 0 0 .438.442h.55v12.37zM528.227 41.86h-.547v-7.6h3.214v7.6h-2.667zm.44 13.257h1.24v-12.37h-1.242v12.37zm10.387-20.848v3.678a4.5 4.5 0 0 0-7.283 0V34.27h7.283zm.877 7.6h1.047v-7.6h-1.047v7.6zm1.05.886l.01 4.1c0 .275.026.62.055.984.073.928.183 2.33-.23 2.783-.06.065-.155.14-.36.14s-.3-.075-.36-.14c-.414-.452-.304-1.855-.23-2.783l.056-.983.01-4.1h1.05zm12.408-8.477v4c-1.146-2.02-3.3-3.382-5.767-3.382s-4.62 1.363-5.768 3.382v-4h11.535zm.877 7.6h1.047v-7.6h-1.047v7.6zm1.05.886l.01 4.1c0 .275.026.62.055.984.073.928.183 2.33-.23 2.783-.06.065-.155.14-.36.14s-.302-.075-.362-.14c-.413-.452-.303-1.855-.23-2.783l.055-.983.01-4.1h1.052zm8.157-8.477v3.678a4.5 4.5 0 0 0-7.284 0v-3.678h7.284zm-48.8-.885h-5.147l2.814-1.584h70.564l2.815 1.584h-71.045zm12.13 5.434c-1.158-2.052-3.344-3.44-5.846-3.44s-4.688 1.388-5.845 3.44v-4.55h11.7v4.55zm-13.615 3.042h1.047v-7.6h-1.047v7.6zm.885 8.743c-.06.065-.155.14-.362.14s-.302-.075-.36-.14c-.414-.452-.303-1.855-.23-2.783l.055-.983.01-4.1h1.052l.01 4.1a13.49 13.49 0 0 0 .056.984c.072.928.183 2.33-.23 2.783zm.56-21.727c0-3.154 2.33-3.307 6.453-3.307 4.114 0 6.445.153 6.453 3.3l-.002.017v2.04h-1.1v-2.04a.44.44 0 0 0-.44-.442.44.44 0 0 0-.438.443v2.04h-1.1v-2.04a.44.44 0 0 0-.44-.442.44.44 0 0 0-.437.443v2.04H522.5v-2.04a.44.44 0 0 0-.438-.442.44.44 0 0 0-.44.443v2.04h-1.1v-2.04a.44.44 0 0 0-.438-.442.44.44 0 0 0-.44.443v2.04h-1.1v-2.04a.44.44 0 0 0-.44-.442.44.44 0 0 0-.438.443v2.04H516.6v-2.04a.44.44 0 0 0-.438-.442.44.44 0 0 0-.439.443v2.04h-1.092V28.9zm6.324-5.552a.68.68 0 0 1 .674.68c0 .376-.302.68-.674.68a.677.677 0 0 1-.674-.68.68.68 0 0 1 .674-.68zm0-1.454c.13 0 .235.107.235.237a.237.237 0 0 1-.235.238.237.237 0 0 1-.236-.238c0-.13.106-.237.236-.237zm9.426 7.006c0-1.202.382-2.17 1.17-2.96 2.67-2.675 9.5-2.63 14.502-2.598l1.6.006 1.523-.006c4.993-.03 11.832-.077 14.502 2.6.788.8 1.17 1.757 1.17 2.96v2.04h-1.092v-2.04a.44.44 0 0 0-.439-.442.44.44 0 0 0-.438.443v2.04h-1.09v-2.04a.44.44 0 0 0-.439-.442.44.44 0 0 0-.438.443v2.04h-1.092v-2.04a.44.44 0 0 0-.438-.442.44.44 0 0 0-.439.443v2.04h-1.092v-2.04a.44.44 0 0 0-.438-.442.44.44 0 0 0-.439.443v2.04h-1.1v-2.04a.44.44 0 0 0-.439-.442.44.44 0 0 0-.438.443v2.04h-1.092v-2.04a.44.44 0 0 0-.44-.442.44.44 0 0 0-.437.443v2.04h-1.1v-2.04a.44.44 0 0 0-.44-.442.44.44 0 0 0-.437.443v2.04h-1.093v-2.04a.44.44 0 0 0-.438-.442.44.44 0 0 0-.438.443v2.04h-1v-2.04a.44.44 0 0 0-.439-.442.44.44 0 0 0-.438.443v2.04h-1.092v-2.04a.44.44 0 0 0-.438-.442.44.44 0 0 0-.438.443v2.04h-1.092v-2.04a.44.44 0 0 0-.439-.442.44.44 0 0 0-.438.443v2.04h-1.092v-2.04a.44.44 0 0 0-.438-.442.44.44 0 0 0-.439.443v2.04h-1.1v-2.04a.44.44 0 0 0-.44-.442.44.44 0 0 0-.438.443v2.04h-1.092v-2.04a.44.44 0 0 0-.438-.442.44.44 0 0 0-.438.443v2.04h-1.093V28.9a.44.44 0 0 0-.438-.442.44.44 0 0 0-.438.443v2.04h-1.093v-2.04a.44.44 0 0 0-.439-.442.44.44 0 0 0-.437.443v2.04h-1.093v-2.04a.44.44 0 0 0-.438-.442.44.44 0 0 0-.438.443v2.04h-1.092v-2.04zm12.82-8.96c0-.13.106-.236.235-.236a.238.238 0 1 1-.235.235zm.235 1.132a.68.68 0 0 1 0 1.36.677.677 0 0 1-.674-.68c0-.376.302-.68.674-.68zm3.948-1.194c0-.132.105-.238.235-.238s.235.106.235.238a.237.237 0 0 1-.235.238.237.237 0 0 1-.235-.238zm.235 1.132a.68.68 0 0 1 0 1.36.676.676 0 0 1-.673-.68c0-.375.3-.68.673-.68zm3.947-1.07c0-.13.105-.236.235-.236s.235.106.235.236a.237.237 0 0 1-.235.238.237.237 0 0 1-.235-.238zm.235 1.132c.372 0 .674.304.674.68s-.302.68-.674.68a.677.677 0 0 1-.673-.68c0-.376.302-.68.673-.68zm-21.42-5.93h34.476v10.836a4.872 4.872 0 0 0-.552-.663c-2.24-2.245-6.72-2.747-11.135-2.843a1.56 1.56 0 0 0 .181-.72c0-.5-.24-.943-.604-1.23.103-.17.166-.367.166-.58 0-.46-.278-.858-.674-1.03v-1.7a.44.44 0 0 0-.439-.442.44.44 0 0 0-.438.442v1.7a1.121 1.121 0 0 0-.508 1.612 1.56 1.56 0 0 0-.433 1.93l-1.24.006-.22.002c.13-.228.2-.488.2-.77a1.56 1.56 0 0 0-.605-1.23 1.116 1.116 0 0 0-.508-1.612v-1.748a.44.44 0 0 0-.438-.442.44.44 0 0 0-.438.442v1.748a1.124 1.124 0 0 0-.508 1.613 1.559 1.559 0 0 0-.605 1.229c0 .282.08.542.2.77-.074 0-.145 0-.22-.002l-1.242-.006a1.55 1.55 0 0 0 .17-.7c0-.5-.24-.943-.604-1.23.103-.17.166-.367.166-.58 0-.46-.28-.858-.675-1.03v-1.7a.44.44 0 0 0-.438-.442.44.44 0 0 0-.438.442v1.7a1.12 1.12 0 0 0-.509 1.612 1.56 1.56 0 0 0-.603 1.23c0 .26.07.502.18.72-4.413.096-8.895.598-11.134 2.843a4.94 4.94 0 0 0-.552.663v-10.84zm17.28-3.266c.63 0 1.14.518 1.14 1.15a1.14 1.14 0 0 1-1.14 1.15c-.64 0-1.14-.515-1.14-1.15s.5-1.15 1.14-1.15zm0-1.986a.52.52 0 0 1 .518.523.521.521 0 0 1-.519.522.522.522 0 0 1-.518-.522.52.52 0 0 1 .518-.523zm26.494 15.704c4.12 0 6.454.153 6.454 3.307v2.04h-1.093v-2.04a.44.44 0 0 0-.439-.442.44.44 0 0 0-.438.443v2.04h-1.092v-2.04a.44.44 0 0 0-.438-.442.44.44 0 0 0-.439.443v2.04h-1.1v-2.04a.44.44 0 0 0-.439-.442.44.44 0 0 0-.438.443v2.04h-1.092v-2.04a.44.44 0 0 0-.438-.442.44.44 0 0 0-.439.443v2.04h-1.092v-2.04a.44.44 0 0 0-.438-.442.44.44 0 0 0-.439.443v2.04h-1.1v-2.04a.44.44 0 0 0-.44-.442.44.44 0 0 0-.437.443v2.04h-1.092v-2.04l-.002-.015c.008-3.138 2.338-3.3 6.453-3.3zm.13-2.245a.68.68 0 0 1 .674.68c0 .376-.303.68-.674.68a.677.677 0 0 1-.674-.68.68.68 0 0 1 .674-.68zm0-1.454c.13 0 .235.107.235.237a.237.237 0 0 1-.235.238.237.237 0 0 1-.235-.238c0-.13.105-.237.235-.237zm6.722 20h1.046v-7.6h-1.046v7.6zm.885 8.743c-.06.065-.155.14-.36.14s-.302-.075-.362-.14c-.413-.452-.303-1.855-.23-2.783.028-.365.055-.7.055-.983l.01-4.1h1.052l.01 4.1c0 .275.028.62.057.984.072.928.183 2.33-.23 2.783zm-1.762-11.785c-1.157-2.052-3.342-3.44-5.845-3.44s-4.7 1.388-5.846 3.44v-4.55h11.7v4.55zm12.834 16.3h-25.5v-12.37h.547a.44.44 0 0 0 .438-.443v-.143c0-3.25 2.623-5.897 5.846-5.897 3.124 0 5.678 2.488 5.83 5.603a.44.44 0 1 0 .012.875l-.01 4.096c0 .24-.026.567-.052.913-.095 1.2-.213 2.718.46 3.453.254.277.602.424 1.006.424s.75-.147 1.005-.424c.673-.735.555-2.243.46-3.453a13.224 13.224 0 0 1-.052-.913l-.01-4.096a.44.44 0 0 0-.003-.876V34.28h4.47a.443.443 0 0 0 .214-.828l-4.16-2.343v-2.222a.44.44 0 0 0-.438-.443.44.44 0 0 0-.438.443v2.04h-1.093v-2.04c0-3.603-2.755-4.108-5.818-4.18a1.55 1.55 0 0 0 .168-.69 1.56 1.56 0 0 0-.638-1.258 1.122 1.122 0 0 0-.475-1.67v-1.76a.44.44 0 0 0-.438-.443.44.44 0 0 0-.439.443v1.748a1.122 1.122 0 0 0-.474 1.669 1.56 1.56 0 0 0-.638 1.257 1.55 1.55 0 0 0 .164.687c-3.163.05-6.072.482-6.072 4.185l.002.02v2.02h-1.093v-16.24a.44.44 0 0 0-.437-.444h-16.033a2.038 2.038 0 0 0-.534-2.952 1.394 1.394 0 0 0-.63-2.22V6.442a.44.44 0 1 0-.878 0v2.616a1.403 1.403 0 0 0-.956 1.329 1.4 1.4 0 0 0 .325.892 2.04 2.04 0 0 0-.534 2.951h-16.116a.44.44 0 0 0-.438.443v16.24h-1.092v-2.02c0-.006.003-.012.003-.02 0-3.702-2.9-4.134-6.073-4.184.1-.208.164-.44.164-.687 0-.517-.254-.973-.638-1.257a1.122 1.122 0 0 0-.474-1.67V19.33a.44.44 0 0 0-.44-.443.44.44 0 0 0-.437.443v1.748a1.121 1.121 0 0 0-.474 1.669c-.386.284-.638.74-.638 1.257a1.56 1.56 0 0 0 .166.692c-3.063.07-5.818.576-5.818 4.18v2.04h-1.1v-2.04a.44.44 0 0 0-.439-.442.44.44 0 0 0-.439.443V31.1l-4.16 2.342a.445.445 0 0 0-.21.498.44.44 0 0 0 .424.33h4.47v7.597a.44.44 0 1 0-.002.876l-.01 4.096c0 .24-.027.567-.053.913-.096 1.2-.214 2.718.46 3.453.254.277.6.424 1.005.424s.752-.147 1.006-.424c.673-.735.555-2.243.46-3.453a12.742 12.742 0 0 1-.053-.913l-.01-4.096a.44.44 0 0 0 .012-.875c.153-3.115 2.706-5.603 5.83-5.603 3.224 0 5.847 2.646 5.847 5.897v.143a.44.44 0 0 0 .438.443h.548v12.37h-28.35a.443.443 0 0 0-.001.885h93.528a.442.442 0 1 0-.001-.884z"/><path d="M541.818 53.74H539.1a.44.44 0 0 0 0 .884h2.728a.44.44 0 0 0 0-.884m-2.325-.6h1.923a.44.44 0 1 0-.001-.885h-1.922a.44.44 0 0 0 0 .884m-27.584 1.033a.44.44 0 0 0 .438.442h2.728a.44.44 0 1 0-.001-.884h-2.727a.44.44 0 0 0-.438.442m.84-1.032h1.923a.44.44 0 0 0 .438-.442.44.44 0 0 0-.438-.443h-1.924a.44.44 0 0 0 0 .884m43.404.59h-2.728a.44.44 0 0 0 0 .884h2.728a.44.44 0 0 0 0-.884m-2.325-.6h1.923a.44.44 0 1 0-.001-.885h-1.922a.44.44 0 0 0 0 .884m25.902 1.033a.44.44 0 0 0 .438.442h2.73a.44.44 0 0 0 0-.884h-2.73a.44.44 0 0 0-.438.442m.84-1.032h1.925a.44.44 0 0 0 .438-.442.44.44 0 0 0-.438-.443h-1.924a.44.44 0 0 0 0 .884m8.394-12.597a1.477 1.477 0 0 1 1.406-1.044c.66 0 1.22.44 1.407 1.044h-2.813zm-3.823 0a1.475 1.475 0 0 1 1.406-1.044c.66 0 1.22.44 1.406 1.044h-2.812zm7.58.442a2.362 2.362 0 0 0-2.35-2.37 2.34 2.34 0 0 0-1.911.996 2.343 2.343 0 0 0-1.912-.996 2.362 2.362 0 0 0-2.35 2.37.44.44 0 0 0 .438.442h3.386v14a.44.44 0 0 0 .438.442.44.44 0 0 0 .438-.442v-14h3.385a.44.44 0 0 0 .438-.442zm-85.25 9.287a1.478 1.478 0 0 1 1.406-1.044 1.48 1.48 0 0 1 1.407 1.044h-2.814zm-3.824 0a1.478 1.478 0 0 1 1.406-1.044c.66 0 1.22.44 1.407 1.044h-2.813zm7.58.442c0-1.307-1.054-2.37-2.35-2.37a2.34 2.34 0 0 0-1.912.997 2.338 2.338 0 0 0-1.912-.997 2.363 2.363 0 0 0-2.35 2.37c0 .244.198.443.44.443h3.385v4.28a.44.44 0 0 0 .438.442.44.44 0 0 0 .439-.442v-4.28h3.385a.44.44 0 0 0 .438-.443z"/></g><g stroke-width=".5"><path stroke="#346aa0" d="M729.738 53.062h1.713m-2.26 1.08h2.808m12.462-1.08h1.713m-2.26 1.08h2.808m12.645-1.08h1.713m-2.26 1.08h2.81"/><g stroke="#000"><path d="M745.255 8.997V7m19.475 8.338v-1.38m-38.46 1.38v-1.38M759.997 40.9v-.195M718.724 26.37h-8.32l-2.12-3.5h10.44zm-5.75 21.933h-4.64l-1.712-1.9h6.352zm5.75-21.933h7.627v-3.5h-7.627zm-7.8.005v20.028m2.162 0h3.052V31.12h-3.052z"/><path d="M726.35 26.41h38.34v-3.55h-38.34z"/><path d="M738.83 22.9h1.306v-5.596h-1.306zm-3.55 0h1.306v-5.596h-1.306zm18.803 0h1.306v-5.596h-1.306zm-3.55 0h1.306v-5.596h-1.306zm14.154 3.51h-38.34l-.815 1.93h39.97z"/><path d="M727.41 34.94h36.3v-6.6h-36.3z"/><path d="M726.103 37.675h38.916V34.94h-38.916zm7.834-20.37h22.636m-15.498 0V15.88s.04-4.503 4.18-4.503c0 0 4.1 0 4.385 4.503v1.425h-8.565zm-19.047 5.514v-1.196s.04-3.777 4.18-3.777c0 0 4.1 0 4.385 3.777v1.196h-8.565z"/><path d="M744.093 34.94V31.8s.012-1.37 1.234-1.37c0 0 1.295-.001 1.295 1.37v3.152h-2.53zM718.1 46.403V35.128s.032-4.008 3.3-4.008c0 0 3.45-.326 3.45 4.008v11.275h-6.74zm29.663-11.462V31.8s.012-1.37 1.234-1.37c0 0 1.294-.001 1.294 1.37v3.152h-2.528zm3.67 0V31.8s.013-1.37 1.235-1.37c0 0 1.294-.001 1.294 1.37v3.152h-2.53zm3.67 0V31.8s.013-1.37 1.234-1.37c0 0 1.295-.001 1.295 1.37v3.152h-2.53zm4.078 0V31.8s.013-1.37 1.235-1.37c0 0 1.295-.001 1.295 1.37v3.152h-2.53zm-30.59 0V31.8s.013-1.37 1.235-1.37c0 0 1.295-.001 1.295 1.37v3.152h-2.53zm3.67 0V31.8s.012-1.37 1.234-1.37c0 0 1.294-.001 1.294 1.37v3.152h-2.528zm3.67 0V31.8s.012-1.37 1.234-1.37c0 0 1.294-.001 1.294 1.37v3.152h-2.528zm4.078 0V31.8s.012-1.37 1.234-1.37c0 0 1.295-.001 1.295 1.37v3.152h-2.53zm4.1 2.75v13.235s-.1 1.287 1.195 1.287c0 0 1.295.226 1.295-.984V37.7h-2.5zm14.846 0v13.235s-.1 1.287 1.195 1.287c0 0 1.296.226 1.296-.984V37.7h-2.49zm-29.692 0v13.235s-.1 1.287 1.195 1.287c0 0 1.295.226 1.295-.984V37.7h-2.5zm-2.223-20.613c0 .4-.328.742-.733.742a.738.738 0 0 1-.734-.742c0-.412.328-.744.734-.744s.733.332.733.744zm-.29-1.195a.447.447 0 0 1-.445.451.448.448 0 0 1-.445-.45c0-.25.2-.45.445-.45s.445.2.445.45zm45.562 10.488h8.32l2.12-3.5h-10.44zm-7.627 0h7.627v-3.5H764.7zm15.417.005v20.028m-5.03 0h3.052V31.12h-3.052zm-6.064-23.585v-1.196s-.04-3.777-4.18-3.777c0 0-4.1 0-4.385 3.777v1.196h8.565zm-5.017-5.74a.74.74 0 0 0 .734.742.738.738 0 0 0 .735-.742.738.738 0 0 0-.735-.744.738.738 0 0 0-.734.744zm.3-1.195c0 .25.198.45.444.45a.448.448 0 0 0 .446-.45c0-.25-.2-.45-.446-.45a.447.447 0 0 0-.444.45zM746 10.633a.74.74 0 0 1-.735.742.738.738 0 0 1-.733-.742c0-.41.328-.743.733-.743s.734.332.734.743zm-.3-1.194a.447.447 0 0 1-.445.45.448.448 0 0 1-.445-.45c0-.25.2-.45.445-.45s.445.2.445.45zm-16.435 36.964h-16.29m16.29 1.9h-16.29m64.738 0h4.64l1.712-1.9h-6.352zm-.7 6.774h1.726v-6.774h-1.726zm-11.5 0h1.726v-6.774h-1.726zm-41.683 0h1.727v-6.774h-1.726zm-11.683 0h1.726v-6.774h-1.726zm49.283-8.674h16.292m-16.292 1.9h16.292m-4.914-1.9V35.128s-.033-4.008-3.3-4.008c0 0-3.45-.326-3.45 4.008v11.275h6.74z"/></g><path stroke="#346aa0" d="M705.454 55.077h80.214"/></g><g fill="#3c3c3c"><path d="M796.973 54.623h-4.633m3.857 0h-7.482m8.97 0h-.88m-6.596 0h5.995m-6.594 0h2.752m6.37 0h-3.73m-6.595 0h-.232m9.88.985h-94.57a.489.489 0 0 1-.487-.493.49.49 0 0 1 .486-.492h94.57a.49.49 0 0 1 .486.492.489.489 0 0 1-.486.493"/><path d="M784.666 54.695a.49.49 0 0 0 .486.492.49.49 0 0 0 .486-.492m11.248-2.4c-.25.28-.593.445-.965.463l-1.558.005-.392-.003a.914.914 0 0 1-.909-.92c0-.504.406-.917.904-.92a.488.488 0 0 0 .399-.212.499.499 0 0 0 .054-.453.916.916 0 0 1 .85-1.24c.423 0 .787.292.883.7a.494.494 0 0 0 .273.336 1.41 1.41 0 0 1 .82 1.215c.018.377-.1.74-.36 1.018m1.33-1.067a2.39 2.39 0 0 0-1.184-1.958 1.872 1.872 0 0 0-1.761-1.239c-1.037 0-1.882.855-1.882 1.905l.003.094a1.9 1.9 0 0 0-1.3 1.8c0 1.05.843 1.905 1.88 1.905l.385.003.313.002v1.36a.49.49 0 0 0 .486.492.49.49 0 0 0 .486-.491v-1.36l.33-.01a2.338 2.338 0 0 0 1.636-.785c.425-.475.64-1.088.6-1.728m-65.317 3.91a.49.49 0 0 0 .487.492h52.5a.49.49 0 0 0 .487-.492"/><path d="M788.408 54.623h-.232m5.394 0h-3.73m8.893 0h-3.73m-4.075 0h6.388m-7.708 0h2.754m2.41 0h-3.73m-.834 0h5.995m-.832 0h-3.73m6.043 0h-.88m-3.12.582c0 .32.218.58.486.58h-9.456c.27 0 .487-.26.487-.58"/><path d="M796.197 54.623h-7.482m8.258 0h-4.633m1.885 0h3.72m-6.578.582c0 .32.218.58.486.58h4.83c.27 0 .486-.26.486-.58m-7.013-11.57a1.64 1.64 0 0 1 1.56-1.162c.73 0 1.352.5 1.56 1.162h-3.12zm-4.24 0a1.64 1.64 0 0 1 1.56-1.162c.73 0 1.352.5 1.56 1.162h-3.12zm5.8-2.146a2.59 2.59 0 0 0-2.12 1.11 2.59 2.59 0 0 0-2.12-1.11c-1.438 0-2.607 1.183-2.607 2.64a.49.49 0 0 0 .486.492h3.753v10.387a.49.49 0 0 0 .487.494.49.49 0 0 0 .487-.494V44.62h3.753a.49.49 0 0 0 .487-.492c0-1.456-1.17-2.64-2.606-2.64zm145.514-.264c0 .272.215.492.48.492h9.8c.266 0 .48-.22.48-.492a.486.486 0 0 0-.48-.492h-9.8c-.265 0-.48.22-.48.492m-1.63-.492h-4.316c-.265 0-.48.22-.48.5s.215.493.48.493h4.315c.266 0 .48-.22.48-.493a.486.486 0 0 0-.48-.491m11.9 7.7h-9.8a.487.487 0 0 0-.48.492c0 .272.215.493.48.493h9.8c.266 0 .48-.22.48-.493a.486.486 0 0 0-.48-.492m-11.9 0h-4.316c-.265 0-.48.22-.48.492s.215.493.48.493h4.315c.266 0 .48-.22.48-.493a.486.486 0 0 0-.48-.492m11.9 1.3h-9.8a.486.486 0 0 0-.48.491c0 .273.215.494.48.494h9.8c.266 0 .48-.22.48-.494a.486.486 0 0 0-.48-.49m-11.9-.001h-4.316c-.265 0-.48.22-.48.5a.49.49 0 0 0 .48.494h4.315c.266 0 .48-.22.48-.494a.486.486 0 0 0-.48-.49m-6.598-1.3h-1.578c-.265 0-.48.22-.48.492s.215.493.48.493H929c.265 0 .48-.22.48-.493a.486.486 0 0 0-.48-.492m0 1.3h-1.578c-.265 0-.48.22-.48.5a.49.49 0 0 0 .48.494H929c.265 0 .48-.22.48-.494a.486.486 0 0 0-.48-.49m22.655-28.502c0 .272.215.492.48.492s.48-.22.48-.492c0-3.823 3.038-6.934 6.772-6.934s6.77 3.1 6.77 6.934c0 .272.215.492.48.492s.48-.22.48-.492c0-4.367-3.468-7.92-7.732-7.92s-7.733 3.553-7.733 7.92m-21.697 9.804c0 .272.216.493.48.493s.48-.22.48-.493c0-2.97 2.36-5.385 5.26-5.385s5.257 2.416 5.257 5.385c0 .272.216.493.48.493s.48-.22.48-.493c0-3.5-2.8-6.37-6.218-6.37s-6.22 2.86-6.22 6.37m29.565-4.66c.265 0 .48-.22.48-.492V24.15a.486.486 0 0 0-.48-.491c-.266 0-.48.22-.48.5v1.744c0 .272.215.492.48.492M936.66 22.58v-1.744a.486.486 0 0 0-.48-.49c-.266 0-.48.22-.48.5V22.6c0 .272.215.493.48.493s.48-.22.48-.493m-1.813 1.343c0 .272.215.5.48.5h1.703c.265 0 .48-.22.48-.5a.486.486 0 0 0-.48-.493h-1.703c-.266 0-.48.22-.48.492m13.82-5.58V17.1a.486.486 0 0 0-.48-.492c-.266 0-.482.22-.482.492v1.252c0 .27.216.5.48.5s.48-.22.48-.5m-1.572 1.252c0 .272.215.492.48.492h1.222c.266 0 .48-.22.48-.492a.485.485 0 0 0-.48-.491h-1.222c-.266 0-.48.22-.48.5m23.814-.76c.265 0 .48-.22.48-.5V17.08a.486.486 0 0 0-.48-.491c-.266 0-.48.22-.48.5v1.253c0 .27.214.5.48.5m-.6 1.254h1.222c.265 0 .48-.22.48-.493a.486.486 0 0 0-.48-.492h-1.222c-.266 0-.48.22-.48.492s.215.493.48.493"/><path d="M960.005 17.53v-1.745a.486.486 0 0 0-.48-.491c-.266 0-.48.22-.48.5v1.745c0 .27.215.5.48.5s.48-.22.48-.5m-1.812 1.34c0 .272.215.492.48.492h1.702c.267 0 .48-.22.48-.5a.486.486 0 0 0-.48-.492h-1.702c-.265 0-.48.22-.48.492m1.332-7.143c.265 0 .48-.22.48-.492V9.492a.486.486 0 0 0-.48-.491c-.266 0-.48.22-.48.5v1.744c0 .272.215.492.48.492m-.85 1.342h1.703c.266 0 .48-.22.48-.5a.486.486 0 0 0-.48-.493h-1.703c-.265 0-.48.22-.48.493s.215.5.48.5m22.666 27.663h-9.8c-.265 0-.48.22-.48.5s.215.493.48.493h9.8c.265 0 .48-.22.48-.493a.486.486 0 0 0-.48-.491m6.426 0h-4.316c-.265 0-.48.22-.48.5s.215.493.48.493h4.316c.265 0 .48-.22.48-.493a.486.486 0 0 0-.48-.491m-6.426 7.7h-9.8c-.265 0-.48.22-.48.492s.215.493.48.493h9.8c.265 0 .48-.22.48-.493a.486.486 0 0 0-.48-.492m6.426 0h-4.316c-.265 0-.48.22-.48.492s.215.493.48.493h4.316c.265 0 .48-.22.48-.493a.486.486 0 0 0-.48-.492m-6.426 1.3h-9.8c-.265 0-.48.22-.48.5a.49.49 0 0 0 .48.494h9.8c.265 0 .48-.22.48-.494a.486.486 0 0 0-.48-.49m6.426-.001h-4.316c-.265 0-.48.22-.48.5a.49.49 0 0 0 .48.494h4.316c.265 0 .48-.22.48-.494a.486.486 0 0 0-.48-.49m3.86-1.3h-1.578c-.266 0-.48.22-.48.492s.214.493.48.493h1.578c.265 0 .48-.22.48-.493a.486.486 0 0 0-.48-.492m0 1.3h-1.578c-.266 0-.48.22-.48.5s.214.494.48.494h1.578c.265 0 .48-.22.48-.494a.486.486 0 0 0-.48-.49M977.13 31.54c.266 0 .48-.22.48-.492 0-2.97 2.36-5.386 5.26-5.386s5.257 2.415 5.257 5.386c0 .272.215.492.48.492s.48-.22.48-.492c0-3.513-2.8-6.37-6.218-6.37s-6.22 2.857-6.22 6.37c0 .272.216.492.48.492m5.74-8.465c.265 0 .48-.22.48-.492V20.84a.486.486 0 0 0-.48-.492c-.266 0-.48.22-.48.492v1.744c0 .272.215.492.48.492m-.85 1.342h1.703c.265 0 .48-.22.48-.5a.487.487 0 0 0-.48-.494h-1.703c-.266 0-.48.22-.48.494s.214.5.48.5m16.23 16.306h-8.97v-1.656h8.97v1.656zm-.836 14.313h.836v-13.33h-.836v13.33zm-4.067 0h3.106v-13.33h-3.106v13.33zm-.96 0h-3.106v-13.33h3.106v13.33zm1.417-20.5l3.536 3.548h-7.07l3.534-3.548zm-10.92 3.548h5.446V33.7h-5.445v4.392zm5.435 3.13v13.822h-5.423v-15.97h5.423v2.147zm-2.712-10.577l2.06 2.07h-4.12l2.06-2.07zm-3.672 24.4h-10.982v-15.97h10.982v15.97zM968.03 30.06c-.026-.026-.058-.04-.088-.058-.023-.015-.043-.036-.068-.046-.032-.013-.065-.015-.1-.02-.028-.005-.054-.014-.082-.014s-.06.01-.093.017-.06.006-.088.018-.047.032-.07.048-.06.03-.085.056l-2.415 2.424-2.892-2.903h6.767c.265 0 .48-.22.48-.5a.488.488 0 0 0-.48-.494h-7.747l-.467-.468h8.214c.265 0 .48-.22.48-.493a.488.488 0 0 0-.48-.492h-1.712a8.08 8.08 0 0 0-.179-1.275h5.5v10.466l-1.463 1.47v-4.53a.492.492 0 0 0-.132-.411l-2.8-2.802zm-1.968 2.68l1.63-1.638 1.63 1.638h-3.262zm3.93 5.352h-4.596v-4.368h4.595v4.368zm-.837 16.953h.836V39.077h-.836v15.97zm-3.76.05h2.798v-16.02h-2.798v16.02zm-.96-17.004h-9.823v-4.368h9.823v4.368zm-.836 16.953h.836V39.077h-.836v15.97zm-7.2.05h6.228v-16.02H956.4v16.02zm-1.797-.05h.837v-15.97h-.837v15.97zM951.7 30.06c-.025-.025-.056-.04-.084-.057s-.046-.036-.07-.047c-.032-.013-.065-.015-.098-.02s-.055-.014-.083-.014-.062.01-.093.017-.06.006-.087.018-.048.032-.073.048-.06.03-.083.056l-2.8 2.802a.488.488 0 0 0-.132.412v4.53l-1.463-1.468V25.87h5.22a8.21 8.21 0 0 0-.18 1.275h-1.44a.487.487 0 0 0-.48.492c0 .272.214.493.48.493h8.38l-.467.468h-7.912a.487.487 0 0 0-.48.494c0 .27.214.5.48.5h6.93L954.2 32.58l-2.498-2.507zm-1.968 2.68l1.632-1.638 1.63 1.638h-3.263zm3.93 5.352h-4.596v-4.368h4.595v4.368zm-2.8 17.004h2.798v-16.02h-2.798v16.02zm-1.797-.05h.836v-15.97h-.836v15.97zm-.96 0h-10.982v-15.97h10.982v15.97zm-10.97-16.953h4.596v-4.37h-4.596v4.37zm2.3-7l1.632 1.638h-3.264l1.632-1.638zm5.97 5.37l1.614 1.62h-3.227l1.613-1.62zm-.276-10.603h.552v9.522c-.006-.006-.013-.01-.02-.013-.025-.017-.048-.04-.074-.05s-.063-.014-.094-.02-.058-.017-.087-.017-.06.01-.088.017-.063.007-.093.02-.05.033-.075.05c-.007.003-.014.007-.02.013v-9.52zm15.416 3.57l3.287 3.3h-8.43l4.215-4.23.928.93zm-1.145-8.737c3.57 0 6.5 2.848 6.747 6.442h-13.494c.25-3.594 3.176-6.442 6.748-6.442zm14.263 15.77l1.614 1.62h-3.227l1.613-1.62zm-.275-10.603h.55v9.522a.121.121 0 0 0-.023-.015c-.025-.016-.046-.037-.072-.048s-.062-.014-.093-.02-.058-.016-.088-.016-.057.01-.087.016-.063.008-.094.02c-.025.01-.046.032-.07.047-.008.006-.017.01-.024.016v-9.52zm3.95 12.224h4.594v-4.37h-4.595v4.37zm2.296-7l1.632 1.638h-3.262l1.63-1.638zm-48.904 7h5.444V33.7h-5.444v4.392zm5.433 16.953h-5.423v-15.98h5.423v15.97zm-2.7-24.4l2.06 2.07h-4.12l2.06-2.07zm-3.673 10.086h-8.97v-1.656h8.97v1.656zm0 14.313h-3.106v-13.34h3.106v13.33zm-7.173 0h3.106v-13.34h-3.106v13.33zm-1.798 0h.837v-13.34h-.837v13.33zm4.447-20.5l3.534 3.548h-7.07l3.536-3.548zm-12.876 18.08c-.65 0-1.177-.54-1.177-1.206 0-.46.255-.874.666-1.078a.493.493 0 0 0 .257-.329.504.504 0 0 0-.083-.411 2.144 2.144 0 0 1-.423-1.283c0-1.176.934-2.133 2.082-2.133s2.083.957 2.083 2.133c0 .223-.035.445-.103.66a.5.5 0 0 0 .166.544 1.73 1.73 0 0 1 .665 1.374c0 .954-.758 1.73-1.7 1.73h-2.443zm33.44-29.206c.166-1.186 1.162-2.1 2.366-2.1s2.2.914 2.366 2.1h-4.733zm25.042-2.1c1.203 0 2.2.914 2.366 2.1h-4.733c.167-1.186 1.163-2.1 2.367-2.1zm30.86 28.068a1.438 1.438 0 0 1 1.365-1.03 1.44 1.44 0 0 1 1.366 1.03h-2.73zm5.077-1.03c.64 0 1.183.435 1.366 1.03h-2.732a1.438 1.438 0 0 1 1.366-1.03zm-1.43 1.902h3.285a.431.431 0 0 0 .426-.436c0-1.288-1.023-2.337-2.28-2.337-.766 0-1.442.4-1.856.983a2.265 2.265 0 0 0-1.856-.983c-1.258 0-2.28 1.05-2.28 2.337a.43.43 0 0 0 .426.436h3.285v4.826h-5.32v-13.38h.277c.265 0 .48-.22.48-.493a.487.487 0 0 0-.48-.491h-.277v-1.656h.276c.266 0 .48-.22.48-.492a.487.487 0 0 0-.48-.492h-.775l-4.57-4.6c-.027-.026-.06-.042-.1-.06-.022-.014-.04-.033-.065-.043-.034-.015-.07-.018-.107-.022-.025-.004-.048-.014-.073-.014-.032 0-.062.01-.093.017s-.06.007-.1.02-.046.03-.07.045-.06.03-.086.057l-4.176 4.194V33.26a.491.491 0 0 0-.13-.423l-3.218-3.23c-.025-.026-.057-.04-.085-.058s-.045-.035-.07-.046c-.032-.013-.065-.014-.1-.02-.026-.006-.053-.016-.08-.016s-.06.01-.092.017-.06.008-.1.02c-.024.01-.046.033-.07.048s-.06.03-.085.056L982.4 32.5l-2.428-2.438c-.026-.025-.056-.04-.086-.057-.023-.015-.044-.036-.07-.047-.032-.013-.066-.015-.1-.02-.026-.006-.054-.015-.082-.015s-.062.01-.093.017-.06.006-.087.018-.05.032-.073.05c-.03.016-.06.03-.084.054l-2.8 2.802a.488.488 0 0 0-.13.417v4.536l-1.477-1.48V25.87h.36c.265 0 .48-.22.48-.492a.486.486 0 0 0-.48-.493h-8.6a8.314 8.314 0 0 0-.189-.47h8.798c.265 0 .48-.218.48-.5a.487.487 0 0 0-.48-.494h-1.05c-.172-1.73-1.603-3.085-3.337-3.085s-3.166 1.355-3.338 3.085h-1.587c-1.37-2.227-3.793-3.713-6.548-3.713s-5.178 1.486-6.548 3.713h-1.318c-.173-1.73-1.603-3.085-3.337-3.085s-3.166 1.355-3.338 3.085H943.8a.487.487 0 0 0-.481.494c0 .272.215.5.48.5h8.528l-.188.47h-8.34c-.266 0-.48.22-.48.493s.215.492.48.492h.358v10.466l-1.475 1.48V33.28a.488.488 0 0 0-.131-.417l-2.8-2.802c-.025-.025-.057-.04-.085-.057s-.046-.036-.07-.047c-.032-.014-.066-.015-.1-.02-.027-.005-.053-.014-.08-.014s-.062.01-.092.017-.06.006-.088.018-.05.032-.074.05-.058.03-.083.054l-2.43 2.438-2.882-2.893c-.026-.027-.058-.04-.087-.058-.023-.014-.044-.036-.07-.046s-.065-.014-.098-.02c-.027-.006-.054-.016-.082-.016s-.06.01-.092.018-.06.007-.1.018-.048.034-.074.05-.057.03-.082.055l-3.217 3.23a.494.494 0 0 0-.13.423v4.437l-4.177-4.194c-.027-.026-.06-.042-.092-.06-.022-.014-.04-.033-.063-.043-.035-.015-.07-.017-.107-.022-.025-.004-.048-.014-.074-.014-.032 0-.063.01-.095.017s-.058.007-.086.018-.05.033-.074.05-.058.03-.082.054l-4.57 4.6h-.775a.487.487 0 0 0-.48.492c0 .272.215.492.48.492h.275v1.656h-.275c-.265 0-.48.22-.48.5s.215.493.48.493h.275v13.38h-5.48V53.62h.468c1.462 0 2.65-1.217 2.65-2.714a2.72 2.72 0 0 0-.794-1.936 2.99 2.99 0 0 0 .067-.64c0-1.72-1.366-3.118-3.045-3.118s-3.043 1.4-3.043 3.117c0 .505.117.992.342 1.434a2.184 2.184 0 0 0-.76 1.667c0 1.208.96 2.2 2.14 2.2h1.013v1.476h-4.913c-.266 0-.48.22-.48.492s.214.493.48.493h99.868s.383-.245.383-.556c0-.347-.52-.43-.52-.43h-2.842V50.27zm123.585 4.944c-.17 0-.307-.155-.307-.347s.137-.346.307-.346h87.087c.17 0 .307.155.307.346s-.137.347-.307.347h-87.087z"/><path d="M1208.934 50.312a.865.865 0 0 1 .823-.61c.386 0 .713.257.824.6h-1.647zm-2.237 0a.863.863 0 0 1 .822-.61c.387 0 .714.257.825.6h-1.647zm1.94-.544a1.37 1.37 0 0 0-1.119-.582c-.757 0-1.375.62-1.375 1.384 0 .142.115.258.257.258h1.98v3.896a.26.26 0 0 0 .257.258.257.257 0 0 0 .257-.258v-3.896h1.98a.257.257 0 0 0 .257-.258 1.38 1.38 0 0 0-1.375-1.384 1.37 1.37 0 0 0-1.119.582zm-70.34-2.725a.863.863 0 0 1 .823-.61c.386 0 .713.257.822.6h-1.645zm-2.237 0a.863.863 0 0 1 .822-.61c.387 0 .714.257.823.6h-1.645zm3.06-1.126a1.37 1.37 0 0 0-1.12.582 1.37 1.37 0 0 0-1.118-.582c-.757 0-1.375.62-1.375 1.384 0 .142.115.258.257.258h1.98v7.165a.257.257 0 1 0 .514 0V47.56h1.98a.257.257 0 0 0 .257-.258c0-.763-.618-1.384-1.375-1.384zm13.7 8.75h40.113V37.084h-40.113v17.582zm40.387.55h-40.66a.274.274 0 0 1-.274-.275V36.81c0-.152.123-.275.274-.275h40.66c.152 0 .273.123.273.275v18.13a.274.274 0 0 1-.273.275z"/><path d="M1144.018 54.666h8.256V34.743l-1.575-5.774h-5.106l-1.575 5.774v19.923zm8.53.55h-8.804a.274.274 0 0 1-.273-.275V34.706c0-.025.003-.05.01-.073l1.64-6.012a.273.273 0 0 1 .264-.202h5.522c.123 0 .23.082.264.202l1.64 6.012c.007.023.01.048.01.073V54.94a.274.274 0 0 1-.273.275zm40.925-.55h8.257V34.743l-1.576-5.774h-5.105l-1.576 5.774v19.923zm8.53.55h-8.803a.274.274 0 0 1-.274-.275V34.706c0-.025.003-.05.01-.073l1.64-6.012a.273.273 0 0 1 .264-.202h5.522c.123 0 .23.082.263.202l1.64 6.012c.007.023.01.048.01.073V54.94a.274.274 0 0 1-.273.275z"/><path d="M1154.508 54.548h2.325v-4.153c0-.645-.52-1.17-1.162-1.17a1.17 1.17 0 0 0-1.163 1.17v4.153zm2.598.55h-2.87a.274.274 0 0 1-.274-.275v-4.428c0-.948.767-1.72 1.7-1.72s1.7.772 1.7 1.72v4.428a.274.274 0 0 1-.274.275zm-10.77-.478h3.62v-3.398c0-1.003-.812-1.82-1.8-1.82s-1.8.817-1.8 1.82v3.398zm3.893.55h-4.166a.274.274 0 0 1-.274-.275v-3.673a2.367 2.367 0 0 1 2.357-2.37c1.3 0 2.356 1.064 2.356 2.37v3.673a.274.274 0 0 1-.273.275zm4.42-10.684h.685v-1.623a.343.343 0 0 0-.342-.344.343.343 0 0 0-.343.344v1.623zm.958.55h-1.23a.274.274 0 0 1-.274-.275v-1.898c0-.493.4-.894.9-.894s.9.4.9.894v1.898a.274.274 0 0 1-.274.275zm-10.385-6.874h.448v-1.26c0-.124-.1-.225-.224-.225a.225.225 0 0 0-.224.226v1.26zm.722.55h-.995a.274.274 0 0 1-.274-.275v-1.534c0-.428.346-.776.77-.776s.77.348.77.776v1.534a.274.274 0 0 1-.273.276zm4.758-.55h.448v-1.26c0-.124-.1-.225-.224-.225a.225.225 0 0 0-.224.226v1.26zm.722.55h-.995a.274.274 0 0 1-.274-.275v-1.534c0-.428.346-.776.77-.776s.77.348.77.776v1.534a.274.274 0 0 1-.273.276zm-4.165 2.16h1.774V37.57a.89.89 0 0 0-.887-.893.89.89 0 0 0-.887.893v3.303zm2.047.55h-2.32a.274.274 0 0 1-.274-.275V37.57a1.44 1.44 0 0 1 1.434-1.443 1.44 1.44 0 0 1 1.434 1.443v3.578a.274.274 0 0 1-.274.276z"/><path d="M1195.78 54.667h3.62V51.27c0-1.004-.812-1.82-1.8-1.82s-1.8.816-1.8 1.82v3.397zm3.893.55h-4.166a.274.274 0 0 1-.274-.275V51.27a2.367 2.367 0 0 1 2.357-2.37c1.3 0 2.357 1.063 2.357 2.37v3.672a.274.274 0 0 1-.274.276zm-4.993-17.18h.448v-1.26c0-.124-.1-.225-.224-.225a.225.225 0 0 0-.224.225v1.26zm.722.55h-.996a.274.274 0 0 1-.273-.275v-1.535c0-.427.346-.775.77-.775s.77.348.77.775v1.535a.274.274 0 0 1-.273.275zm4.758-.55h.448v-1.26c0-.124-.1-.225-.224-.225a.225.225 0 0 0-.224.225v1.26zm.72.55h-.995a.274.274 0 0 1-.273-.275v-1.535c0-.427.346-.775.77-.775s.77.348.77.775v1.535a.274.274 0 0 1-.274.275zm-4.164 2.163h1.774v-3.304a.89.89 0 0 0-.887-.892.89.89 0 0 0-.887.892v3.304zm2.048.55h-2.322a.274.274 0 0 1-.273-.275v-3.58a1.44 1.44 0 0 1 1.434-1.442 1.44 1.44 0 0 1 1.434 1.442v3.58a.274.274 0 0 1-.273.275zm-42.882 3.186h.683v-1.623a.343.343 0 0 0-.342-.344.343.343 0 0 0-.341.344v1.623zm.957.55h-1.23a.274.274 0 0 1-.274-.275v-1.898c0-.493.398-.894.888-.894s.9.4.9.894v1.898a.274.274 0 0 1-.274.275z"/><use xlink:href="#B"/><path d="M1148.42 45.88h.683v-1.623a.343.343 0 0 0-.341-.344.343.343 0 0 0-.342.344v1.623zm.957.55h-1.23a.274.274 0 0 1-.274-.275v-1.898c0-.493.398-.894.889-.894.49 0 .888.4.888.894v1.898a.274.274 0 0 1-.273.275z"/><use xlink:href="#C"/><path d="M1197.864 45.88h.683v-1.623a.343.343 0 0 0-.342-.344.343.343 0 0 0-.341.344v1.623zm.957.55h-1.23a.274.274 0 0 1-.273-.275v-1.898c0-.493.398-.894.888-.894s.9.4.9.894v1.898a.274.274 0 0 1-.274.275z"/><use xlink:href="#D"/><path d="M1160.125 44.486h.684v-1.623a.343.343 0 0 0-.342-.344.343.343 0 0 0-.342.344v1.623zm.958.55h-1.23a.274.274 0 0 1-.274-.275v-1.898c0-.493.4-.894.89-.894s.9.4.9.894v1.898a.274.274 0 0 1-.274.275z"/><use xlink:href="#B" x="15.887" y="-1.394"/><path d="M1164.307 44.486h.683v-1.623a.343.343 0 0 0-.341-.344.343.343 0 0 0-.342.344v1.623zm.957.55h-1.23a.274.274 0 0 1-.274-.275v-1.898c0-.493.398-.894.9-.894a.89.89 0 0 1 .888.894v1.898a.274.274 0 0 1-.273.275zm-6.564 9.512h2.324v-4.153c0-.645-.52-1.17-1.162-1.17s-1.163.525-1.163 1.17v4.153zm2.597.55h-2.87a.274.274 0 0 1-.274-.275v-4.428c0-.948.767-1.72 1.7-1.72s1.7.772 1.7 1.72v4.428a.274.274 0 0 1-.274.275z"/><path d="M1162.87 54.548h2.326v-4.153a1.17 1.17 0 0 0-1.163-1.17 1.17 1.17 0 0 0-1.162 1.17v4.153zm2.6.55h-2.872a.274.274 0 0 1-.273-.275v-4.428c0-.948.767-1.72 1.7-1.72s1.708.772 1.708 1.72v4.428a.274.274 0 0 1-.273.275zm27.74-9.918h-40.66c-.15 0-.274-.156-.274-.347s.123-.347.274-.347h40.66c.15 0 .274.155.274.347s-.123.346-.274.346m-38.142 1.2a.327.327 0 0 0 0 .653h1.208a.326.326 0 0 0 0-.653h-1.208zm1.208 1.204h-1.208a.875.875 0 0 1-.871-.877c0-.484.4-.877.87-.877h1.208c.48 0 .872.393.872.877a.875.875 0 0 1-.872.877zm2.973-1.204a.327.327 0 0 0 0 .653h1.21a.326.326 0 0 0 0-.653h-1.21zm1.21 1.204h-1.21a.875.875 0 0 1-.871-.877c0-.484.4-.877.87-.877h1.21c.48 0 .872.393.872.877a.875.875 0 0 1-.872.877zm2.973-1.204a.327.327 0 0 0 0 .653h1.208a.326.326 0 0 0 0-.653h-1.208zm1.208 1.204h-1.208a.875.875 0 0 1-.872-.877c0-.484.39-.877.872-.877h1.208c.48 0 .872.393.872.877a.875.875 0 0 1-.872.877z"/><use xlink:href="#E"/><path d="M1180.92 44.486h.684v-1.623a.343.343 0 0 0-.343-.344.343.343 0 0 0-.341.344v1.623zm.957.55h-1.23a.274.274 0 0 1-.273-.275v-1.898c0-.493.398-.894.888-.894s.9.4.9.894v1.898a.274.274 0 0 1-.274.275z"/><path d="M1182.15 44.486h.684v-1.623a.343.343 0 0 0-.341-.344.343.343 0 0 0-.342.344v1.623zm.958.55h-1.23a.274.274 0 0 1-.274-.275v-1.898c0-.493.398-.894.89-.894s.888.4.888.894v1.898a.274.274 0 0 1-.273.275z"/><use xlink:href="#D" x="26.269"/><path d="M1186.394 44.486h.684v-1.623a.343.343 0 0 0-.342-.344.343.343 0 0 0-.342.344v1.623zm.957.55h-1.23a.274.274 0 0 1-.274-.275v-1.898c0-.493.4-.894.9-.894s.888.4.888.894v1.898a.274.274 0 0 1-.274.275zm1.993-.55h.685v-1.623a.343.343 0 0 0-.343-.344.343.343 0 0 0-.342.344v1.623zm.958.55h-1.23a.274.274 0 0 1-.273-.275v-1.898c0-.493.398-.894.888-.894s.9.4.9.894v1.898a.274.274 0 0 1-.274.275z"/><use xlink:href="#C" x="-6.057" y="-1.394"/><use xlink:href="#E" x="4.181"/><path d="M1189.14 54.548h2.325v-4.153a1.17 1.17 0 0 0-1.163-1.17 1.17 1.17 0 0 0-1.162 1.17v4.153zm2.598.55h-2.872a.274.274 0 0 1-.273-.275v-4.428c0-.948.767-1.72 1.7-1.72s1.71.772 1.71 1.72v4.428a.274.274 0 0 1-.274.275zm-10.402-8.71a.327.327 0 0 0 0 .653h1.207a.326.326 0 0 0 0-.653h-1.207zm1.207 1.204h-1.207a.875.875 0 0 1-.872-.877c0-.484.4-.877.872-.877h1.207c.48 0 .872.393.872.877a.875.875 0 0 1-.872.877zm2.974-1.204a.327.327 0 0 0 0 .653h1.208a.326.326 0 0 0 0-.653h-1.208zm1.208 1.204h-1.208a.875.875 0 0 1-.872-.877c0-.484.4-.877.872-.877h1.208c.48 0 .872.393.872.877a.875.875 0 0 1-.872.877zm2.973-1.204a.327.327 0 0 0 0 .653h1.208a.326.326 0 0 0 0-.653h-1.208zm1.208 1.204h-1.208a.875.875 0 0 1-.872-.877c0-.484.39-.877.872-.877h1.208c.48 0 .872.393.872.877a.875.875 0 0 1-.872.877zm1.974-7.595h-40.332c-.152 0-.274-.156-.274-.347s.122-.347.274-.347h40.333c.15 0 .273.156.273.347s-.122.347-.273.347"/><path d="M1167.495 54.547h11.266v-37l-3.75-10.603h-3.767l-3.75 10.603v37zm11.54.55h-11.812a.274.274 0 0 1-.274-.274V17.49a.28.28 0 0 1 .016-.092l3.83-10.83a.273.273 0 0 1 .258-.183h4.154a.27.27 0 0 1 .257.183l3.83 10.83c.01.03.016.06.016.092v37.334a.274.274 0 0 1-.274.275z"/><path d="M1179.034 17.853a.273.273 0 0 1-.258-.183l-3.764-10.647h-3.768l-3.765 10.647a.272.272 0 0 1-.35.167.275.275 0 0 1-.165-.351l3.83-10.83a.273.273 0 0 1 .256-.183h4.155c.116 0 .22.073.258.183l3.828 10.83a.275.275 0 0 1-.257.367m-8.276 36.695h4.923v-8.16a2.472 2.472 0 0 0-2.461-2.476 2.472 2.472 0 0 0-2.462 2.476v8.16zm5.197.55h-5.47a.274.274 0 0 1-.274-.275V46.4c0-1.67 1.35-3.026 3-3.026a3.02 3.02 0 0 1 3.008 3.026v8.434a.274.274 0 0 1-.273.275zm-23.407-20.118h-3.533a.271.271 0 0 1-.22-.113l-.8-1.108-.76 1.104a.275.275 0 0 1-.226.118h-3.265a.274.274 0 0 1-.274-.275c0-.152.123-.275.274-.275h3.122l.9-1.304a.274.274 0 0 1 .222-.118h.003a.27.27 0 0 1 .22.114l.945 1.308h3.393c.15 0 .273.123.273.275a.274.274 0 0 1-.273.275m49.455-.125h-3.447a.273.273 0 0 1-.22-.113l-.8-1.108-.76 1.103a.274.274 0 0 1-.226.118h-3.265a.274.274 0 0 1-.273-.275c0-.152.122-.275.273-.275h3.123l.898-1.303a.275.275 0 0 1 .222-.118h.003a.27.27 0 0 1 .22.113l.944 1.308h3.307a.275.275 0 1 1 0 .55m-55.244-6.437h2.7v-.752h-2.7v.752zm2.974.55h-3.248a.274.274 0 0 1-.273-.275v-1.302c0-.152.122-.275.273-.275h3.248c.15 0 .274.123.274.275v1.302a.274.274 0 0 1-.274.275z"/><path d="M1146.556 28.664c-.2 0-.344-.123-.344-.275v-2.184c0-.152.154-.275.344-.275s.345.123.345.275v2.184c0 .152-.154.275-.345.275m3.248 0c-.2 0-.344-.123-.344-.275v-2.184c0-.152.154-.275.344-.275s.345.123.345.275v2.184c0 .152-.155.275-.345.275m-1.587 0c-.2 0-.344-.123-.344-.275v-2.184c0-.152.154-.275.344-.275s.345.123.345.275v2.184c0 .152-.155.275-.345.275m48.033-.37h2.7v-.75h-2.7v.75zm2.975.55h-3.248a.274.274 0 0 1-.273-.275v-1.302c0-.15.122-.275.273-.275h3.248c.15 0 .273.124.273.275v1.302a.274.274 0 0 1-.273.276z"/><path d="M1196.048 28.54c-.2 0-.344-.123-.344-.275V26.08c0-.152.154-.275.344-.275s.345.123.345.275v2.184c0 .152-.154.275-.345.275m3.248 0c-.2 0-.344-.123-.344-.275V26.08c0-.152.154-.275.344-.275s.345.123.345.275v2.184c0 .152-.155.275-.345.275m-1.586 0c-.2 0-.345-.123-.345-.275V26.08c0-.152.154-.275.344-.275s.345.123.345.275v2.184c0 .152-.155.275-.345.275m-26.164-22.193h2.7v-.752h-2.7v.752zm2.974.55h-3.248a.274.274 0 0 1-.273-.275v-1.3c0-.152.122-.275.273-.275h3.248c.15 0 .273.123.273.275v1.3a.274.274 0 0 1-.273.275z"/><path d="M1171.342 6.59c-.2 0-.344-.123-.344-.275V4.132c0-.15.154-.275.344-.275s.345.124.345.275v2.184c0 .152-.155.275-.345.275m3.248 0c-.2 0-.345-.123-.345-.275V4.132c0-.15.155-.275.345-.275s.345.124.345.275v2.184c0 .152-.155.275-.345.275m-1.588 0c-.2 0-.344-.123-.344-.275V.82c0-.15.154-.275.344-.275s.345.124.345.275v5.496c0 .152-.154.275-.345.275m.218 12.024c-1.09 0-1.974.89-1.974 1.986s.885 1.986 1.974 1.986 1.974-.9 1.974-1.986a1.982 1.982 0 0 0-1.974-1.986m0 4.522a2.531 2.531 0 0 1-.001-5.072 2.531 2.531 0 0 1 .001 5.072m5.814 1.992h-11.813c-.15 0-.273-.156-.273-.347s.122-.346.273-.346h11.813c.15 0 .273.155.273.346s-.122.347-.273.347m0 6.74h-11.813c-.15 0-.273-.156-.273-.347s.122-.347.273-.347h11.813c.15 0 .273.155.273.347s-.122.346-.273.346m0 10.158h-11.813c-.15 0-.273-.156-.273-.347s.122-.346.273-.346h11.813c.15 0 .273.155.273.346s-.122.347-.273.347"/><path d="M1176.552 17.853a.274.274 0 0 1-.274-.275v-1.723h-1.568a.273.273 0 0 1-.255-.173l-1.322-3.353-1.258 3.348a.273.273 0 0 1-.256.178h-1.642v1.723a.274.274 0 1 1-.547 0V15.58c0-.152.123-.275.274-.275h1.726l1.44-3.835a.274.274 0 0 1 .254-.177c.127.02.215.068.257.173l1.514 3.84h1.656c.15 0 .273.123.273.275v1.998a.274.274 0 0 1-.273.275"/><path d="M1169.704 17.907h-2.482c-.15 0-.274-.155-.274-.346s.123-.347.274-.347h2.482c.15 0 .273.155.273.347s-.122.346-.273.346m9.33 0h-2.48c-.15 0-.274-.155-.274-.346s.123-.347.274-.347h2.48c.15 0 .274.155.274.347s-.123.346-.274.346m-4.993 3.668a.27.27 0 0 1-.176-.065l-.82-.7a.273.273 0 0 1-.098-.21v-1.427c0-.152.123-.276.274-.276s.273.124.273.276v1.3l.724.616c.115.1.13.272.032.388a.273.273 0 0 1-.209.097m-4.92-8.9c-.2 0-.344-.124-.344-.276V8.593c0-.152.154-.275.344-.275s.345.123.345.275v3.816c0 .152-.155.276-.345.276m8.173.043c-.2 0-.345-.123-.345-.275v-3.86c0-.152.155-.275.345-.275s.344.123.344.275v3.86c0 .152-.154.275-.344.275m-7.21 20.437h1.774V29.86a.89.89 0 0 0-.887-.892.89.89 0 0 0-.887.892v3.304zm2.048.55h-2.322a.274.274 0 0 1-.273-.275v-3.58a1.44 1.44 0 0 1 1.434-1.442 1.44 1.44 0 0 1 1.434 1.442v3.58a.274.274 0 0 1-.273.275zm2.18-.55h1.774V29.86a.89.89 0 0 0-.887-.892.89.89 0 0 0-.887.892v3.304zm2.047.55h-2.32a.274.274 0 0 1-.274-.275v-3.58a1.44 1.44 0 0 1 1.434-1.442 1.44 1.44 0 0 1 1.434 1.442v3.58a.274.274 0 0 1-.274.275z"/><path d="M1169.322 34.306h7.43v-.87h-7.43v.87zm7.704.55h-7.977a.274.274 0 0 1-.274-.275v-1.42c0-.153.123-.276.274-.276h7.977c.15 0 .273.123.273.275v1.42a.274.274 0 0 1-.273.276zm-4.62 4.778h.684V38.01a.343.343 0 0 0-.342-.343.343.343 0 0 0-.342.343v1.623zm.958.55h-1.23a.274.274 0 0 1-.274-.275V38.01c0-.493.4-.894.9-.894s.888.4.888.894v1.898a.274.274 0 0 1-.273.275z"/><path d="M1173.637 39.634h.684V38.01a.343.343 0 0 0-.342-.343.343.343 0 0 0-.342.343v1.623zm.958.55h-1.23a.274.274 0 0 1-.274-.275V38.01c0-.493.4-.894.89-.894s.9.4.9.894v1.898a.274.274 0 0 1-.274.275zm-22.9-11.072h-6.952c-.15 0-.273-.155-.273-.347s.122-.346.273-.346h6.952c.15 0 .273.155.273.346s-.122.347-.273.347m-7.96 6.012h-.814c-.15 0-.273-.155-.273-.347s.122-.346.273-.346h.814c.15 0 .274.155.274.346s-.123.347-.274.347m9.693 0h-.9c-.15 0-.273-.155-.273-.347s.123-.346.274-.346h.89c.15 0 .273.155.273.346s-.122.347-.273.347m47.674-6.012h-6.95c-.152 0-.274-.155-.274-.347s.122-.346.273-.346h6.95c.15 0 .274.155.274.346s-.123.347-.274.347m-7.96 6.012h-.813c-.152 0-.274-.155-.274-.347s.122-.346.274-.346h.813c.15 0 .274.155.274.346s-.123.347-.274.347m9.694-.124h-.9c-.15 0-.273-.156-.273-.347s.123-.347.274-.347h.89c.15 0 .273.156.273.347s-.122.346-.273.346"/></g></g><g fill="#000" opacity=".8"><g stroke="#f5f6fa"><path stroke-width=".5" d="M455 37.262a2.5 2.5 0 0 1-1.369-4.11l-6.13-6.133-1.255 1.255a3.5 3.5 0 0 1-.227 4.506l-.046.044-1.03.855a.5.5 0 0 1-.66-.02l-4.137-3.858a.498.498 0 0 1-.066-.656l.78-1.1.04-.048a3.5 3.5 0 0 1 4.632-.435l1.614-1.614a.502.502 0 0 1 .708 0l6.587 6.59a2.5 2.5 0 0 1 3.325 3.325l4.087 4.087a.498.498 0 1 1-.706.707l-3.986-3.985c-.322.288-.72.493-1.162.582v17.55h5.505a.499.499 0 1 1 0 1H429.5a.5.5 0 1 1 0-1h2.5v-3.5h-1.497A1.502 1.502 0 0 1 429 49.816V42.8a2.503 2.503 0 0 1 2.505-2.498H432v-.5a3.5 3.5 0 0 1 3.503-3.5h7.994a3.503 3.503 0 0 1 3.504 3.5l-.002.5h.497A2.5 2.5 0 0 1 450 42.811v7.006c0 .828-.673 1.495-1.503 1.495H447v3.5h8v-17.55zm-22 14.05v3.5h13v-3.5h-13zm12.164-22.747a2.5 2.5 0 0 0-3.511.1l-.505.704 3.494 3.26.667-.553a2.498 2.498 0 0 0-.145-3.51zm10.336 7.747a1.5 1.5 0 1 0-.001-3 1.5 1.5 0 0 0 .001 3zm-21.5 10.5V42.8a1.5 1.5 0 0 0-1.506-1.498h-1c-.83 0-1.504.672-1.504 1.498v7.006c0 .27.225.497.503.497h17.994a.5.5 0 0 0 .502-.497V42.8c0-.83-.67-1.498-1.504-1.498h-1c-.83 0-1.506.673-1.506 1.498v4.003a.5.5 0 0 1-.5.499h-10a.499.499 0 0 1-.5-.499zm9.496-9.5h-7.993a2.5 2.5 0 0 0-2.504 2.499v.55a2.5 2.5 0 0 1 2 2.447v3.504h9V42.81a2.5 2.5 0 0 1 2-2.447v-.55a2.502 2.502 0 0 0-2.503-2.499z" opacity=".4"/><path d="M238.018 43.85h-3.156V41.6a1.36 1.36 0 0 0-1.362-1.362h-1.363l.001-9.216 4.34-4.34a.444.444 0 0 0 .108-.5.433.433 0 0 0-.43-.288h-8.965a.466.466 0 0 0-.43.287.442.442 0 0 0 .108.502l4.34 4.34v9.215h-7.534c-.36 0-.646.143-.897.358-.25-.215-.538-.358-.896-.358h-9.86a1.36 1.36 0 0 0-1.363 1.363v2.26h-3.12a.476.476 0 0 0-.466.466v8.964c0 .25.215.467.466.467h.467v1.363c0 .25.215.466.466.466h1.793c.25 0 .466-.215.466-.466v-1.363h24.206v1.363c0 .25.215.466.466.466h1.793c.25 0 .466-.215.466-.466v-1.363h.467c.25 0 .466-.216.466-.467v-8.964c-.1-.288-.325-.467-.575-.467zm-9.682-17.033h6.814l-3.407 3.37-3.407-3.37zm-5.1 14.774c0-.25.215-.467.466-.467h9.825c.25 0 .466.216.466.467v6.742h-10.757V41.6zm-11.655 2.7v-2.7a.48.48 0 0 1 .467-.467h9.86a.48.48 0 0 1 .467.467v6.742h-10.758l-.002-4.053h-.035zm-3.586.466h2.7v3.586h-2.7v-3.586zm1.793 9.86h-.896v-.896h.896v.897zm26.895 0h-.897v-.896h.897v.897zm.896-1.792h-29.584V49.23h29.584v3.586zm0-4.482h-2.69v-3.586h2.7v3.586zm-28.26-12.56h7.173c.25 0 .466-.216.466-.467V26.35a.476.476 0 0 0-.466-.466h-7.172a.476.476 0 0 0-.467.466v8.965c.037.25.216.467.467.467zm.467-8.965h6.276v8.068h-6.276v-8.068zm4.903.896h-3.586a.476.476 0 0 0-.467.467v5.38c0 .25.216.466.467.466s.466-.215.466-.466V28.6h3.156c.25 0 .467-.215.467-.466s-.252-.43-.503-.43z" opacity=".3" stroke-width=".4"/><path stroke-width=".2" d="M38.64 31a.38.38 0 0 0-.307.379v7.576a.38.38 0 0 0 .378.379h7.197v3.03H30.38a.285.285 0 0 0-.071 0 .379.379 0 0 0-.308.379v9.847a.38.38 0 0 0 .379.379h1.136v2.65a.38.38 0 0 0 .379.379h3.788a.38.38 0 0 0 .379-.379v-2.65h20.455v2.65a.38.38 0 0 0 .378.379h3.788a.38.38 0 0 0 .38-.379v-2.65h1.135a.379.379 0 0 0 .38-.38v-9.846a.38.38 0 0 0-.38-.38h-15.53v-3.03h7.197a.38.38 0 0 0 .379-.378V31.38a.38.38 0 0 0-.379-.379H38.712a.568.568 0 0 0-.07 0zm.45.758h14.394v6.818H39.09V31.76zm-8.333 11.36h7.954v4.167h-7.954V43.12zm8.712 0h13.636v9.09H39.47v-9.09zm14.394 0h7.955v4.167h-7.955V43.12zm-9.162 4.167a.382.382 0 0 0-.343.414.38.38 0 0 0 .414.343h3.03a.379.379 0 1 0 0-.757h-3.03a.568.568 0 0 0-.071 0zm-13.944.757h7.954v4.167h-7.954v-4.167zm23.106 0h7.955v4.167h-7.955v-4.167zm-21.59 4.926h3.03v2.272h-3.03V52.97zm25 0h3.03v2.272h-3.03V52.97z" opacity=".3"/></g><g opacity=".3"><path stroke="#f5f6fa" stroke-width=".5" d="M1102.37 42.513h-8.8a2.17 2.17 0 0 0-2.171 2.172v4.97c0 .97.63 1.772 1.542 2.058v1.656a.39.39 0 0 0 .4.4h.915a.39.39 0 0 0 .4-.4v-1.542h6.684v1.542a.39.39 0 0 0 .4.4h.915a.39.39 0 0 0 .4-.4v-1.656c.857-.286 1.542-1.085 1.542-2.058v-4.97c-.056-1.2-1.027-2.172-2.228-2.172zm1.03 7.143c0 .57-.458 1.03-1.03 1.03h-8.8a1.025 1.025 0 0 1-1.029-1.029v-1.942h10.858v1.942zm0-3.027h-10.858v-1.942c0-.57.458-1.03 1.03-1.03h8.798c.57 0 1.03.458 1.03 1.03v1.94z"/><path d="M1097 44.57h1.942v1.143H1097zm-.058 4.06h1.942v1.143h-1.942z"/><path stroke="#f5f6fa" stroke-width=".5" d="M1087.915 46.058h-.4l-.001-9.143c0-2.4-1.942-4.4-4.4-4.4H1057c-2.4 0-4.4 1.942-4.4 4.4v9.2h-.4a2.744 2.744 0 0 0-2.743 2.744v1.428c0 .572.458 1.03 1.03 1.03h1.828v3.714c0 .227.172.457.458.457h.8a.452.452 0 0 0 .457-.457v-3.715h32v3.715c0 .227.172.457.458.457h.857a.452.452 0 0 0 .458-.457v-3.715h1.77c.57 0 1.03-.457 1.03-1.03V48.8c0-1.485-1.2-2.74-2.685-2.74zm-34.172-9.143A3.255 3.255 0 0 1 1057 33.66h26.114a3.255 3.255 0 0 1 3.257 3.256v9.202h-1.543v-1.773a2.623 2.623 0 0 0-2.63-2.63h-.915V39.43a2.536 2.536 0 0 0-2.513-2.513h-4.344a2.536 2.536 0 0 0-2.513 2.513v2.286h-3.714V39.43a2.536 2.536 0 0 0-2.514-2.513h-4.344a2.536 2.536 0 0 0-2.513 2.513v2.286h-.915a2.623 2.623 0 0 0-2.63 2.63v1.772l-1.54-.003v-9.2zm13.315 4.742h-7.087V39.37a1.39 1.39 0 0 1 1.37-1.37h4.345a1.39 1.39 0 0 1 1.37 1.37l.002 2.286zM1082.2 42.8c.8 0 1.487.686 1.487 1.487v1.772h-27.26v-1.772c0-.8.686-1.487 1.488-1.487h24.285zm-2.058-1.142h-7.084V39.37a1.39 1.39 0 0 1 1.37-1.37h4.344a1.39 1.39 0 0 1 1.37 1.37v2.286zm9.315 8.515H1050.6v-1.37c0-.858.685-1.6 1.6-1.6h35.715c.857 0 1.6.685 1.6 1.6l-.002 1.37h-.056z"/></g><path d="M1241.794 42.778h-3.35V55h-.814V42.778H1236v-2.445h7.333V33h8.964v7.333h7.333v2.445H1258V55h-.814V42.778h-3.344l-1.545 1.405v6.744h-.815v-6.004l-3.665 3.332-3.668-3.336v6.008h-.816V44.18l-1.54-1.4zm-.897-.815h-4.082v-.814H1240l.896.814zm.316-.814h13.2l-6.606 6.004-6.604-6.004zm14.422 0h3.18v.814h-4.077l.897-.814zm-11.486-.816h7.333v-6.518h-7.333v6.518zm1.63-5.703h.815v4.89h-.815v-4.89zm1.63 0h.814v4.89h-.814v-4.89zm1.63 0h.814v4.89h-.814v-4.89z" opacity=".3"/><path d="M647.888 41.314a.37.37 0 0 0 .37-.37V39.5a.37.37 0 1 0-.74 0v1.433a.37.37 0 0 0 .37.37zm4.04-2.174a.37.37 0 0 0-.37.371v1.432a.37.37 0 1 0 .74 0V39.5a.37.37 0 0 0-.37-.37zM641.5 55.666h17.02a.37.37 0 0 0 .37-.37v-2.064c.518-.2.886-.716.886-1.3V27.45c0-.78-.635-1.414-1.414-1.414h-16.705c-.78 0-1.414.635-1.414 1.414v24.473a1.39 1.39 0 0 0 .886 1.3v2.063a.37.37 0 0 0 .37.37zm16.65-.74h-16.28v-1.588h16.28v1.587zm-7.77-28.15h7.984c.37 0 .672.302.672.673v24.473a.673.673 0 0 1-.672.673h-7.984v-25.82zm-9.395 25.146V27.45c0-.372.302-.673.673-.673h7.982v25.82h-7.982a.674.674 0 0 1-.673-.674z" opacity=".3"/><path d="M878.7 37.173h-24.076a.308.308 0 0 0-.309.309v15.794a.31.31 0 0 0 .31.308h1.022v1.26a.97.97 0 0 0 .967.967h3.617a.968.968 0 0 0 .967-.967v-1.26h10.658v1.26a.97.97 0 0 0 .968.967h3.617a.968.968 0 0 0 .967-.967v-1.26h1.295a.308.308 0 0 0 .308-.31v-15.79a.31.31 0 0 0-.31-.309zm-18.12 17.673a.35.35 0 0 1-.349.35h-3.618a.35.35 0 0 1-.35-.35v-1.262h4.316v1.262zm16.2 0a.35.35 0 0 1-.35.35h-3.617a.35.35 0 0 1-.35-.35v-1.262h4.316v1.262zm1.602-1.88h-23.46V37.8h23.46v15.176zm-21.512-1.762h17.762a.308.308 0 0 0 .308-.308V39.628a.308.308 0 0 0-.308-.309H856.86a.308.308 0 0 0-.309.309v11.268a.31.31 0 0 0 .31.308zm17.453-2.67h-.936a.41.41 0 0 1-.41-.41v-5.72a.41.41 0 0 1 .41-.41h.936v6.54zm-17.144-8.596h17.144v1.438h-.936a1.03 1.03 0 0 0-1.027 1.027v5.72a1.03 1.03 0 0 0 1.027 1.028h.936v1.438l-17.144-.001v-10.65zm19.484 1.634a1.13 1.13 0 0 0 1.126-1.126 1.13 1.13 0 0 0-1.126-1.126 1.13 1.13 0 0 0-1.126 1.126 1.13 1.13 0 0 0 1.126 1.126zm0-1.634a.51.51 0 1 1-.002 1.019.51.51 0 0 1 .002-1.02zm0 4.863a1.13 1.13 0 0 0 1.126-1.126 1.13 1.13 0 0 0-1.126-1.126 1.13 1.13 0 0 0-1.126 1.126 1.13 1.13 0 0 0 1.126 1.126zm0-1.633a.51.51 0 1 1-.002 1.019.51.51 0 0 1 .002-1.02zM863.2 31.415a.309.309 0 1 0-.617 0c0 .234-.1.338-.23.497-.163.184-.386.438-.386.904s.223.72.386.906c.14.158.23.262.23.496s-.1.34-.23.497c-.163.186-.386.438-.386.906 0 .17.137.308.3.308a.308.308 0 0 0 .308-.308c0-.234.092-.34.232-.497.162-.186.385-.438.385-.906s-.223-.72-.385-.904c-.14-.158-.232-.263-.232-.497s.092-.338.232-.496c.162-.187.385-.44.385-.906zm3.55 0a.308.308 0 1 0-.617 0c0 .234-.092.338-.232.497-.163.184-.386.438-.386.904s.223.72.386.906c.14.158.232.262.232.496s-.092.34-.232.497c-.163.186-.386.438-.386.906a.31.31 0 0 0 .31.308.308.308 0 0 0 .309-.308c0-.234.1-.34.23-.497.163-.186.386-.438.386-.906s-.223-.72-.386-.904c-.14-.158-.23-.263-.23-.497s.1-.338.23-.496c.163-.187.386-.44.386-.906zm3.55 0a.309.309 0 1 0-.618 0c0 .234-.092.338-.232.497-.162.184-.385.438-.385.904s.223.72.385.906c.14.158.232.262.232.496s-.092.34-.232.497c-.162.186-.385.438-.385.906a.308.308 0 1 0 .617 0c0-.234.092-.34.23-.497.163-.186.386-.438.386-.906s-.223-.72-.386-.904c-.14-.158-.23-.263-.23-.497s.092-.338.23-.496c.163-.187.386-.44.386-.906z" opacity=".3"/><g opacity=".3"><path d="M847.133 36.917h-16.45a.358.358 0 0 1-.362-.361v-8.73a1.76 1.76 0 0 1 1.75-1.751h13.673c.962 0 1.75.788 1.75 1.75v8.732c0 .202-.16.36-.36.36zm-16.09-.723h15.727v-8.37a1.03 1.03 0 0 0-1.027-1.027h-13.672a1.03 1.03 0 0 0-1.028 1.027v8.37z"/><path d="M847.125 53.772h-16.442a.358.358 0 0 1-.362-.362V36.555c0-.202.16-.36.362-.36h16.442c.203 0 .362.16.362.36V53.4a.36.36 0 0 1-.362.362zm-16.08-.724h15.718v-16.13h-15.72v16.13z"/><path d="M846.07 55.718h-14.33a1.42 1.42 0 0 1-1.419-1.418v-.875a.36.36 0 0 1 .362-.362h16.443a.36.36 0 0 1 .361.362v.875a1.42 1.42 0 0 1-1.417 1.418zm-15.025-1.932v.514c0 .4.304.694.694.694h14.33a.704.704 0 0 0 .695-.694v-.514h-15.72zm2.545-9.288h-.202a.905.905 0 0 1-.904-.904v-4.767c0-.5.405-.904.904-.904h.203c.5 0 .904.405.904.904v4.767c0 .5-.405.904-.904.904zm-.202-5.852a.189.189 0 0 0-.18.18v4.768c0 .094.086.18.18.18h.203c.094 0 .18-.086.18-.18v-4.767a.18.18 0 0 0-.18-.181h-.203zm.202-3.465h-.202a.905.905 0 0 1-.904-.904V30.9c0-.5.405-.904.904-.904h.203c.5 0 .904.405.904.904v3.386c0 .5-.405.904-.904.904zm-.202-4.47a.189.189 0 0 0-.18.18v3.386c0 .094.086.18.18.18h.203c.094 0 .18-.086.18-.18v-3.385a.189.189 0 0 0-.18-.181h-.203z"/></g></g><path stroke="#e4e4e4" stroke-linecap="square" stroke-width=".7" d="M0 55.5h1280"/></g><defs ><path id="B" d="M1147.188 45.88h.685v-1.623a.343.343 0 0 0-.343-.344.343.343 0 0 0-.342.344v1.623zm.958.55h-1.23a.274.274 0 0 1-.274-.275v-1.898c0-.493.4-.894.9-.894s.89.4.89.894v1.898a.274.274 0 0 1-.274.275z"/><path id="C" d="M1196.633 45.88h.684v-1.623a.343.343 0 0 0-.342-.344.343.343 0 0 0-.342.344v1.623zm.957.55h-1.23a.274.274 0 0 1-.274-.275v-1.898c0-.493.4-.894.89-.894s.89.4.89.894v1.898a.274.274 0 0 1-.274.275z"/><path id="D" d="M1158.894 44.486h.684v-1.623a.343.343 0 0 0-.342-.344.343.343 0 0 0-.342.344v1.623zm.958.55h-1.23a.274.274 0 0 1-.274-.275v-1.898c0-.493.4-.894.9-.894s.888.4.888.894v1.898a.274.274 0 0 1-.273.275z"/><path id="E" d="M1180.777 54.548h2.325v-4.153c0-.645-.52-1.17-1.162-1.17a1.17 1.17 0 0 0-1.163 1.17v4.153zm2.6.55h-2.872a.274.274 0 0 1-.274-.275v-4.428c0-.948.767-1.72 1.7-1.72a1.72 1.72 0 0 1 1.71 1.72v4.428a.274.274 0 0 1-.274.275z"/></defs></svg>