<svg xmlns="http://www.w3.org/2000/svg" width="81" height="24" viewBox="0 0 81 24">
    <defs>
        <linearGradient id="a" x1="61.024%" x2="26.115%" y1="4.84%" y2="71.968%">
            <stop offset="0%" stop-color="#00A0FF"/>
            <stop offset=".7%" stop-color="#00A1FF"/>
            <stop offset="26%" stop-color="#00BEFF"/>
            <stop offset="51.2%" stop-color="#00D2FF"/>
            <stop offset="76%" stop-color="#00DFFF"/>
            <stop offset="100%" stop-color="#00E3FF"/>
        </linearGradient>
        <linearGradient id="b" x1="107.724%" x2="-130.67%" y1="49.424%" y2="49.424%">
            <stop offset="0%" stop-color="#FFE000"/>
            <stop offset="40.9%" stop-color="#FFBD00"/>
            <stop offset="77.5%" stop-color="#FFA500"/>
            <stop offset="100%" stop-color="#FF9C00"/>
        </linearGradient>
        <linearGradient id="c" x1="86.389%" x2="-49.886%" y1="30.829%" y2="136.002%">
            <stop offset="0%" stop-color="#FF3A44"/>
            <stop offset="100%" stop-color="#C31162"/>
        </linearGradient>
        <linearGradient id="d" x1="-18.581%" x2="42.275%" y1="-11.683%" y2="35.066%">
            <stop offset="0%" stop-color="#32A071"/>
            <stop offset="6.9%" stop-color="#2DA771"/>
            <stop offset="47.6%" stop-color="#15CF74"/>
            <stop offset="80.1%" stop-color="#06E775"/>
            <stop offset="100%" stop-color="#00F076"/>
        </linearGradient>
    </defs>
    <g fill="none" fill-rule="nonzero">
        <path fill="#333" d="M77.973 23.992H2.999a2.97 2.97 0 0 1-2.999-3V3A2.97 2.97 0 0 1 2.999 0h74.974a2.97 2.97 0 0 1 2.999 2.999v17.994a2.97 2.97 0 0 1-3 2.999z"/>
        <path fill="#FFF" d="M40.88 13.086c-1.439 0-2.579 1.08-2.579 2.58a2.56 2.56 0 0 0 2.58 2.578c1.439 0 2.579-1.08 2.579-2.579 0-1.56-1.14-2.579-2.58-2.579zm0 4.079c-.78 0-1.439-.66-1.439-1.56s.66-1.56 1.44-1.56c.78 0 1.439.6 1.439 1.56 0 .9-.66 1.56-1.44 1.56zm-5.578-4.079c-1.44 0-2.579 1.08-2.579 2.58a2.56 2.56 0 0 0 2.58 2.578c1.439 0 2.579-1.08 2.579-2.579 0-1.56-1.14-2.579-2.58-2.579zm0 4.079c-.78 0-1.44-.66-1.44-1.56s.66-1.56 1.44-1.56c.78 0 1.44.6 1.44 1.56 0 .9-.66 1.56-1.44 1.56zm-6.657-3.3v1.08h2.579c-.06.6-.3 1.08-.6 1.38-.36.36-.96.78-1.98.78-1.619 0-2.818-1.26-2.818-2.88 0-1.619 1.26-2.878 2.819-2.878.84 0 1.5.36 1.98.78l.779-.78c-.66-.6-1.5-1.08-2.7-1.08-2.158 0-4.018 1.8-4.018 3.959 0 2.16 1.86 3.958 4.019 3.958 1.2 0 2.039-.36 2.759-1.14.72-.719.96-1.739.96-2.518 0-.24 0-.48-.06-.66h-3.72zm27.23.84c-.24-.6-.84-1.619-2.159-1.619-1.32 0-2.4 1.02-2.4 2.58 0 1.439 1.08 2.578 2.52 2.578 1.14 0 1.86-.72 2.1-1.14l-.84-.599c-.3.42-.66.72-1.26.72s-.96-.24-1.26-.78l3.42-1.44-.12-.3zm-3.479.84c0-.96.78-1.5 1.32-1.5.42 0 .84.24.96.54l-2.28.96zm-2.819 2.46h1.14v-7.498h-1.14v7.497zm-1.799-4.379c-.3-.3-.78-.6-1.38-.6-1.259 0-2.459 1.14-2.459 2.58 0 1.439 1.14 2.518 2.46 2.518.6 0 1.08-.3 1.32-.6h.06v.36c0 .96-.54 1.5-1.38 1.5-.66 0-1.14-.48-1.26-.9l-.96.42c.3.66 1.02 1.5 2.28 1.5 1.32 0 2.399-.78 2.399-2.64v-4.558h-1.08v.42zm-1.32 3.539c-.78 0-1.439-.66-1.439-1.56s.66-1.56 1.44-1.56c.78 0 1.38.66 1.38 1.56s-.6 1.56-1.38 1.56zm14.635-6.658h-2.699v7.497h1.14v-2.819h1.56c1.259 0 2.459-.9 2.459-2.339 0-1.44-1.2-2.339-2.46-2.339zm.06 3.599h-1.619v-2.58h1.62c.84 0 1.319.72 1.319 1.26-.06.66-.54 1.32-1.32 1.32zm6.898-1.08c-.84 0-1.68.36-1.98 1.14l1.02.42c.24-.42.6-.54 1.02-.54.6 0 1.14.36 1.2.96v.06c-.18-.12-.66-.3-1.14-.3-1.08 0-2.16.6-2.16 1.679 0 1.02.9 1.68 1.86 1.68.78 0 1.14-.36 1.44-.72h.06v.6h1.08v-2.88c-.12-1.319-1.14-2.099-2.4-2.099zm-.12 4.139c-.36 0-.9-.18-.9-.66 0-.6.66-.78 1.2-.78.48 0 .72.12 1.02.24-.12.72-.72 1.2-1.32 1.2zm6.298-3.959l-1.26 3.239h-.06l-1.32-3.239H70.39l1.98 4.559-1.14 2.519h1.14l3.058-7.078h-1.2zm-10.077 4.798h1.14v-7.497h-1.14v7.497z"/>
        <path fill="url(#a)" d="M.24.235c-.18.18-.24.48-.24.84V14.33c0 .36.12.66.3.84l.06.06 7.437-7.438v-.12L.24.236z" transform="translate(5.998 4.263)"/>
        <path fill="url(#b)" d="M10.196 10.312l-2.459-2.46v-.18l2.46-2.459.06.06 2.938 1.68c.84.48.84 1.26 0 1.74l-2.999 1.619z" transform="translate(5.998 4.263)"/>
        <path fill="url(#c)" d="M10.256 10.252l-2.519-2.52L.24 15.23c.3.3.72.3 1.26.06l8.756-5.038" transform="translate(5.998 4.263)"/>
        <path fill="url(#d)" d="M10.256 5.213L1.5.235c-.54-.3-.96-.24-1.26.06l7.498 7.437 2.52-2.519z" transform="translate(5.998 4.263)"/>
        <path fill="#000" d="M16.194 14.455l-8.697 4.918c-.48.3-.9.24-1.2 0l-.06.06.06.06c.3.24.72.3 1.2 0l8.697-5.038z" opacity=".2"/>
        <path fill="#000" d="M6.238 19.373c-.18-.18-.24-.48-.24-.84v.06c0 .36.12.66.3.84v-.06h-.06zm12.955-6.597l-2.999 1.679.06.06 2.94-1.68c.42-.24.6-.54.6-.84 0 .3-.24.54-.6.78z" opacity=".12"/>
        <path fill="#FFF" d="M7.497 4.558l11.696 6.658c.36.24.6.48.6.78 0-.3-.18-.6-.6-.84L7.497 4.498c-.84-.48-1.5-.12-1.5.84v.06c0-.9.66-1.32 1.5-.84z" opacity=".25"/>
        <path fill="#FFF" d="M26.614 7.957c.563 0 1.017-.183 1.363-.55.307-.307.461-.72.461-1.238 0-.09-.009-.183-.026-.28h-1.798v.446h1.347c-.038.363-.18.648-.425.855-.245.208-.552.311-.922.311-.404 0-.746-.14-1.026-.42-.277-.283-.415-.637-.415-1.062 0-.425.138-.779.415-1.062.28-.28.622-.42 1.026-.42.207 0 .402.039.583.117.181.077.329.185.443.323l.342-.342a1.544 1.544 0 0 0-.596-.409 2.06 2.06 0 0 0-.772-.145c-.539 0-.995.187-1.368.56-.373.373-.56.832-.56 1.378 0 .546.187 1.005.56 1.379.373.373.829.56 1.368.56zm4.57-.083v-.456h-1.689V6.242h1.524v-.446h-1.524V4.62h1.69v-.456h-2.167v3.71h2.167zm1.908 0V4.62h1.036v-.456h-2.55v.456h1.037v3.254h.477zm3.15 0v-3.71h-.476v3.71h.476zm2.011 0V4.62h1.037v-.456h-2.55v.456h1.036v3.254h.477zm4.296.083c.536 0 .988-.186 1.358-.56.366-.37.55-.829.55-1.378 0-.546-.184-1.004-.55-1.373a1.819 1.819 0 0 0-1.358-.565c-.539 0-.991.187-1.358.56-.366.37-.549.829-.549 1.378 0 .55.183 1.009.55 1.379.366.373.818.56 1.357.56zm0-.456c-.404 0-.743-.14-1.016-.42-.269-.28-.404-.633-.404-1.062 0-.428.135-.782.404-1.062.273-.28.612-.42 1.016-.42s.741.14 1.01.42c.274.276.41.63.41 1.062 0 .432-.136.786-.41 1.062-.269.28-.606.42-1.01.42zm2.949.373v-2.31l-.02-.716h.02l1.886 3.026h.498v-3.71h-.477v2.171l.02.715h-.02L45.6 4.164h-.58v3.71h.477z"/>
    </g>
</svg>
