<svg xmlns="http://www.w3.org/2000/svg" width="100" height="19" viewBox="0 0 100 19">
    <g fill="none" fill-rule="nonzero">
        <path fill="#346AA0" d="M7.292 8.01c.123.186.308.342.523.467.031.031.093.031.123.062h.031c.031 0 .031 0 .062.031.246.094.554.156.892.156 2.277 0 7.23-.717 7.23-1.62 0-.81-4.153-1.496-6.584-1.59C8.4 3.335 5.908-.156 5.2.187c-.8.405.77 5.205 1.785 7.262.092.249.184.436.307.56M8.892 10.066c-.246 0-.43.032-.615.094a1.388 1.388 0 0 0-.646.312c-.031 0-.031.03-.062.03-.03.032-.061.032-.092.063l-.03.031c-.216.187-.4.437-.524.748-.985 2.088-2.43 6.919-1.63 7.293.738.343 3.107-3.179 4.245-5.36 2.431-.156 6.647-.904 6.616-1.746-.03-.872-4.985-1.496-7.262-1.465M5.877 9.973c.092-.25.123-.53.092-.842-.03-.311-.154-.623-.369-.935C4.37 6.264 1.077 2.462.338 2.961c-.676.436 1.016 4.332 2.277 6.482-1.169 2.182-2.707 6.202-2.03 6.607.769.468 3.877-3.49 5.046-5.485.092-.218.184-.405.246-.592"/>
        <path fill="#3D3D3D" d="M23.877 8.757h4.77v1.154h-4.77v5.08h-1.385V3.864h7.17v1.154h-5.785zM39.723 10.565c0 1.776-.708 4.488-4.338 4.488-3.662 0-4.37-2.712-4.37-4.488v-6.7H32.4v6.7c0 .717.154 3.335 2.985 3.335 2.83 0 2.953-2.618 2.953-3.335v-6.7h1.385v6.7zM46.646 11.469l2.37 3.522h-1.6l-2.185-3.304h-2.77v3.304h-1.384V3.864h4.215c2.123 0 3.816 1.683 3.816 3.927 0 1.714-1.016 3.117-2.462 3.678zm-1.323-.935c1.23 0 2.4-1.122 2.4-2.743 0-1.59-1.17-2.773-2.4-2.773h-2.861v5.516h2.861zM57.6 14.99h-7.23V3.865h1.384v9.973H57.6zM66.123 14.99h-7.2V3.865h7.2v1.154h-5.785v3.584h4.708v1.184h-4.708v4.051h5.785zM75.046 14.99l-6.184-9.35v9.35h-1.385V3.865h1.785l6.215 9.35v-9.35h1.385v11.127zM83.723 15.053c-3.077 0-5.538-2.493-5.538-5.641s2.461-5.641 5.538-5.641c1.539 0 2.892.78 3.785 1.839l-.8.935c-.923-.998-1.846-1.62-3.17-1.62-2 0-3.969 1.994-3.969 4.487 0 2.493 1.939 4.488 3.97 4.488 1.323 0 2.276-.499 3.169-1.652l.8.966c-.862 1.216-2.246 1.839-3.785 1.839M99.938 9.412c0 3.179-2.492 5.64-5.507 5.64-3.046 0-5.539-2.461-5.539-5.64s2.493-5.641 5.539-5.641c2.984.031 5.507 2.462 5.507 5.64m-9.692 0c0 2.307 1.723 4.489 4.154 4.489 2.43 0 4.154-2.182 4.154-4.488 0-2.306-1.754-4.488-4.154-4.488-2.4.031-4.154 2.213-4.154 4.488"/>
    </g>
</svg>
