<?xml version="1.0" encoding="UTF-8"?>
<svg width="21px" height="21px" viewBox="0 0 21 21" version="1.1" xmlns="http://www.w3.org/2000/svg" xmlns:xlink="http://www.w3.org/1999/xlink">
    <!-- Generator: Sketch 61.2 (89653) - https://sketch.com -->
    <title>ic_anubhav</title>
    <desc>Created with Sketch.</desc>
    <defs>
        <linearGradient x1="70.515%" y1="50%" x2="12.124%" y2="80.826%" id="linearGradient-1">
            <stop stop-color="#346AA0" offset="0%"></stop>
            <stop stop-color="#7FADDB" offset="100%"></stop>
        </linearGradient>
    </defs>
    <g id="Page-1" stroke="none" stroke-width="1" fill="none" fill-rule="evenodd">
        <g id="ic_offer" fill="url(#linearGradient-1)" fill-rule="nonzero">
            <path d="M8.807212,0.517966 C9.515882,-0.172655 10.645843,-0.172655 11.354512,0.517966 L12.636562,1.758016 C12.773706,1.891289 12.964943,1.953353 13.154212,1.926016 L14.921362,1.676116 C15.900182,1.53373 16.814098,2.197507 16.981462,3.172366 L17.289112,4.929016 C17.322712,5.118016 17.439262,5.279716 17.609362,5.370016 L19.185412,6.204766 C20.061514,6.664407 20.411012,7.738997 19.972912,8.626066 L19.188562,10.228366 C19.104082,10.399825 19.104082,10.600808 19.188562,10.772266 L19.972912,12.374566 C20.408662,13.267066 20.063212,14.329666 19.185412,14.795866 L17.609362,15.631666 C17.440041,15.720578 17.321689,15.883166 17.289112,16.071616 L16.981462,17.828266 C16.814098,18.803126 15.900182,19.466903 14.921362,19.324516 L13.154212,19.074616 C12.964943,19.047279 12.773706,19.109344 12.636562,19.242616 L11.354512,20.481616 C10.645393,21.17113 9.516332,21.17113 8.807212,20.481616 L7.525162,19.242616 C7.388103,19.109203 7.196795,19.047115 7.007512,19.074616 L5.241412,19.324516 C4.262449,19.467485 3.348167,18.803442 3.181312,17.828266 L2.872612,16.071616 C2.840338,15.882776 2.721945,15.719744 2.552362,15.630616 L0.976312,14.795866 C0.100211,14.336225 -0.249287,13.261636 0.188812,12.374566 L0.973162,10.772266 C1.057643,10.600808 1.057643,10.399825 0.973162,10.228366 L0.188812,8.626066 C-0.248595,7.739259 0.100808,6.665429 0.976312,6.205816 L2.552362,5.368966 C2.721683,5.280055 2.840035,5.117467 2.872612,4.929016 L3.180262,3.172366 C3.347626,2.197507 4.261543,1.53373 5.240362,1.676116 L7.007512,1.926016 C7.196781,1.953353 7.388018,1.891289 7.525162,1.758016 L8.807212,0.517966 Z M12.504262,11.509366 C11.278085,11.510523 10.284198,12.50394 10.282462,13.730116 C10.282462,14.954416 11.279962,15.950866 12.504262,15.950866 C13.730439,15.94971 14.724326,14.956293 14.726062,13.730116 C14.726062,12.505816 13.728562,11.509366 12.504262,11.509366 L12.504262,11.509366 Z M14.507662,6.075616 C14.271063,5.839018 13.887461,5.839018 13.650862,6.075616 L5.654062,14.069266 C5.492128,14.220416 5.425594,14.447892 5.480555,14.66248 C5.535515,14.877068 5.703207,15.044554 5.917862,15.099251 C6.132517,15.153948 6.359912,15.087135 6.510862,14.925016 L14.507662,6.931366 C14.743561,6.694888 14.743561,6.312095 14.507662,6.075616 Z M12.504262,12.721066 C13.060762,12.721066 13.514362,13.173616 13.514362,13.730116 C13.489735,14.270084 13.044792,14.695198 12.504262,14.695198 C11.963733,14.695198 11.518789,14.270084 11.494162,13.730116 C11.494162,13.173616 11.947762,12.721066 12.504262,12.721066 Z M7.657462,5.049766 C6.431285,5.050923 5.437398,6.04434 5.435662,7.270516 C5.435662,8.494816 6.433162,9.491266 7.657462,9.491266 C8.883639,9.49011 9.877526,8.496693 9.879262,7.270516 C9.879262,6.046216 8.881762,5.049766 7.657462,5.049766 Z M7.657462,6.261466 C8.213962,6.261466 8.667562,6.714016 8.667562,7.270516 C8.642935,7.810484 8.197992,8.235598 7.657462,8.235598 C7.116933,8.235598 6.671989,7.810484 6.647362,7.270516 C6.647362,6.714016 7.100962,6.261466 7.657462,6.261466 L7.657462,6.261466 Z" id="ic_anubhav"></path>
        </g>
    </g>
</svg>