<svg xmlns="http://www.w3.org/2000/svg" width="22" height="22" fill-rule="evenodd" stroke-width=".4"><path fill="#3769a0" stroke="#fff" d="M11 1.196c-5.392 0-9.804 4.412-9.804 9.804S5.608 20.804 11 20.804s9.804-4.412 9.804-9.804S16.392 1.196 11 1.196z"/><path fill="#fff" stroke="#3769a0" d="M16.698 13.573l-1.777-1.777c-.184-.184-.368-.245-.613-.184-.92.306-1.102 1.165-1.715.797-1.348-.797-2.268-1.716-2.88-2.82-.245-.5.306-.857.368-.98.367-.368.673-.98.306-1.4L8.55 5.425c-.368-.368-.797-.123-1.226.123C5.24 6.7 4.75 9.53 6.22 11.5a25.09 25.09 0 0 0 4.411 4.412c1.84 1.41 4.657 1.04 5.882-1.103.307-.43.552-.86.184-1.227zm-5.27 1.35c-1.716-1.287-2.94-2.574-4.228-4.167-1.04-1.286-.735-3.248.736-4.105L9.1 7.814c-.06.06-1.286 1.042-.55 2.4s1.838 2.45 3.37 3.308c1.347.797 2.328-.5 2.4-.5l1.164 1.165c-.797 1.47-2.758 1.716-4.045.735z"/></svg>