<?xml version="1.0" encoding="UTF-8"?>
<svg width="96px" height="36px" viewBox="0 0 96 36" version="1.1" xmlns="http://www.w3.org/2000/svg" xmlns:xlink="http://www.w3.org/1999/xlink">
    <!-- Generator: Sketch 52.6 (67491) - http://www.bohemiancoding.com/sketch -->
    <title>ic_studio combo</title>
    <desc>Created with Sketch.</desc>
    <g id="ICONS" stroke="none" stroke-width="1" fill="none" fill-rule="evenodd">
        <g id="PLP-3.0-icons" transform="translate(-514.000000, -1500.000000)">
            <g id="ic_studio-combo" transform="translate(514.000000, 1500.000000)">
                <g id="Group-9" transform="translate(2.000000, 0.000000)">
                    <path d="M3.0417867,12.8719423 L21,2 L38.9582133,12.8719423 C39.6049215,13.2634609 40,13.9644807 40,14.720469 L40,31.8391111 C40,33.0325371 39.0325371,34 37.8391111,34 L4.16088889,34 C2.96746291,34 2,33.0325371 2,31.8391111 L2,14.720469 C2,13.9644807 2.39507847,13.2634609 3.0417867,12.8719423 Z" id="Rectangle" fill="#346AA0"></path>
                    <rect id="Rectangle" fill="#FFFFFF" x="13.6559374" y="14.0775401" width="13.6559374" height="14.0775401" rx="2.34"></rect>
                    <path d="M21.9008857,23.2027582 C21.9008857,22.8643776 21.7832368,22.6007084 21.5479354,22.4117426 C21.3126341,22.2227768 20.8992439,22.0272221 20.3077525,21.8250727 C19.716261,21.6229232 19.2327132,21.4273686 18.8570946,21.2384028 C17.6352546,20.6275599 17.0243438,19.7882128 17.0243438,18.7203364 C17.0243438,18.1885954 17.1765318,17.7194839 17.4809124,17.3129877 C17.7852931,16.9064916 18.2159528,16.5900885 18.7729046,16.363769 C19.3298564,16.1374495 19.9558781,16.0242914 20.6509885,16.0242914 C21.328829,16.0242914 21.9365018,16.1473371 22.4740251,16.3934321 C23.0115483,16.639527 23.4292559,16.9899874 23.7271604,17.4448237 C24.0250648,17.8996599 24.1740148,18.419308 24.1740148,19.0037836 L21.9073618,19.0037836 C21.9073618,18.6126684 21.7897129,18.3094488 21.5544116,18.0941157 C21.3191103,17.8787826 21.0007027,17.7711176 20.5991793,17.7711176 C20.1933384,17.7711176 19.8727721,17.8623032 19.6374708,18.0446772 C19.4021695,18.2270511 19.2845206,18.4588603 19.2845206,18.7401118 C19.2845206,18.9862067 19.4140423,19.209227 19.6730896,19.4091791 C19.932137,19.6091313 20.3876217,19.8156722 21.0395576,20.028808 C21.6914934,20.2419439 22.2268499,20.4715558 22.6456431,20.7176508 C23.6645627,21.3153101 24.1740148,22.1392764 24.1740148,23.1895746 C24.1740148,24.0289343 23.8631626,24.6881074 23.241449,25.1671137 C22.6197354,25.64612 21.7670506,25.8856196 20.6833692,25.8856196 C19.9191796,25.8856196 19.2273177,25.7460946 18.6077627,25.4670405 C17.9882078,25.1879863 17.5219296,24.8056659 17.2089141,24.3200678 C16.8958985,23.8344697 16.7393931,23.2752712 16.7393931,22.6424555 L19.0189984,22.6424555 C19.0189984,23.1566182 19.1495994,23.5356428 19.4108055,23.7795405 C19.6720116,24.0234382 20.0961953,24.1453852 20.6833692,24.1453852 C21.0589879,24.1453852 21.3558085,24.0629886 21.5738401,23.8981928 C21.7918716,23.7333971 21.9008857,23.5015879 21.9008857,23.2027582 Z" id="S" fill="#346AA0"></path>
                </g>
                <g id="Group-5" transform="translate(54.000000, 14.000000)" fill-rule="nonzero" stroke="#346AA0" stroke-linecap="round" stroke-width="2">
                    <path d="M5,0.368842922 L5,10.3688429" id="Line-5"></path>
                    <path d="M5,0.368842922 L5,10.3688429" id="Line-5" transform="translate(5.000000, 5.368843) rotate(-90.000000) translate(-5.000000, -5.368843) "></path>
                </g>
                <g id="Group-26" transform="translate(75.000000, 2.000000)" fill="#346AA0">
                    <rect id="Rectangle-7" x="-1.59872116e-14" y="0" width="17.2983409" height="32.9781513"></rect>
                    <path d="M0.511721177,12.3402715 L16.781814,12.3402715" id="Line-8" stroke="#FFFFFF" stroke-width="1.04" stroke-linecap="square"></path>
                    <path d="M2.88305681,16.3118293 L2.88305681,17.9004525" id="Line-11" stroke="#FFFFFF" stroke-width="1.04" stroke-linecap="round"></path>
                </g>
            </g>
        </g>
    </g>
</svg>