<svg xmlns="http://www.w3.org/2000/svg" xmlns:xlink="http://www.w3.org/1999/xlink" width="48" height="48" viewBox="0 0 48 48">
    <defs>
        <linearGradient id="w202p2hoac" x1="19.411%" x2="74.759%" y1="64.918%" y2="50%">
            <stop offset="0%" stop-color="#6E96C2"/>
            <stop offset="100%" stop-color="#42699C"/>
        </linearGradient>
        <linearGradient id="dpi3r35e1d" x1="32.195%" x2="64.412%" y1="64.918%" y2="50%">
            <stop offset="0%" stop-color="#6E96C2"/>
            <stop offset="100%" stop-color="#42699C"/>
        </linearGradient>
        <linearGradient id="1r5ptz79ze" x1="34.983%" x2="62.155%" y1="64.918%" y2="50%">
            <stop offset="0%" stop-color="#6E96C2"/>
            <stop offset="100%" stop-color="#42699C"/>
        </linearGradient>
        <path id="s15oy5knoa" d="M0 0H48V48H0z"/>
    </defs>
    <g fill="none" fill-rule="evenodd">
        <g>
            <g>
                <g transform="translate(-348 -543) translate(333 543) translate(15)">
                    <mask id="fotc6nan2b" fill="#fff">
                        <use xlink:href="#s15oy5knoa"/>
                    </mask>
                    <use fill="#FFF" xlink:href="#s15oy5knoa"/>
                    <g mask="url(#fotc6nan2b)">
                        <g>
                            <path fill="url(#w202p2hoac)" d="M31.847 4.939c.267.268.523.544.77.826-.082.303-.168.605-.257.903-.05.173.046.356.218.408.133.04.27-.009.35-.111.024-.031.043-.068.055-.11.047-.16.094-.32.14-.482.092.117.184.235.273.354-.059.208-.118.416-.179.622-.051.174.046.356.218.408.133.04.27-.01.35-.111.024-.032.043-.069.055-.109l.038-.133c.193.284.375.572.548.866l-.009.032c-.052.174.046.356.217.408.017.005.032.008.048.01 3.142 5.714 2.838 13.001-1.353 18.52-4.27 5.622-11.35 7.797-17.736 6.058.362-.21.721-.426 1.074-.646.033-.02.062-.047.085-.075.082-.106.095-.256.02-.376-.093-.154-.293-.201-.446-.106-.521.323-1.055.64-1.59.94 0 .002-.002.002-.003.003-.324-.107-.645-.224-.964-.352.028-.007.057-.016.084-.031.544-.306 1.086-.627 1.614-.956.033-.02.063-.047.085-.076.082-.105.095-.255.022-.375-.095-.154-.295-.202-.448-.107-.52.324-1.055.641-1.589.94-.157.089-.213.289-.126.447l.011.014c-.84-.359-1.658-.793-2.449-1.3 5.133-2.775 9.696-6.622 13.301-11.232 3.481-4.451 6.068-9.61 7.573-15.071zm-17.13 25.628c-.095-.154-.295-.202-.448-.107-.52.325-1.055.642-1.588.941-.158.088-.214.288-.126.446.088.158.285.215.442.127.543-.305 1.085-.627 1.614-.956.033-.02.062-.046.084-.076.082-.105.095-.254.022-.375zm4.739-.214c-.106-.146-.31-.178-.454-.072-.493.364-1.002.721-1.513 1.062-.148.1-.19.303-.09.454.099.15.3.192.45.092.518-.346 1.035-.71 1.536-1.078.024-.018.046-.04.064-.063.088-.111.094-.274.007-.395zm-1.2-.953c-.105-.146-.309-.178-.454-.071-.493.363-1.003.72-1.512 1.06-.148.101-.19.304-.09.455.099.15.3.192.45.091.518-.346 1.034-.708 1.535-1.077.025-.018.046-.04.064-.062.088-.113.095-.275.008-.396zM6.64 6.643C11.643.053 20.508-1.8 27.59 1.833c-.069.25-.14.5-.214.748-.05.174.047.356.22.408.13.04.267-.009.347-.111.025-.032.045-.068.056-.11.062-.205.12-.411.178-.619.251.142.5.29.744.445-.1.379-.207.757-.316 1.13-.052.173.046.355.218.407.131.04.268-.008.348-.111.025-.031.045-.068.057-.109.091-.31.18-.624.266-.938.153.107.306.216.457.33-.106.398-.216.794-.333 1.187-.05.173.047.356.22.407.13.04.267-.009.347-.11.025-.032.044-.07.056-.11.092-.311.182-.627.268-.943.276.224.543.455.802.693-1.467 5.501-4.048 10.703-7.547 15.177-3.623 4.632-8.226 8.48-13.405 11.224-.2-.14-.397-.284-.592-.434-7.37-5.689-8.77-16.322-3.128-23.75zM17.4 28.72c-.106-.146-.31-.178-.454-.071-.494.362-1.004.72-1.513 1.06-.148.101-.19.305-.09.455.099.15.3.192.45.092.518-.347 1.034-.71 1.535-1.078.025-.018.046-.04.065-.062.088-.112.094-.274.007-.396zm4.59-.417c-.117-.137-.322-.154-.458-.036-.465.4-.945.796-1.427 1.176-.142.111-.167.317-.056.46.11.142.315.167.456.056.49-.386.977-.787 1.448-1.194.018-.014.032-.03.045-.046.094-.121.094-.295-.009-.416zm-10.014.087c-.096-.154-.296-.202-.448-.107-.52.324-1.056.64-1.59.94-.156.089-.213.288-.125.447.088.158.285.214.442.126.543-.305 1.085-.627 1.614-.955.033-.022.061-.047.084-.077.083-.104.095-.254.023-.374zm8.814-1.04c-.117-.138-.322-.154-.458-.036-.465.4-.945.796-1.427 1.176-.141.111-.166.317-.056.46.11.143.316.167.456.056.49-.386.977-.787 1.449-1.194.017-.015.031-.03.044-.047.094-.12.094-.295-.008-.416zm-9.83.273c-.093-.153-.293-.201-.446-.106-.521.324-1.055.64-1.589.941-.157.088-.213.287-.126.445.088.158.286.215.442.127.543-.305 1.086-.627 1.614-.956.033-.02.061-.046.085-.075.082-.106.095-.255.02-.376zm8.973-.954c-.116-.138-.321-.153-.459-.037-.464.401-.944.797-1.425 1.177-.142.112-.167.317-.056.46.11.142.315.168.456.056.49-.386.977-.787 1.448-1.195.017-.014.031-.03.045-.046.093-.12.093-.294-.009-.415zm-5.276-.127c-.105-.147-.308-.179-.453-.072-.494.363-1.003.72-1.512 1.061-.15.1-.191.304-.092.455.1.15.302.191.45.09.518-.346 1.035-.709 1.536-1.076.026-.019.047-.04.065-.063.088-.113.095-.274.006-.395zm-4.924-.061c-.094-.154-.294-.202-.447-.107-.521.324-1.055.641-1.59.94-.156.089-.212.289-.125.447.088.158.286.215.442.127.542-.306 1.085-.627 1.614-.956.033-.02.061-.046.085-.077.082-.104.095-.254.02-.374zm14.625-.42c-.126-.128-.332-.128-.46 0-.432.435-.88.867-1.332 1.283-.133.123-.141.33-.02.463.12.133.327.142.46.02.458-.423.913-.86 1.352-1.302.01-.01.018-.02.026-.03.1-.128.092-.315-.026-.434zm-10.714-.285c-.105-.147-.309-.179-.454-.073-.493.364-1.003.721-1.512 1.063-.15.1-.19.303-.09.453.098.15.3.192.45.092.517-.346 1.034-.709 1.535-1.078.024-.018.046-.038.064-.061.088-.113.094-.275.007-.396zm9.515-.668c-.127-.127-.332-.128-.46 0-.432.435-.88.867-1.333 1.282-.132.123-.141.33-.02.464.122.133.327.142.46.02.458-.422.914-.86 1.352-1.302.01-.01.02-.02.026-.03.101-.129.093-.315-.025-.434zm-.857-.68c-.127-.129-.332-.129-.46-.001-.432.435-.88.866-1.332 1.283-.133.122-.142.33-.02.463.12.134.326.143.46.02.458-.422.913-.861 1.351-1.302.01-.01.02-.02.026-.03.101-.128.093-.315-.025-.434zm-9.886.205c-.106-.146-.31-.178-.454-.071-.494.363-1.003.72-1.512 1.06-.15.1-.19.304-.09.455.098.15.3.192.45.091.516-.345 1.033-.708 1.535-1.077.024-.018.045-.04.064-.062.088-.113.094-.275.007-.396zm4.775-.143c-.116-.137-.321-.153-.458-.036-.465.401-.945.797-1.426 1.176-.142.112-.167.318-.056.46.11.142.315.168.456.057.49-.386.977-.788 1.449-1.195.017-.014.031-.03.044-.046.094-.12.094-.295-.009-.416zm9.357-.848c-.135-.118-.34-.102-.457.036-.399.468-.813.933-1.23 1.382-.125.133-.117.34.014.464.131.123.337.117.46-.016.424-.456.845-.928 1.249-1.404l.009-.01c.107-.138.088-.337-.045-.452zm-10.37.083c-.117-.138-.322-.154-.459-.037-.464.401-.944.796-1.426 1.176-.142.112-.167.317-.056.46.11.142.314.168.456.057.49-.386.977-.788 1.449-1.195.016-.014.03-.03.044-.047.094-.12.094-.294-.009-.414zm9.171-1.036c-.136-.118-.341-.102-.457.035-.4.469-.814.934-1.232 1.383-.122.131-.115.34.016.463.13.124.337.118.46-.015.423-.456.844-.93 1.249-1.404l.008-.01c.108-.138.089-.337-.044-.452zm-10.4-.107c-.116-.137-.321-.154-.458-.036-.464.4-.944.796-1.426 1.175-.142.112-.167.318-.056.46.11.144.314.168.456.057.49-.386.977-.788 1.449-1.194.016-.015.03-.03.044-.047.094-.12.093-.295-.009-.415zm4.611-.333c-.127-.129-.332-.129-.459-.001-.433.435-.88.867-1.333 1.283-.133.123-.141.33-.02.463.12.134.327.143.46.021.458-.422.913-.86 1.351-1.303l.027-.03c.101-.128.092-.315-.026-.433zm4.932-.24c-.136-.12-.341-.103-.457.035-.4.467-.813.932-1.232 1.382-.122.131-.115.34.016.463.131.124.337.117.46-.015.423-.456.844-.929 1.249-1.404l.008-.01c.108-.138.089-.337-.044-.452zm-5.946-.527c-.127-.128-.332-.128-.46 0-.432.436-.88.868-1.332 1.284-.132.121-.141.329-.02.462.12.134.327.143.46.02.458-.421.913-.86 1.352-1.302.01-.01.017-.02.026-.03.1-.128.092-.315-.026-.434zm10.002-.422c-.145-.107-.347-.078-.455.071-.36.497-.737.993-1.12 1.474l-.001.003c-.112.141-.089.345.05.458.14.114.345.09.458-.051l.222-.28c.312-.399.62-.808.916-1.217.107-.146.075-.35-.07-.458zm-11.23-.72c-.127-.128-.332-.128-.46 0-.432.435-.88.868-1.332 1.282-.132.122-.141.33-.02.464.12.133.327.142.46.02.457-.422.913-.86 1.352-1.303l.026-.03c.1-.128.091-.314-.026-.433zm10.03-.233c-.144-.107-.347-.079-.454.07-.36.499-.737.994-1.12 1.475l-.003.002c-.11.141-.087.346.052.459.14.113.345.09.457-.051l.222-.28c.311-.4.62-.808.916-1.217.107-.146.075-.35-.07-.458zm-5.597-.278c-.136-.118-.342-.101-.458.036-.399.468-.813.934-1.23 1.382-.125.133-.117.34.014.463.132.124.338.117.46-.014.424-.457.844-.93 1.25-1.405.001-.004.005-.007.007-.01.108-.138.09-.337-.043-.452zm4.74-.403c-.144-.107-.347-.079-.454.071-.36.497-.737.993-1.12 1.474-.113.144-.09.349.05.46.14.114.344.091.456-.05l.223-.28c.31-.399.618-.808.916-1.217.106-.146.075-.35-.07-.458zm-5.754-.363c-.136-.117-.341-.102-.459.036-.398.467-.812.933-1.23 1.383-.123.132-.115.339.015.463.131.123.337.117.46-.016.424-.456.845-.928 1.249-1.404l.009-.01c.108-.138.089-.337-.044-.452zm9.607-.732c-.153-.095-.352-.049-.447.106-.323.524-.661 1.048-1.005 1.557-.101.15-.064.353.085.455.142.098.334.066.438-.068l.013-.018.348-.521c.23-.35.455-.705.673-1.06.095-.154.048-.356-.105-.451zm-10.835-.41c-.136-.118-.341-.102-.46.035-.397.469-.81.934-1.229 1.383-.123.133-.116.34.015.464.13.123.337.116.46-.016.424-.456.845-.928 1.249-1.404l.009-.01c.108-.138.089-.338-.044-.452zm9.635-.543c-.152-.096-.352-.049-.446.106-.323.523-.661 1.048-1.005 1.556-.102.15-.064.354.084.456.142.098.334.066.439-.068l.012-.018c.351-.517.694-1.049 1.021-1.581.095-.153.048-.356-.105-.451zm-5.394-.13c-.145-.107-.348-.08-.455.07-.361.498-.737.994-1.12 1.475l-.002.001c-.11.142-.087.346.052.46.14.112.344.09.456-.051l.223-.281c.31-.398.62-.808.916-1.217.106-.146.075-.35-.07-.457zm4.538-.55c-.153-.096-.353-.05-.447.104-.323.525-.661 1.048-1.005 1.558-.102.149-.064.353.084.455.142.097.334.067.44-.068l.012-.019c.35-.516.693-1.048 1.02-1.58.096-.154.048-.355-.104-.45zm-5.552-.217c-.144-.107-.347-.078-.454.071-.361.498-.738.994-1.12 1.474l-.003.003c-.11.14-.088.346.052.458.14.113.344.09.457-.05l.222-.281c.31-.399.62-.808.916-1.216.107-.147.075-.352-.07-.459zm9.19-1.01c-.16-.083-.355-.022-.438.14-.28.547-.578 1.095-.883 1.63-.09.157-.036.357.119.447.142.082.32.045.417-.08.01-.013.02-.026.028-.04.309-.544.61-1.1.896-1.656.083-.16.02-.358-.14-.441zm-10.418-.132c-.145-.107-.347-.079-.455.07-.361.499-.738.994-1.12 1.475 0 0 0 .002-.002.002-.11.141-.088.346.051.459.141.113.345.09.458-.051l.22-.28c.313-.4.621-.808.918-1.217.106-.146.074-.35-.07-.458zm9.218-.821c-.16-.083-.355-.022-.438.14-.281.547-.577 1.095-.883 1.63-.089.156-.035.357.12.447.141.082.319.045.417-.08.01-.013.019-.026.026-.041.31-.543.613-1.1.897-1.655.083-.16.021-.358-.139-.441zm-5.18 0c-.153-.095-.352-.048-.447.107-.323.523-.661 1.047-1.005 1.556-.102.149-.064.353.085.455.142.098.333.067.438-.067.005-.006.01-.013.013-.02.35-.516.693-1.048 1.021-1.58.095-.153.047-.355-.105-.45zm4.324-.682c-.16-.083-.356-.02-.44.14-.28.547-.576 1.096-.881 1.63-.09.158-.036.358.119.448.141.082.32.045.417-.08.01-.014.02-.027.027-.04.31-.544.612-1.101.897-1.656.082-.16.02-.358-.14-.442zm-5.338-.084c-.153-.095-.352-.048-.448.106-.322.525-.66 1.048-1.004 1.557-.102.15-.063.353.084.455.143.098.335.067.44-.068l.012-.018c.35-.517.694-1.048 1.021-1.58.095-.155.048-.356-.105-.452zm8.752-1.256c-.165-.07-.356.008-.426.174-.239.567-.492 1.137-.755 1.694-.077.163-.009.359.153.436.14.067.303.025.395-.092.015-.02.028-.04.038-.063.267-.565.526-1.144.768-1.72.07-.166-.008-.359-.173-.429zm-9.98.114c-.153-.095-.352-.049-.448.106-.322.524-.66 1.048-1.004 1.556-.102.15-.064.353.084.456.143.097.334.066.438-.068l.014-.018c.35-.517.693-1.049 1.02-1.581.095-.153.049-.356-.104-.451zm3.824-.952c-.16-.084-.356-.021-.438.14-.281.547-.578 1.096-.883 1.63-.09.157-.037.357.12.448.141.081.318.044.417-.081.01-.012.018-.026.026-.04.31-.544.612-1.1.897-1.656.082-.16.02-.358-.14-.44zm4.956-.115c-.164-.07-.356.007-.425.174-.239.567-.492 1.137-.756 1.694-.077.163-.009.358.154.436.14.067.303.025.395-.092.014-.02.027-.04.038-.063.267-.565.525-1.143.767-1.72.07-.166-.007-.359-.173-.429zm-.856-.68c-.165-.071-.357.006-.426.173-.239.567-.492 1.137-.755 1.694-.078.163-.01.358.153.436.14.068.303.025.395-.093.015-.018.027-.04.038-.062.267-.565.525-1.144.767-1.72.07-.166-.007-.359-.172-.429zm-5.114.029c-.16-.083-.355-.021-.438.14-.281.546-.578 1.095-.883 1.63-.09.157-.036.358.12.447.141.083.318.045.416-.08.01-.013.02-.026.027-.04.31-.543.613-1.1.897-1.656.083-.16.02-.358-.14-.441zm-1.228-1.142c-.16-.084-.356-.022-.438.14-.281.547-.578 1.095-.883 1.63-.09.156-.036.357.12.448.141.081.318.044.416-.082.01-.012.02-.025.027-.04.31-.543.611-1.1.897-1.655.083-.16.02-.358-.14-.441zm9.525-.326c-.17-.057-.354.036-.411.207-.195.584-.404 1.172-.624 1.747-.064.17.02.36.187.423.135.054.285.008.372-.102.019-.025.036-.054.047-.085.224-.585.437-1.181.633-1.775.057-.17-.034-.357-.204-.415zm-5.925-.741c-.165-.07-.356.008-.426.174-.238.567-.492 1.138-.755 1.693-.078.164-.009.36.153.437.14.068.303.025.396-.093.014-.018.027-.039.037-.061.268-.566.526-1.144.767-1.72.07-.167-.007-.36-.172-.43zm4.725-.212c-.17-.057-.355.035-.411.207-.194.583-.404 1.172-.624 1.747-.064.169.02.358.187.424.136.053.285.007.372-.103.02-.025.036-.054.047-.085.224-.585.437-1.181.634-1.775.057-.172-.034-.357-.205-.415zm-5.739-.554c-.165-.07-.356.008-.426.174-.238.567-.493 1.137-.755 1.694-.078.163-.009.359.153.436.14.068.303.026.395-.092.015-.019.028-.04.038-.063.267-.565.526-1.144.768-1.719.07-.167-.007-.359-.173-.43zm4.882-.126c-.17-.058-.354.034-.411.206-.194.584-.403 1.172-.624 1.748-.064.168.02.358.188.423.135.052.284.007.37-.103.02-.025.037-.054.049-.086.223-.584.437-1.18.633-1.774.057-.172-.034-.357-.205-.414zm-6.11-1.016c-.166-.07-.356.007-.426.174-.238.567-.493 1.137-.756 1.694-.077.163-.008.358.154.436.14.067.303.025.395-.092.015-.02.028-.04.038-.063.267-.565.526-1.143.767-1.72.07-.166-.006-.36-.172-.429zm3.368-1.163c-.17-.058-.353.035-.411.207-.194.583-.403 1.172-.624 1.746-.064.17.02.359.188.424.135.053.285.007.37-.103.021-.025.037-.053.05-.085.222-.584.436-1.182.632-1.774.058-.172-.034-.357-.205-.415zM28.6 4.845c-.17-.058-.355.035-.411.206-.195.585-.404 1.172-.624 1.748-.064.168.019.358.187.423.136.053.285.007.372-.103.019-.025.036-.054.047-.085.223-.584.437-1.181.634-1.774.057-.172-.034-.358-.205-.415zm-1.228-1.143c-.17-.057-.355.035-.411.207-.195.583-.405 1.172-.624 1.747-.064.169.019.36.186.423.136.054.286.008.373-.102.019-.025.036-.054.047-.085.223-.585.436-1.181.634-1.775.057-.172-.035-.357-.205-.415z" transform="translate(4 10)"/>
                            <g>
                                <g>
                                    <g>
                                        <path fill="url(#dpi3r35e1d)" d="M11.145 16.64H.033l.406-2.613L6.27 8.612l.8-.799c1.253-1.26 1.827-2.45 1.722-3.569-.083-.87-.533-1.317-1.35-1.34-.579-.014-1.069.22-1.47.704-.402.484-.651 1.117-.749 1.897l-3.681.023c.06-1.028.372-1.968.934-2.82C3.04 1.856 3.792 1.19 4.734.709 5.675.23 6.679-.007 7.745 0c1.599.03 2.837.464 3.715 1.3.878.837 1.261 1.969 1.149 3.395-.068.84-.344 1.659-.828 2.454-.484.796-1.188 1.632-2.11 2.51l-1.712 1.576-2.544 2.455 6.192.022-.462 2.927z" transform="translate(4 10) translate(0 1.059) translate(2.118 1.059)"/>
                                        <path fill="#346AA0" fill-rule="nonzero" d="M7.747-.2C6.649-.208 5.613.036 4.643.53c-.973.497-1.752 1.186-2.334 2.067-.582.882-.905 1.856-.967 2.92l-.013.213 4.072-.025.021-.175c.093-.744.329-1.34.704-1.794.363-.437.795-.644 1.31-.63.714.019 1.083.385 1.156 1.157.1 1.05-.45 2.186-1.665 3.409l-.798.799L.25 13.928-.2 16.84h11.517l.525-3.327-5.931-.022 2.188-2.111 1.708-1.573c.938-.892 1.652-1.742 2.146-2.554.5-.821.786-1.67.856-2.542.118-1.484-.285-2.675-1.21-3.556-.903-.86-2.164-1.31-3.773-1.354L7.747-.2zm-.003.4H7.74c1.552.03 2.742.446 3.581 1.246.832.793 1.195 1.865 1.087 3.233-.065.808-.331 1.596-.8 2.366-.473.779-1.166 1.602-2.077 2.47l-1.709 1.573-2.903 2.8 6.452.024-.398 2.527H.267l.36-2.312 5.78-5.368.804-.804c.15-.15.29-.3.42-.448l.086-.099c.941-1.102 1.37-2.163 1.275-3.182-.092-.97-.624-1.496-1.545-1.522-.642-.016-1.19.246-1.63.776l-.035.044c-.372.465-.614 1.052-.729 1.755l-.004.027-3.29.02v-.003c.086-.908.381-1.742.885-2.505.543-.822 1.27-1.465 2.18-1.93C5.739.422 6.71.193 7.745.201z" transform="translate(4 10) translate(0 1.059) translate(2.118 1.059)"/>
                                        <path fill="url(#1r5ptz79ze)" d="M20.555 6.44c.068-.526.105-.987.113-1.385 0-1.374-.436-2.083-1.306-2.128-1.336-.067-2.166 1.077-2.488 3.434l-.597 4.053c-.075.623-.112 1.084-.112 1.384-.038 1.389.394 2.11 1.294 2.162 1.358.067 2.196-1.107 2.51-3.524l.586-3.996zm-3.343 10.424c-.931-.022-1.744-.242-2.438-.658-.694-.417-1.229-1.028-1.604-1.835-.375-.807-.578-1.724-.608-2.753-.022-.555 0-1.114.068-1.677l.427-2.86c.346-2.304 1.085-4.065 2.218-5.285C16.408.576 17.853-.014 19.61.023c1.426.03 2.543.51 3.35 1.44.806.931 1.24 2.2 1.3 3.806.015.555-.011 1.114-.079 1.677l-.45 2.916c-.36 2.334-1.105 4.094-2.235 5.28s-2.557 1.76-4.283 1.722z" transform="translate(4 10) translate(0 1.059) translate(2.118 1.059)"/>
                                        <path fill="#346AA0" fill-rule="nonzero" d="M15.128 1.66C16.286.412 17.764-.2 19.546-.18l.068.001.067.002c1.448.045 2.596.548 3.43 1.508.838.968 1.287 2.28 1.348 3.931.015.526-.007 1.053-.066 1.59l-.015.124-.45 2.916c-.366 2.371-1.127 4.169-2.288 5.387-1.169 1.228-2.651 1.824-4.433 1.785-.965-.024-1.811-.252-2.536-.687-.73-.438-1.291-1.08-1.683-1.923-.376-.808-.584-1.722-.623-2.739l-.003-.09c-.021-.526-.003-1.055.055-1.59l.014-.125.428-2.86c.35-2.34 1.106-4.14 2.27-5.392zM19.605.222c-1.7-.036-3.09.532-4.183 1.71-1.088 1.17-1.807 2.865-2.152 5.086l-.014.092-.427 2.854c-.062.512-.085 1.022-.07 1.53l.003.117c.03 1.002.226 1.893.59 2.674.359.772.866 1.353 1.525 1.748.663.398 1.442.608 2.339.63 1.67.036 3.044-.516 4.134-1.66 1.084-1.138 1.808-2.83 2.168-5.082l.014-.09.45-2.91c.065-.553.091-1.102.077-1.646-.059-1.563-.477-2.788-1.252-3.681C22.051.723 21.01.267 19.67.225l-.065-.002zm-.233 2.504c.902.047 1.394.71 1.482 1.92l.006.087c.005.105.008.213.008.325-.007.383-.041.822-.103 1.321l-.012.089-.584 3.993c-.327 2.507-1.229 3.772-2.721 3.698-.798-.046-1.274-.55-1.43-1.462l-.012-.076c-.036-.247-.05-.522-.042-.824v-.03l.001-.064.002-.068.003-.072.004-.076.007-.12.01-.131.012-.14.014-.149.016-.158.012-.11.02-.175.014-.12.596-4.051c.335-2.447 1.23-3.681 2.697-3.607zm-2.29 3.593l-.01.07-.596 4.048-.021.18-.019.17-.017.16-.01.102-.012.145-.008.091-.006.087-.008.122-.004.076-.003.072-.003.1v.06l-.002.092c0 .075 0 .148.002.218l.003.083c.003.069.007.135.013.199l.008.075c.096.842.458 1.253 1.08 1.29 1.214.06 1.983-1.002 2.293-3.283l.01-.07.584-3.993.011-.086.02-.168.018-.163c.036-.349.057-.663.062-.942 0-.125-.003-.243-.01-.356l-.006-.082c-.006-.069-.013-.134-.021-.198l-.011-.074c-.123-.798-.48-1.187-1.067-1.218-1.145-.057-1.892.893-2.23 2.933l-.02.129-.02.131z" transform="translate(4 10) translate(0 1.059) translate(2.118 1.059)"/>
                                    </g>
                                    <g>
                                        <path fill="#FFF" d="M12.204 17.698H1.092l.406-2.612 5.831-5.415.8-.799c1.253-1.261 1.827-2.45 1.722-3.569-.083-.87-.533-1.317-1.351-1.34-.578-.014-1.068.22-1.47.704-.4.484-.65 1.117-.748 1.897l-3.681.023c.06-1.029.371-1.969.934-2.82.563-.852 1.316-1.518 2.257-1.999.942-.48 1.946-.716 3.012-.709 1.599.03 2.837.464 3.715 1.3.878.837 1.26 1.969 1.148 3.395-.067.84-.343 1.658-.827 2.454-.484.795-1.188 1.632-2.111 2.51l-1.711 1.576-2.544 2.454 6.191.023-.461 2.927z" transform="translate(4 10) translate(0 1.059)"/>
                                        <path fill="#135382" fill-rule="nonzero" d="M8.805.859c-1.097-.008-2.133.236-3.104.73-.972.497-1.75 1.186-2.333 2.067-.583.882-.905 1.856-.967 2.919l-.013.213 4.071-.025.022-.174c.093-.745.329-1.341.704-1.794.363-.438.795-.644 1.31-.631.714.02 1.083.386 1.156 1.158.099 1.05-.45 2.186-1.665 3.409l-.799.798-5.877 5.458-.452 2.912h11.517l.525-3.328-5.932-.021 2.19-2.111 1.707-1.573c.937-.892 1.652-1.742 2.146-2.554.5-.822.786-1.67.856-2.542.117-1.484-.286-2.675-1.21-3.556-.903-.86-2.164-1.31-3.774-1.354L8.805.86zm-.002.4H8.8c1.552.03 2.742.446 3.58 1.245.833.794 1.196 1.865 1.088 3.234-.065.808-.331 1.596-.8 2.366-.473.779-1.166 1.602-2.077 2.469l-1.709 1.574-2.903 2.8 6.452.024-.399 2.526H1.326l.359-2.311 5.78-5.368.805-.804c.15-.15.29-.3.42-.448l.085-.099c.942-1.102 1.371-2.163 1.276-3.183-.092-.969-.624-1.496-1.545-1.52-.642-.017-1.19.245-1.63.775l-.035.044c-.372.465-.614 1.052-.729 1.755l-.004.027-3.29.02v-.003c.086-.909.38-1.743.885-2.505.543-.823 1.27-1.465 2.18-1.93.914-.466 1.886-.695 2.92-.688z" transform="translate(4 10) translate(0 1.059)"/>
                                        <path fill="#FFF" d="M21.614 7.498c.068-.525.105-.986.113-1.384 0-1.374-.436-2.083-1.306-2.128-1.336-.068-2.166 1.077-2.488 3.434l-.597 4.052c-.075.624-.113 1.085-.113 1.385-.037 1.389.395 2.11 1.295 2.162 1.358.067 2.195-1.107 2.51-3.524l.586-3.997zM18.27 17.923c-.93-.022-1.743-.242-2.437-.658-.694-.417-1.229-1.029-1.604-1.835-.376-.807-.578-1.725-.608-2.753-.023-.555 0-1.114.067-1.677l.428-2.86c.345-2.304 1.085-4.066 2.218-5.285 1.133-1.22 2.578-1.81 4.334-1.774 1.426.03 2.543.511 3.35 1.441.806.931 1.24 2.2 1.3 3.806.015.555-.011 1.114-.079 1.677l-.45 2.916c-.36 2.334-1.106 4.094-2.235 5.28-1.13 1.186-2.557 1.76-4.284 1.722z" transform="translate(4 10) translate(0 1.059)"/>
                                        <path fill="#135382" fill-rule="nonzero" d="M16.187 2.718C17.345 1.472 18.822.858 20.605.88l.068.001.067.002c1.448.045 2.596.548 3.429 1.508.839.968 1.287 2.28 1.35 3.931.013.525-.009 1.053-.068 1.59l-.014.124-.45 2.915c-.366 2.372-1.127 4.17-2.288 5.388-1.169 1.227-2.651 1.823-4.433 1.785-.965-.024-1.811-.252-2.536-.687-.73-.438-1.291-1.08-1.683-1.923-.376-.808-.584-1.723-.623-2.739l-.003-.09c-.022-.526-.003-1.055.055-1.591l.014-.124.428-2.86c.35-2.34 1.105-4.14 2.27-5.392zm4.477-1.436c-1.7-.036-3.09.532-4.183 1.71-1.088 1.17-1.807 2.864-2.153 5.086l-.013.092-.427 2.854c-.062.512-.085 1.022-.07 1.53l.003.117c.03 1.002.226 1.893.59 2.674.358.771.866 1.352 1.525 1.748.663.398 1.442.608 2.339.63 1.67.036 3.044-.516 4.134-1.66 1.083-1.138 1.808-2.83 2.167-5.082l.015-.09.449-2.91c.066-.553.092-1.102.078-1.646-.06-1.563-.478-2.788-1.252-3.681-.756-.872-1.797-1.328-3.137-1.37l-.065-.002zm-.233 2.504c.902.046 1.394.71 1.482 1.919l.005.088c.006.105.009.213.009.325-.007.382-.042.822-.103 1.32l-.012.09-.585 3.993c-.327 2.507-1.228 3.772-2.72 3.698-.798-.047-1.274-.55-1.43-1.462l-.012-.077c-.036-.246-.05-.52-.042-.823v-.03l.001-.064.002-.068.003-.072.004-.076.007-.121.01-.13.011-.14.014-.15.017-.157.012-.11.02-.175.014-.12.596-4.051c.335-2.447 1.23-3.681 2.697-3.607zm-2.29 3.593l-.01.07-.596 4.047-.021.18-.019.17-.017.162-.01.101-.013.145-.007.09-.006.088-.008.122-.004.076-.003.072-.003.1v.06l-.002.092c-.001.075 0 .148.001.218l.003.083c.004.069.008.135.014.198l.008.076c.096.841.457 1.253 1.08 1.29 1.214.06 1.983-1.002 2.293-3.284l.01-.07.584-3.992.01-.086.021-.168.018-.164c.036-.348.057-.663.062-.941 0-.125-.004-.244-.01-.356l-.007-.083c-.005-.068-.012-.134-.02-.197l-.011-.075c-.123-.797-.48-1.186-1.067-1.217-1.145-.058-1.893.893-2.23 2.933l-.02.128-.02.132z" transform="translate(4 10) translate(0 1.059)"/>
                                    </g>
                                </g>
                            </g>
                            <g>
                                <g>
                                    <g>
                                        <path fill="url(#dpi3r35e1d)" d="M11.145 16.64H.033l.406-2.613L6.27 8.612l.8-.799c1.253-1.26 1.827-2.45 1.722-3.569-.083-.87-.533-1.317-1.35-1.34-.579-.014-1.069.22-1.47.704-.402.484-.651 1.117-.749 1.897l-3.681.023c.06-1.028.372-1.968.934-2.82C3.04 1.856 3.792 1.19 4.734.709 5.675.23 6.679-.007 7.745 0c1.599.03 2.837.464 3.715 1.3.878.837 1.261 1.969 1.149 3.395-.068.84-.344 1.659-.828 2.454-.484.796-1.188 1.632-2.11 2.51l-1.712 1.576-2.544 2.455 6.192.022-.462 2.927z" transform="translate(4 10) translate(12.706 16.941) translate(2.118 1.059)"/>
                                        <path fill="#346AA0" fill-rule="nonzero" d="M7.747-.2C6.649-.208 5.613.036 4.643.53c-.973.497-1.752 1.186-2.334 2.067-.582.882-.905 1.856-.967 2.92l-.013.213 4.072-.025.021-.175c.093-.744.329-1.34.704-1.794.363-.437.795-.644 1.31-.63.714.019 1.083.385 1.156 1.157.1 1.05-.45 2.186-1.665 3.409l-.798.799L.25 13.928-.2 16.84h11.517l.525-3.327-5.931-.022 2.188-2.111 1.708-1.573c.938-.892 1.652-1.742 2.146-2.554.5-.821.786-1.67.856-2.542.118-1.484-.285-2.675-1.21-3.556-.903-.86-2.164-1.31-3.773-1.354L7.747-.2zm-.003.4H7.74c1.552.03 2.742.446 3.581 1.246.832.793 1.195 1.865 1.087 3.233-.065.808-.331 1.596-.8 2.366-.473.779-1.166 1.602-2.077 2.47l-1.709 1.573-2.903 2.8 6.452.024-.398 2.527H.267l.36-2.312 5.78-5.368.804-.804c.15-.15.29-.3.42-.448l.086-.099c.941-1.102 1.37-2.163 1.275-3.182-.092-.97-.624-1.496-1.545-1.522-.642-.016-1.19.246-1.63.776l-.035.044c-.372.465-.614 1.052-.729 1.755l-.004.027-3.29.02v-.003c.086-.908.381-1.742.885-2.505.543-.822 1.27-1.465 2.18-1.93C5.739.422 6.71.193 7.745.201z" transform="translate(4 10) translate(12.706 16.941) translate(2.118 1.059)"/>
                                        <path fill="url(#1r5ptz79ze)" d="M20.555 6.44c.068-.526.105-.987.113-1.385 0-1.374-.436-2.083-1.306-2.128-1.336-.067-2.166 1.077-2.488 3.434l-.597 4.053c-.075.623-.112 1.084-.112 1.384-.038 1.389.394 2.11 1.294 2.162 1.358.067 2.196-1.107 2.51-3.524l.586-3.996zm-3.343 10.424c-.931-.022-1.744-.242-2.438-.658-.694-.417-1.229-1.028-1.604-1.835-.375-.807-.578-1.724-.608-2.753-.022-.555 0-1.114.068-1.677l.427-2.86c.346-2.304 1.085-4.065 2.218-5.285C16.408.576 17.853-.014 19.61.023c1.426.03 2.543.51 3.35 1.44.806.931 1.24 2.2 1.3 3.806.015.555-.011 1.114-.079 1.677l-.45 2.916c-.36 2.334-1.105 4.094-2.235 5.28s-2.557 1.76-4.283 1.722z" transform="translate(4 10) translate(12.706 16.941) translate(2.118 1.059)"/>
                                        <path fill="#346AA0" fill-rule="nonzero" d="M15.128 1.66C16.286.412 17.764-.2 19.546-.18l.068.001.067.002c1.448.045 2.596.548 3.43 1.508.838.968 1.287 2.28 1.348 3.931.015.526-.007 1.053-.066 1.59l-.015.124-.45 2.916c-.366 2.371-1.127 4.169-2.288 5.387-1.169 1.228-2.651 1.824-4.433 1.785-.965-.024-1.811-.252-2.536-.687-.73-.438-1.291-1.08-1.683-1.923-.376-.808-.584-1.722-.623-2.739l-.003-.09c-.021-.526-.003-1.055.055-1.59l.014-.125.428-2.86c.35-2.34 1.106-4.14 2.27-5.392zM19.605.222c-1.7-.036-3.09.532-4.183 1.71-1.088 1.17-1.807 2.865-2.152 5.086l-.014.092-.427 2.854c-.062.512-.085 1.022-.07 1.53l.003.117c.03 1.002.226 1.893.59 2.674.359.772.866 1.353 1.525 1.748.663.398 1.442.608 2.339.63 1.67.036 3.044-.516 4.134-1.66 1.084-1.138 1.808-2.83 2.168-5.082l.014-.09.45-2.91c.065-.553.091-1.102.077-1.646-.059-1.563-.477-2.788-1.252-3.681C22.051.723 21.01.267 19.67.225l-.065-.002zm-.233 2.504c.902.047 1.394.71 1.482 1.92l.006.087c.005.105.008.213.008.325-.007.383-.041.822-.103 1.321l-.012.089-.584 3.993c-.327 2.507-1.229 3.772-2.721 3.698-.798-.046-1.274-.55-1.43-1.462l-.012-.076c-.036-.247-.05-.522-.042-.824v-.03l.001-.064.002-.068.003-.072.004-.076.007-.12.01-.131.012-.14.014-.149.016-.158.012-.11.02-.175.014-.12.596-4.051c.335-2.447 1.23-3.681 2.697-3.607zm-2.29 3.593l-.01.07-.596 4.048-.021.18-.019.17-.017.16-.01.102-.012.145-.008.091-.006.087-.008.122-.004.076-.003.072-.003.1v.06l-.002.092c0 .075 0 .148.002.218l.003.083c.003.069.007.135.013.199l.008.075c.096.842.458 1.253 1.08 1.29 1.214.06 1.983-1.002 2.293-3.283l.01-.07.584-3.993.011-.086.02-.168.018-.163c.036-.349.057-.663.062-.942 0-.125-.003-.243-.01-.356l-.006-.082c-.006-.069-.013-.134-.021-.198l-.011-.074c-.123-.798-.48-1.187-1.067-1.218-1.145-.057-1.892.893-2.23 2.933l-.02.129-.02.131z" transform="translate(4 10) translate(12.706 16.941) translate(2.118 1.059)"/>
                                    </g>
                                    <g>
                                        <path fill="#FFF" d="M12.204 17.698H1.092l.406-2.612 5.831-5.415.8-.799c1.253-1.261 1.827-2.45 1.722-3.569-.083-.87-.533-1.317-1.351-1.34-.578-.014-1.068.22-1.47.704-.4.484-.65 1.117-.748 1.897l-3.681.023c.06-1.029.371-1.969.934-2.82.563-.852 1.316-1.518 2.257-1.999.942-.48 1.946-.716 3.012-.709 1.599.03 2.837.464 3.715 1.3.878.837 1.26 1.969 1.148 3.395-.067.84-.343 1.658-.827 2.454-.484.795-1.188 1.632-2.111 2.51l-1.711 1.576-2.544 2.454 6.191.023-.461 2.927z" transform="translate(4 10) translate(12.706 16.941)"/>
                                        <path fill="#135382" fill-rule="nonzero" d="M8.805.859c-1.097-.008-2.133.236-3.104.73-.972.497-1.75 1.186-2.333 2.067-.583.882-.905 1.856-.967 2.919l-.013.213 4.071-.025.022-.174c.093-.745.329-1.341.704-1.794.363-.438.795-.644 1.31-.631.714.02 1.083.386 1.156 1.158.099 1.05-.45 2.186-1.665 3.409l-.799.798-5.877 5.458-.452 2.912h11.517l.525-3.328-5.932-.021 2.19-2.111 1.707-1.573c.937-.892 1.652-1.742 2.146-2.554.5-.822.786-1.67.856-2.542.117-1.484-.286-2.675-1.21-3.556-.903-.86-2.164-1.31-3.774-1.354L8.805.86zm-.002.4H8.8c1.552.03 2.742.446 3.58 1.245.833.794 1.196 1.865 1.088 3.234-.065.808-.331 1.596-.8 2.366-.473.779-1.166 1.602-2.077 2.469l-1.709 1.574-2.903 2.8 6.452.024-.399 2.526H1.326l.359-2.311 5.78-5.368.805-.804c.15-.15.29-.3.42-.448l.085-.099c.942-1.102 1.371-2.163 1.276-3.183-.092-.969-.624-1.496-1.545-1.52-.642-.017-1.19.245-1.63.775l-.035.044c-.372.465-.614 1.052-.729 1.755l-.004.027-3.29.02v-.003c.086-.909.38-1.743.885-2.505.543-.823 1.27-1.465 2.18-1.93.914-.466 1.886-.695 2.92-.688z" transform="translate(4 10) translate(12.706 16.941)"/>
                                        <path fill="#FFF" d="M21.614 7.498c.068-.525.105-.986.113-1.384 0-1.374-.436-2.083-1.306-2.128-1.336-.068-2.166 1.077-2.488 3.434l-.597 4.052c-.075.624-.113 1.085-.113 1.385-.037 1.389.395 2.11 1.295 2.162 1.358.067 2.195-1.107 2.51-3.524l.586-3.997zM18.27 17.923c-.93-.022-1.743-.242-2.437-.658-.694-.417-1.229-1.029-1.604-1.835-.376-.807-.578-1.725-.608-2.753-.023-.555 0-1.114.067-1.677l.428-2.86c.345-2.304 1.085-4.066 2.218-5.285 1.133-1.22 2.578-1.81 4.334-1.774 1.426.03 2.543.511 3.35 1.441.806.931 1.24 2.2 1.3 3.806.015.555-.011 1.114-.079 1.677l-.45 2.916c-.36 2.334-1.106 4.094-2.235 5.28-1.13 1.186-2.557 1.76-4.284 1.722z" transform="translate(4 10) translate(12.706 16.941)"/>
                                        <path fill="#135382" fill-rule="nonzero" d="M16.187 2.718C17.345 1.472 18.822.858 20.605.88l.068.001.067.002c1.448.045 2.596.548 3.429 1.508.839.968 1.287 2.28 1.35 3.931.013.525-.009 1.053-.068 1.59l-.014.124-.45 2.915c-.366 2.372-1.127 4.17-2.288 5.388-1.169 1.227-2.651 1.823-4.433 1.785-.965-.024-1.811-.252-2.536-.687-.73-.438-1.291-1.08-1.683-1.923-.376-.808-.584-1.723-.623-2.739l-.003-.09c-.022-.526-.003-1.055.055-1.591l.014-.124.428-2.86c.35-2.34 1.105-4.14 2.27-5.392zm4.477-1.436c-1.7-.036-3.09.532-4.183 1.71-1.088 1.17-1.807 2.864-2.153 5.086l-.013.092-.427 2.854c-.062.512-.085 1.022-.07 1.53l.003.117c.03 1.002.226 1.893.59 2.674.358.771.866 1.352 1.525 1.748.663.398 1.442.608 2.339.63 1.67.036 3.044-.516 4.134-1.66 1.083-1.138 1.808-2.83 2.167-5.082l.015-.09.449-2.91c.066-.553.092-1.102.078-1.646-.06-1.563-.478-2.788-1.252-3.681-.756-.872-1.797-1.328-3.137-1.37l-.065-.002zm-.233 2.504c.902.046 1.394.71 1.482 1.919l.005.088c.006.105.009.213.009.325-.007.382-.042.822-.103 1.32l-.012.09-.585 3.993c-.327 2.507-1.228 3.772-2.72 3.698-.798-.047-1.274-.55-1.43-1.462l-.012-.077c-.036-.246-.05-.52-.042-.823v-.03l.001-.064.002-.068.003-.072.004-.076.007-.121.01-.13.011-.14.014-.15.017-.157.012-.11.02-.175.014-.12.596-4.051c.335-2.447 1.23-3.681 2.697-3.607zm-2.29 3.593l-.01.07-.596 4.047-.021.18-.019.17-.017.162-.01.101-.013.145-.007.09-.006.088-.008.122-.004.076-.003.072-.003.1v.06l-.002.092c-.001.075 0 .148.001.218l.003.083c.004.069.008.135.014.198l.008.076c.096.841.457 1.253 1.08 1.29 1.214.06 1.983-1.002 2.293-3.284l.01-.07.584-3.992.01-.086.021-.168.018-.164c.036-.348.057-.663.062-.941 0-.125-.004-.244-.01-.356l-.007-.083c-.005-.068-.012-.134-.02-.197l-.011-.075c-.123-.797-.48-1.186-1.067-1.217-1.145-.058-1.893.893-2.23 2.933l-.02.128-.02.132z" transform="translate(4 10) translate(12.706 16.941)"/>
                                    </g>
                                </g>
                            </g>
                        </g>
                    </g>
                </g>
            </g>
        </g>
    </g>
</svg>
