<?xml version="1.0" encoding="UTF-8"?>
<svg width="16px" height="16px" viewBox="0 0 16 16" version="1.1" xmlns="http://www.w3.org/2000/svg" xmlns:xlink="http://www.w3.org/1999/xlink">
    <!-- Generator: Sketch 52.6 (67491) - http://www.bohemiancoding.com/sketch -->
    <title>ic_location</title>
    <desc>Created with Sketch.</desc>
    <g id="ic_location" stroke="none" stroke-width="1" fill="none" fill-rule="evenodd">
        <g id="Group-2" fill-rule="nonzero">
            <rect id="Rectangle" x="0" y="0" width="16" height="16"></rect>
            <g id="Group" transform="translate(4.000000, 1.500000)" fill="#346AA0">
                <path d="M4.39686063,11.3041408 C4.19672732,11.5652864 3.80327268,11.5652864 3.60313937,11.3041408 C1.20332573,8.17272453 0,5.93797676 0,4.5 C0,2.290861 1.790861,0.5 4,0.5 C6.209139,0.5 8,2.290861 8,4.5 C8,5.93797676 6.79667427,8.17272453 4.39686063,11.3041408 Z M7,4.5 C7,2.84314575 5.65685425,1.5 4,1.5 C2.34314575,1.5 1,2.84314575 1,4.5 C1,5.57079421 1.99810792,7.48885576 4,10.1712571 C6.00189208,7.48885576 7,5.57079421 7,4.5 Z" id="Oval"></path>
                <circle id="Oval" cx="4" cy="4" r="1"></circle>
            </g>
            <path d="M2.5,14 C2.22385763,14 2,13.7761424 2,13.5 C2,13.2238576 2.22385763,13 2.5,13 L13.4112826,13 C13.687425,13 13.9112826,13.2238576 13.9112826,13.5 C13.9112826,13.7761424 13.687425,14 13.4112826,14 L2.5,14 Z" id="Line-64" fill="#346AA0"></path>
        </g>
    </g>
</svg>