<svg xmlns="http://www.w3.org/2000/svg" width="28" height="29" viewBox="0 0 28 29">
    <defs>
        <linearGradient id="ic-award-winning-a" x1="-60.384%" x2="61.429%" y1="130.931%" y2="33.968%">
            <stop offset="0%" stop-color="#A3DBFF"/>
            <stop offset="100%" stop-color="#346AA0"/>
        </linearGradient>
    </defs>
    <g fill="none" fill-rule="evenodd" stroke="#346AA0">
        <path fill="url(#ic-award-winning-a)" d="M13.873.135c.059.051.191.152.397.287.352.23.776.462 1.272.68 2.76 1.21 6.315 1.454 10.672.106l.666-.206-.018.696-.021.674c-.019.534-.043 1.13-.073 1.77a124.794 124.794 0 0 1-.363 5.374c-.32 3.516-.752 6.05-1.34 7.273-1.116 2.32-2.84 4.356-5.002 6.12a26.167 26.167 0 0 1-5.782 3.556c-.263.116-.453.194-.558.234l-.178.068-.178-.068c-.105-.04-.295-.118-.557-.234a26.167 26.167 0 0 1-5.782-3.556c-2.164-1.764-3.887-3.8-5.003-6.12-.588-1.223-1.019-3.757-1.34-7.273a124.8 124.8 0 0 1-.362-5.374 141.997 141.997 0 0 1-.095-2.444l-.017-.696.665.206C5.233 2.556 8.789 2.312 11.548 1.1c.496-.217.92-.449 1.273-.68.205-.134.338-.235.397-.286l.327-.284.328.284z" transform="translate(.455 1)"/>
        <path fill="#FFF" d="M17.428 17.916l-.61-3.542 2.58-2.507-3.565-.516-1.596-3.224-1.595 3.224-3.565.516 2.58 2.507-.61 3.542 3.19-1.672 3.191 1.672z"/>
    </g>
</svg>
