<?xml version="1.0" encoding="UTF-8"?>
<svg width="44px" height="27px" viewBox="0 0 44 27" version="1.1" xmlns="http://www.w3.org/2000/svg" xmlns:xlink="http://www.w3.org/1999/xlink">
    <defs>
        <linearGradient x1="-60.3837337%" y1="130.931099%" x2="61.4286112%" y2="33.9683301%" id="ic-fab-rich-linearGradient-1">
            <stop stop-color="#A3DBFF" offset="0%"></stop>
            <stop stop-color="#346AA0" offset="100%"></stop>
        </linearGradient>
    </defs>
    <g stroke="none" stroke-width="1" fill="none" fill-rule="evenodd">
        <g transform="translate(-964.000000, -584.000000)" fill="url(#ic-fab-rich-linearGradient-1)" fill-rule="nonzero" stroke="#346AA0">
            <g transform="translate(965.000000, 585.000000)">
                <path d="M26.3287205,20.5205339 L26.7133426,18.2310786 C27.6769384,13.9495649 24.2479654,9.82998323 19.8915835,10.2659138 C19.7705322,10.2659138 19.7198371,10.2669635 19.6632393,10.2716511 C19.6014641,10.2767676 19.5524113,10.2859088 19.5095972,10.3000929 L19.4068374,10.3224847 C19.334458,10.3304189 19.1982192,10.3456027 19.0072548,10.3672851 C18.6886984,10.4034544 18.3336661,10.4446219 17.9512981,10.4900355 C16.8590355,10.619763 15.7668706,10.7574729 14.7481699,10.8971045 C13.9068038,11.012429 13.1525105,11.1241212 12.5075967,11.230276 C11.466824,11.4015903 10.7298357,11.557761 10.4312953,11.6674881 L6.46062743,16.3683494 C6.34399148,16.5504243 6.15466913,16.6682388 5.95221113,16.7222837 L5.95221113,18.936345 C5.95221113,19.5753405 5.42730388,20.0318275 4.71144203,20.0251057 C4.11104345,19.9256508 3.69400856,19.4815584 3.69400856,18.8767967 L3.69400856,16.5623047 C3.436881,16.3894397 3.2746077,16.0934757 3.2746077,15.7802875 L3.2746077,1.9650924 C3.2746077,1.45006857 3.73880675,0.988706366 4.25392297,0.988706366 L5.63195435,0.988706366 C5.91818276,0.988706366 6.17360493,1.08390432 6.34390889,1.25316751 L10.5181555,5.40190418 C10.5189032,5.4020734 10.5196913,5.40225197 10.5205213,5.40243988 L26.4614836,2.67479699 L26.4614836,0.655030801 C26.4614836,0.0209104556 26.9855971,-0.5 27.6205421,-0.5 C28.2554871,-0.5 28.7796006,0.0209104556 28.7796006,0.655030801 L28.7796006,2.36194982 C31.954358,2.1420312 34.9209579,3.91673802 36.2082391,6.76488706 L36.7667618,6.76488706 L36.7667618,5.7761807 C36.7667618,4.96341559 37.410704,4.32340862 38.2253923,4.32340862 C39.0389771,4.32340862 39.6840228,5.02026042 39.6840228,5.83572895 L39.6840228,14.8870637 C39.6840228,15.6998288 39.0400806,16.3398357 38.2253923,16.3398357 C37.5330073,16.3398357 36.9626872,15.8351396 36.8081312,15.1821482 L36.8081312,20.4609856 L41.700428,20.4609856 C42.0351554,20.4609856 42.3032286,20.6893584 42.446663,20.9744739 L42.5,21.0804961 L42.5,24.761807 C42.5,25.1577343 42.1556298,25.5 41.7603424,25.5 L0.239657632,25.5 C-0.155629767,25.5 -0.5,25.1577343 -0.5,24.761807 L-0.5,21.2587269 C-0.5,20.8627996 -0.155629767,20.5205339 0.239657632,20.5205339 L26.3287205,20.5205339 Z M4.27728446,1.98870637 L4.2746077,1.98870637 L4.2746077,1.99101776 C4.27816796,1.99193437 4.27817233,1.99208744 4.27728446,1.98870637 Z M30.7360913,9.58829569 C31.7416461,9.58829569 32.5727532,8.7767594 32.5727532,7.76591376 C32.5727532,6.75506812 31.7416461,5.94353183 30.7360913,5.94353183 C29.6934329,5.94353183 28.8994294,6.73268297 28.8994294,7.76591376 C28.8994294,8.7767594 29.7305365,9.58829569 30.7360913,9.58829569 Z"></path>
            </g>
        </g>
    </g>
</svg>