<svg xmlns="http://www.w3.org/2000/svg" width="84" height="24" viewBox="0 0 84 24">
    <g fill="none" fill-rule="nonzero">
        <path fill="#333" d="M83.647 21.592a2.405 2.405 0 0 1-2.409 2.406H2.412A2.409 2.409 0 0 1 0 21.592V2.41A2.412 2.412 0 0 1 2.412 0h78.825a2.409 2.409 0 0 1 2.41 2.409v19.183z"/>
        <path fill="#FFF" d="M18.369 11.867c-.018-2.024 1.658-3.01 1.734-3.055-.949-1.384-2.42-1.573-2.937-1.588-1.236-.13-2.435.74-3.064.74-.642 0-1.612-.727-2.656-.706-1.345.02-2.603.8-3.293 2.008-1.423 2.464-.361 6.084 1.003 8.076.682.976 1.48 2.065 2.523 2.026 1.02-.041 1.402-.65 2.634-.65 1.22 0 1.579.65 2.643.626 1.096-.017 1.785-.98 2.444-1.964.788-1.118 1.105-2.22 1.117-2.276-.025-.009-2.127-.811-2.148-3.237zm-2.01-5.953c.549-.686.924-1.62.82-2.568-.795.035-1.789.55-2.361 1.22-.506.592-.959 1.562-.842 2.474.893.067 1.81-.45 2.382-1.126zM33.156 19.228h-1.427l-.781-2.455H28.23l-.744 2.455h-1.39l2.693-8.358h1.662l2.704 8.358zm-2.444-3.485l-.707-2.183c-.074-.223-.215-.748-.421-1.574h-.025c-.083.355-.216.88-.397 1.574l-.695 2.183h2.245zm9.354.398c0 1.025-.279 1.835-.836 2.43-.499.53-1.119.794-1.858.794-.799 0-1.373-.285-1.722-.855v3.162h-1.34v-6.49c0-.644-.016-1.304-.049-1.98h1.178l.075.954h.025c.447-.72 1.125-1.08 2.034-1.08.711 0 1.305.282 1.78.844.474.563.713 1.303.713 2.22zm-1.365.049c0-.587-.132-1.07-.397-1.452a1.372 1.372 0 0 0-1.166-.595c-.33 0-.63.11-.9.329-.268.22-.444.507-.526.862-.037.133-.058.27-.062.408v1.005c0 .438.134.808.403 1.11.269.302.618.454 1.048.454.504 0 .897-.196 1.178-.583.281-.389.422-.902.422-1.538zM47 16.14c0 1.026-.279 1.836-.836 2.43-.5.53-1.119.795-1.859.795-.798 0-1.373-.285-1.721-.855v3.162h-1.34v-6.49c0-.644-.017-1.304-.05-1.98h1.179l.074.954h.025c.446-.72 1.124-1.08 2.035-1.08.71 0 1.304.282 1.78.844.474.563.713 1.303.713 2.22zm-1.366.05c0-.587-.132-1.07-.397-1.452a1.37 1.37 0 0 0-1.165-.595c-.33 0-.63.11-.9.329-.27.22-.445.507-.527.862-.04.166-.063.301-.063.408v1.005c0 .438.135.808.403 1.11.269.302.618.454 1.05.454.504 0 .897-.196 1.177-.583.282-.389.422-.902.422-1.538zm9.118.694c0 .711-.249 1.29-.743 1.736-.544.488-1.304.732-2.277.732-.9 0-1.621-.173-2.165-.52l.31-1.117a3.727 3.727 0 0 0 1.934.521c.506 0 .898-.114 1.178-.34.281-.228.423-.532.423-.911 0-.34-.117-.625-.348-.856-.232-.232-.615-.447-1.153-.645-1.464-.546-2.197-1.344-2.197-2.394 0-.686.26-1.247.776-1.686.516-.439 1.2-.658 2.053-.658.76 0 1.394.132 1.898.397l-.336 1.091a3.32 3.32 0 0 0-1.607-.384c-.472 0-.843.116-1.108.347a.994.994 0 0 0-.336.758c0 .33.129.604.385.818.222.198.628.414 1.215.645.72.29 1.249.628 1.587 1.016.342.388.511.872.511 1.45zm4.44-2.678h-1.476v2.926c0 .745.26 1.116.781 1.116.24 0 .438-.02.595-.062l.037 1.016c-.264.1-.611.149-1.041.149-.53 0-.943-.162-1.241-.485-.297-.322-.447-.863-.447-1.624v-3.038h-.88v-1.005h.88v-1.104l1.316-.397v1.5h1.476v1.008zm6.648 1.96c0 .925-.265 1.686-.794 2.28-.553.613-1.29.919-2.208.919-.885 0-1.59-.294-2.115-.88-.525-.587-.788-1.327-.788-2.22 0-.933.272-1.698.813-2.293.542-.596 1.272-.893 2.19-.893.884 0 1.595.294 2.133.88.514.57.77 1.304.77 2.206zm-1.388.03c0-.552-.12-1.026-.359-1.422-.28-.479-.683-.718-1.204-.718-.536 0-.948.24-1.228.718-.24.396-.36.878-.36 1.447 0 .553.12 1.028.36 1.423.29.478.694.717 1.217.717.512 0 .914-.244 1.204-.73.246-.405.37-.882.37-1.435zm5.744-1.817a2.331 2.331 0 0 0-.422-.037c-.471 0-.836.177-1.092.534-.223.314-.334.71-.334 1.19v3.162h-1.34V15.1a42.34 42.34 0 0 0-.039-1.897h1.167l.049 1.153h.037c.142-.396.364-.716.67-.955.28-.21.619-.323.968-.323.124 0 .235.009.335.024l.001 1.278zm5.99 1.55a3.14 3.14 0 0 1-.049.608H72.12c.015.595.21 1.051.583 1.365.339.28.777.421 1.314.421.595 0 1.138-.094 1.626-.284l.21.929c-.57.248-1.244.372-2.021.372-.935 0-1.669-.275-2.203-.824-.532-.55-.8-1.288-.8-2.213 0-.909.249-1.665.746-2.269.52-.644 1.223-.967 2.108-.967.868 0 1.526.323 1.973.967.354.51.531 1.144.531 1.896zm-1.277-.347c.01-.397-.078-.74-.26-1.03-.232-.372-.589-.558-1.067-.558-.438 0-.795.181-1.066.546a2 2 0 0 0-.396 1.04l2.79.002zM27.845 7.915c-.373 0-.695-.019-.963-.05v-4.04a7.297 7.297 0 0 1 1.134-.086c1.536 0 2.243.756 2.243 1.987 0 1.421-.835 2.189-2.414 2.189zm.225-3.658c-.208 0-.384.013-.53.043v3.072c.079.012.23.018.444.018 1.007 0 1.58-.573 1.58-1.646 0-.956-.519-1.487-1.494-1.487zm4.394 3.688c-.866 0-1.427-.646-1.427-1.523 0-.915.573-1.567 1.476-1.567.853 0 1.426.616 1.426 1.518 0 .926-.59 1.572-1.475 1.572zm.025-2.609c-.476 0-.78.445-.78 1.067 0 .61.31 1.054.774 1.054.463 0 .774-.475.774-1.067 0-.603-.305-1.054-.768-1.054zm6.387-.42l-.926 2.962h-.604l-.384-1.286a9.752 9.752 0 0 1-.238-.957h-.013a6.41 6.41 0 0 1-.237.957l-.409 1.286h-.61l-.872-2.962h.677l.336 1.408c.079.336.145.652.2.951h.013c.049-.25.128-.56.244-.945l.42-1.413h.537l.403 1.383c.097.336.177.665.238.976h.018c.043-.305.11-.628.2-.976l.36-1.383.647-.001zm3.412 2.962h-.659v-1.7c0-.525-.2-.787-.597-.787-.39 0-.659.335-.659.725v1.762h-.658V5.763c0-.262-.006-.543-.024-.848h.579l.03.458h.019c.177-.317.536-.518.939-.518.622 0 1.03.476 1.03 1.25v1.773zm1.815 0h-.659V3.557h.66v4.321zm2.4.067c-.864 0-1.426-.646-1.426-1.523 0-.915.573-1.567 1.475-1.567.854 0 1.427.616 1.427 1.518 0 .926-.591 1.572-1.475 1.572zm.025-2.609c-.475 0-.78.445-.78 1.067 0 .61.312 1.054.773 1.054.464 0 .775-.475.775-1.067 0-.603-.304-1.054-.768-1.054zm4.047 2.542l-.048-.341h-.017c-.201.275-.495.408-.867.408-.53 0-.908-.372-.908-.871 0-.732.634-1.11 1.732-1.11V5.91c0-.39-.207-.586-.615-.586-.292 0-.549.074-.774.22l-.134-.433c.274-.17.616-.256 1.017-.256.774 0 1.165.408 1.165 1.226v1.09c0 .3.013.531.043.708h-.594zm-.09-1.475c-.732 0-1.099.177-1.099.597 0 .31.19.463.452.463.335 0 .647-.256.647-.603v-.457zm3.838 1.475l-.03-.475h-.019c-.189.359-.507.542-.951.542-.714 0-1.243-.628-1.243-1.512 0-.926.548-1.579 1.297-1.579.396 0 .677.134.836.403h.013v-1.7h.659V7.08c0 .286.007.554.024.798h-.586zm-.097-1.743c0-.414-.275-.768-.694-.768-.488 0-.786.433-.786 1.042 0 .597.31 1.006.773 1.006.414 0 .707-.36.707-.786v-.494zm4.837 1.81c-.865 0-1.426-.646-1.426-1.523 0-.915.573-1.567 1.475-1.567.854 0 1.427.616 1.427 1.518 0 .926-.59 1.572-1.476 1.572zm.025-2.609c-.475 0-.78.445-.78 1.067 0 .61.311 1.054.774 1.054s.774-.475.774-1.067c0-.603-.304-1.054-.768-1.054zm4.992 2.542h-.66v-1.7c0-.525-.2-.787-.597-.787-.39 0-.657.335-.657.725v1.762h-.66V5.763c0-.262-.006-.543-.024-.848h.58l.03.458h.018c.177-.317.537-.519.939-.519.622 0 1.03.476 1.03 1.25v1.774zm4.43-2.468h-.725v1.438c0 .366.127.549.384.549.116 0 .213-.013.292-.03l.018.5a1.459 1.459 0 0 1-.51.073c-.52 0-.83-.287-.83-1.037V5.41h-.432v-.494h.432v-.543l.646-.195v.737h.725v.495zm3.485 2.468h-.658V6.19c0-.53-.2-.799-.597-.799-.341 0-.659.232-.659.701v1.786h-.658V3.557h.658v1.78h.013a.999.999 0 0 1 .891-.483c.627 0 1.01.488 1.01 1.262v1.762zm3.571-1.323H73.59c.013.561.384.878.934.878.292 0 .561-.05.798-.14l.103.457c-.28.122-.61.183-.994.183-.927 0-1.475-.586-1.475-1.493 0-.908.562-1.591 1.4-1.591.758 0 1.233.56 1.233 1.408.004.1-.003.2-.023.298zm-.603-.469c0-.457-.231-.78-.652-.78-.378 0-.677.33-.72.78h1.372z"/>
    </g>
</svg>
