<?xml version="1.0" encoding="UTF-8"?>
<svg width="48px" height="36px" viewBox="0 0 48 36" version="1.1" xmlns="http://www.w3.org/2000/svg" xmlns:xlink="http://www.w3.org/1999/xlink">
    <!-- Generator: Sketch 52.6 (67491) - http://www.bohemiancoding.com/sketch -->
    <title>ic_storage</title>
    <desc>Created with Sketch.</desc>
    <g id="ICONS" stroke="none" stroke-width="1" fill="none" fill-rule="evenodd">
        <g id="PLP-3.0-icons" transform="translate(-484.000000, -574.000000)" fill="#346AA0">
            <g id="ic_storagestorage" transform="translate(484.000000, 574.000000)">
                <g id="Group-14" transform="translate(2.000000, 0.000000)">
                    <g id="Group-12">
                        <path d="M1.99982143,0.790272418 L14.0305891,0.795876002 C15.1348466,0.796317006 16.0297904,1.69161825 16.0297904,2.79587584 L16.0305893,34.0044747 L-0.000178412585,33.9980725 L-0.000976986911,2.78947368 C-0.000976986911,1.68490418 0.894453513,0.789473684 1.99902301,0.789473684 C1.99928926,0.789473684 1.9995555,0.789473737 1.99982175,0.789473844 Z" id="Rectangle-18"></path>
                        <path d="M-1.3460589,17.3460589 L17.3460589,17.3460589" id="Line-8" stroke="#FFFFFF" stroke-width="2" stroke-linecap="round" transform="translate(8.000000, 17.346059) rotate(90.000000) translate(-8.000000, -17.346059) "></path>
                    </g>
                    <g id="Group-9" transform="translate(18.000000, 10.000000)">
                        <path d="M1.99999997,0.789846099 L22.0305892,0.793948387 C23.1350133,0.794154039 24.0302168,1.68952429 24.0302168,2.79394835 L24.0305893,23.0192758 C24.0305893,23.5632038 23.5896485,24.0041446 23.0457204,24.0041446 C23.0456837,24.0041446 23.0456471,24.0041446 23.0456104,24.0041446 L23.0456104,24.0041446 C22.5016038,24.0040839 22.0606315,23.5630623 22.0606315,23.0190557 L22.0606315,22 L1.9756768,22 L1.9756768,23.0126029 C1.9756768,23.5580492 1.53350526,24.0002207 0.988059027,24.0002207 C0.987985485,24.0002207 0.987911943,24.0002207 0.987838401,24.0002207 L0.987838401,24.0002207 C0.442234624,24.0000988 5.17157606e-13,23.5577654 5.19029156e-13,23.0121616 L-0.000372379679,2.78947368 C-0.000372379679,1.68490418 0.895058121,0.789473684 1.99962762,0.789473684 C1.99975176,0.789473684 1.9998759,0.789473696 2.00000003,0.789473719 Z" id="Rectangle-18"></path>
                        <path d="M5.37832306,7.34210526 L19.1615537,7.34210526" id="Line-8" stroke="#FFFFFF" stroke-width="2" stroke-linecap="round"></path>
                        <path d="M5.33333333,13.3421053 L18.6666667,13.3421053" id="Line-8" stroke="#FFFFFF" stroke-width="2" stroke-linecap="round"></path>
                    </g>
                </g>
            </g>
        </g>
    </g>
</svg>