<svg xmlns="http://www.w3.org/2000/svg" width="24" height="24"><defs><linearGradient x1="21.3192187%" y1="90.9614844%" x2="78.6816406%" y2="9.039375%" id="A"><stop stop-color="#ffb900" offset="0%"/><stop stop-color="#9100eb" offset="100%"/></linearGradient></defs><g fill-rule="nonzero"><circle fill="url(#A)" cx="12" cy="12" r="12"/><g fill="#fff"><path d="M14.75 18h-5.5C7.458 18 6 16.542 6 14.75v-5.5C6 7.458 7.458 6 9.25 6h5.5C16.542 6 18 7.458 18 9.25v5.5c0 1.792-1.458 3.25-3.25 3.25zM9.25 7C8 7 7 8 7 9.25v5.5C7 16 8 17 9.25 17h5.5C16 17 17 16 17 14.75v-5.5C17 8 16 7 14.75 7h-5.5zM12 15c-1.654 0-3-1.346-3-3s1.346-3 3-3 3 1.346 3 3-1.346 3-3 3zm0-5c-1.103 0-2 .897-2 2s.897 2 2 2 2-.897 2-2-.897-2-2-2z"/><circle cx="15.188" cy="8.813" r="1"/></g></g></svg>