<svg xmlns="http://www.w3.org/2000/svg" width="24" height="24" fill-rule="evenodd"><circle cx="12" cy="12" r="11.5" fill="#0077b5" stroke="#0077b5"/><path fill="#fff" d="M6.82 10.044h2.127v7.4H6.82v-7.4zm1-.927h-.016c-.77 0-1.27-.567-1.27-1.284 0-.732.514-1.288 1.3-1.288S9.11 7.1 9.126 7.83c0 .717-.497 1.286-1.296 1.286zm9.625 8.338h-2.412V13.62c0-1.004-.377-1.688-1.206-1.688-.634 0-.987.462-1.15.908-.062.16-.052.382-.052.605v4h-2.39v-7.4h2.39v1.163c.14-.51.904-1.235 2.122-1.235 1.51 0 2.7 1.067 2.7 3.36v4.122z"/></svg>