<svg xmlns="http://www.w3.org/2000/svg" width="24" height="24" fill-rule="evenodd"><circle cx="12" cy="12" r="11.5" fill="#1da1f2" stroke="#1da1f2"/><path fill="#fff" d="M16.65 9.19a2.46 2.46 0 0 0 1.033-1.371 4.55 4.55 0 0 1-1.492.601 2.288 2.288 0 0 0-1.715-.783c-1.298 0-2.35 1.1-2.35 2.48 0 .194.02.383.06.564-1.952-.103-3.683-1.1-4.843-2.6a2.577 2.577 0 0 0-.318 1.247A2.52 2.52 0 0 0 8.07 11.4a2.266 2.266 0 0 1-1.065-.31v.03c0 1.2.8 2.203 1.886 2.43a2.21 2.21 0 0 1-1.062.043c.3.985 1.167 1.702 2.196 1.72a4.562 4.562 0 0 1-3.48 1.027 6.408 6.408 0 0 0 3.603 1.114c4.323 0 6.686-3.777 6.686-7.052l-.007-.32c.46-.35.86-.786 1.173-1.283-.422.197-.875.33-1.35.4z"/></svg>