<svg xmlns="http://www.w3.org/2000/svg" width="24" height="25" fill-rule="evenodd"><circle cx="12" cy="12.278" r="11.5" fill="red" stroke="red"/><path fill="#fff" d="M8.687 15.282l.01-2.2.413-.004.412-.005-.004-.34-.006-.34-2.382-.01v.69l.402.005.403.004.005 2.192.013 2.214c.007.018.1.023.367.02l.36-.005.01-2.2zm6.875-.155a3.44 3.44 0 0 1 .029-.63c.052-.173.163-.258.337-.258.146 0 .238.056.3.183.04.08.044.114.05.4l.006.323h-.356c-.306 0-.357-.004-.366-.028zm.664 2.38a.938.938 0 0 0 .681-.674c.015-.058.033-.222.04-.364l.01-.26h-.672l-.008.233c-.01.263-.036.354-.132.438-.102.1-.3.097-.41.014-.145-.098-.18-.264-.174-.803l.006-.38h1.4l-.01-.568c-.01-.634-.024-.73-.13-.955-.203-.427-.763-.642-1.23-.472a.94.94 0 0 0-.642.719c-.03.126-.033.24-.033 1.167 0 1.138.004 1.184.12 1.417.206.415.724.63 1.194.5zm-2.753-.647a.244.244 0 0 0 .093-.132c.028-.083.03-.188.027-1.164l-.04-1.143c-.084-.17-.296-.187-.5-.038l-.064.05v2.32l.063.048c.144.1.302.133.4.06zm.42.654c.106-.03.234-.156.29-.285.1-.246.1-.252.1-1.638l-.03-1.4c-.092-.394-.3-.566-.624-.54-.187.014-.334.09-.5.26a1.219 1.219 0 0 1-.154.135c-.007 0-.013-.377-.013-.837v-.836h-.653V17.5h.653v-.173c0-.115.007-.173.02-.173s.084.06.163.136c.254.24.474.305.747.223zm-3.473-.017a1.23 1.23 0 0 0 .413-.286c.06-.06.118-.1.13-.1s.024.05.024.2v.2h.652v-3.8h-.652v2.93l-.14.14c-.112.11-.158.145-.227.164-.117.033-.2.01-.24-.072-.036-.062-.037-.1-.042-1.614l-.005-1.55h-.65v1.646c0 1.793.001 1.832.1 2.005.1.19.366.248.636.146zm.278 1.586a80.38 80.38 0 0 1-1.115-.026l-2.32-.13a1.286 1.286 0 0 1-.687-.418c-.258-.318-.396-.704-.463-1.3a19.819 19.819 0 0 1 .01-4.328c.07-.585.246-1.007.54-1.3a1.12 1.12 0 0 1 .546-.318c.467-.12 4.12-.215 6.343-.166l3.04.13c.476.055.8.303 1.043.773.175.354.23.63.302 1.482l.06 1.872c-.012.93-.07 1.75-.16 2.21-.093.487-.313.902-.598 1.127-.22.173-.454.25-.823.272l-.308.02-1.975.08-3.434.02zm-1.145-8.446c-.016-.026-.013-1.522.002-1.734.02-.27-.025-.485-.22-1.032l-.252-.763-.468-1.65.814.004c.003.004.12.432.26.952l.26.96a13.05 13.05 0 0 0 .183-.673l.325-1.237c.01-.01.1-.01.444-.01l.37.002-.01.06c-.006.048-.258.896-.522 1.76l-.163.546-.164.54-.053.17v1.053l-.03 1.06c-.067.02-.766.01-.777-.01zm4.768.063c-.182-.024-.29-.095-.36-.24-.092-.182-.092-.18-.092-1.993v-1.69h.735l.008 1.56c.008 1.693.006 1.654.107 1.68.093.022.195-.028.323-.16l.123-.125.01-2.955.734-.01v3.87l-.05.01a5.85 5.85 0 0 1-.662 0c-.027-.008-.03-.033-.03-.185v-.176l-.104.103c-.24.234-.5.343-.74.31zm-1.85-.74c.126-.095.127-.104.133-1.192l-.023-1.104c-.034-.156-.095-.23-.213-.262-.153-.04-.293.046-.342.214-.037.13-.036 2.047.001 2.176.03.097.12.203.187.218a.342.342 0 0 0 .257-.05zm-.288.74c-.33-.04-.63-.235-.777-.5s-.16-.4-.153-1.6l.046-1.1c.087-.314.255-.528.515-.657a1.057 1.057 0 0 1 1.08.065c.215.14.345.34.415.64.03.133.033.235.033 1.164 0 1.13-.005 1.196-.12 1.44a1.03 1.03 0 0 1-.624.518c-.116.03-.317.05-.415.038z"/></svg>