<svg xmlns="http://www.w3.org/2000/svg" width="38" height="25" viewBox="0 0 38 25">
    <defs>
        <linearGradient id="prefix__a" x1="50%" x2="50%" y1="74.598%" y2="50%">
            <stop offset="0%" stop-color="#436A9C"/>
            <stop offset="100%" stop-color="#6F96C2"/>
        </linearGradient>
    </defs>
    <g fill="none">
        <path fill="#346AA0" d="M.161 18.081c.332-1.78.808-2.123 2.762-1.914l1.049.123-.446.737c-.98 1.625-.97 2.792.22 3.833.692.605 1.907.678 2.748.169.946-.574 1.278-1.508 1.02-3.119l-.038-.224-.16-.863.848.225c2.2.582 2.56 1.162 2.01 3.274-.665 2.563-3.418 4.247-6.005 3.673-2.676-.594-4.5-3.276-4.008-5.914zm25.604-.552l.668-.19.042.79.015.716c.009.303.026.472.067.656.27 1.212 1.39 1.984 2.658 1.84 1.274-.147 2.164-1.201 2.104-2.53l-.005-.105c-.027-.459-.021-.6.115-.841.181-.322.495-.456.917-.462l.215.006c.968.043 1.434.328 1.489 1.322.141 2.523-1.79 4.91-4.322 5.309-2.498.391-5.1-1.237-5.717-3.596-.34-1.304.296-2.425 1.589-2.864l.165-.051zm-17.743.056c.366 1.97-.037 3.19-1.24 3.919-1.029.623-2.511.553-3.402-.226-1.567-1.37-1.294-2.94-.33-4.538-.369-.044-.673-.073-.925-.08l-.122-.002c-.903.002-1.077.355-1.296 1.525-.436 2.34 1.196 4.74 3.582 5.27.328.073.66.104.988.098l.197-.008c1.9-.12 3.674-1.476 4.163-3.36l.08-.322c.361-1.52.1-1.801-1.695-2.276zm24.326.373c-.574.01-.496.348-.474.828.074 1.634-1.045 2.929-2.596 3.107l-.17.014-.168.006c-1.397.012-2.614-.898-2.925-2.29-.112-.502-.07-1.037-.099-1.56-1.12.318-1.644 1.183-1.367 2.24.494 1.89 2.464 3.266 4.486 3.239l.202-.008c.135-.008.27-.022.405-.043 2.266-.356 3.977-2.507 3.853-4.729-.038-.692-.37-.766-.837-.792l-.195-.01-.115-.002zm-27.911-6.38c1.146-.222 2.002.13 2.58 1.167l.21.367c.216.362.455.727.818 1.253l1.009 1.452 1.07 1.588-1.67-.664c-.883-.35-1.8-.56-2.858-.667l.357.22.302.04c.292.045.433.098.608.265.284.273.308.636.151 1.046l-.052.124c-.033.072-.04.116-.01.217l.129.353c.026.079.043.144.059.224.246 1.262-.696 2.395-1.967 2.352-1.268-.043-2.212-1.303-1.828-2.497.165-.513.421-.788.985-1.182l.17-.116c.372-.25.532-.383.633-.544l.035-.063.236-.458c-.197-.017-.398-.031-.605-.043l-.315-.014c-.408-.016-.761-.022-1.296-.021l-1.787.01-.207.025c-.56.068-.975-.056-1.149-.627-.126-.41.017-.713.376-1.23.96-1.388 2.318-2.248 4.016-2.577zm23.336 5.962c.302-.128.58-.15 1.06-.122l.145.01.092-.009c1.008-.068 1.682.276 1.778 1.22l.01.146.002.148c-.023 1.227-.784 1.99-2.002 1.97-1.155-.018-1.836-.8-1.86-1.963-.015-.689.252-1.178.775-1.4zm-22.11-.773c-.409.794-1.5.924-1.789 1.821-.258.802.358 1.663 1.202 1.763l.116.01.123-.002c.845-.042 1.45-.816 1.28-1.69-.072-.37-.352-.664-.138-1.131.38-.828-.468-.57-.795-.77zm22.835 1.197c-.528.009-.962.172-.945.964.017.786.39 1.338 1.164 1.412l.15.008.149-.003c.82-.041 1.272-.555 1.288-1.422.014-.736-.383-.942-.91-.958h-.1c-.101.001-.206.009-.314.02-.13-.01-.26-.02-.387-.021h-.095zM11.013 1.697c.773-1.738 1.532-1.971 2.855-.81l.17.151c.07.053.142.068.327.068l.27-.005.163.006c.806.056 1.357.44 1.334 1.253-.022.809-.708 1.217-1.453 1.063-.742-.154-1.028.065-1.423 1.034l-.763 1.896c-.553 1.384-.808 2.148-1 3.075-.607 2.907.857 5.695 3.296 6.369.974.268 2.034.28 3.104.052 1.097-.233 1.84-.963 2.132-2.093.306-1.178.028-2.172-.851-2.987-.044-.04-.087-.076-.151-.125l-.355-.258c-.106-.08-.179-.14-.262-.22-.318-.304-.393-.657-.349-1.11l.033-.276c.069-.595.443-.824.95-.836l.787.019c.228.003.463.004.724.004l2.872-.033c1.753-.012 2.75.032 3.95.186 4.06.522 7.129 3.465 7.816 7.481.208 1.224-.334 1.801-1.564 1.738l-.56-.022c-.376-.01-.779-.013-1.34-.009l-1.278.012v.01l-2.903.007-.903-.006-.28-.005c-1.044-.019-1.739.327-2.162 1.113l-.077.153c-.285.617-.646.915-1.31.889l-.483-.016c-.426-.01-.864-.012-1.465-.005l-2.126.03c-2.02.017-3.138-.043-4.47-.268-2.177-.367-3.862-1.442-5.007-3.25l-.468-.774c-.194-.314-.327-.503-.48-.674l-.067-.072c-1.451-1.52-1.626-3.102-.663-5.055l.458-.89c.396-.79.764-1.604 1.276-2.809l1.31-3.115c.135-.314.255-.59.386-.886zM27.302 8.67c-1.935-.248-3.877-.183-5.817-.157l-.728.007c-.485.003-.97 0-1.455-.013l-.193-.009h-.065c-.194.004-.369.058-.402.345l-.026.213c-.03.252-.034.508.174.707.232.222.525.379.761.597 1.047.971 1.363 2.183 1.012 3.535-.342 1.32-1.238 2.217-2.554 2.497-.4.085-.808.14-1.218.162l-.308.01c-.617.006-1.236-.066-1.841-.232-2.743-.759-4.355-3.845-3.694-7.019.322-1.54.953-2.968 1.535-4.416l.192-.483c.329-.846.678-1.525 1.517-1.584l.137-.005.145.007.154.017.164.03c.06.012.12.019.18.02l.086-.003c.283-.025.509-.2.519-.552.013-.468-.31-.63-.72-.675l-.097-.009-.115-.004-.344.004c-.229-.003-.455-.041-.675-.244l-.221-.198c-.948-.817-1.282-.652-1.884.704-.99 2.23-1.848 4.528-2.924 6.71l-.415.813c-.937 1.776-.912 3.18.466 4.622.44.46.737 1.06 1.083 1.606 1.083 1.712 2.655 2.667 4.63 3 1.298.22 2.601.266 3.906.264l.653-.005 1.958-.03.653-.002.652.006.652.019.116-.001c.322-.02.477-.188.616-.46l.051-.106c.538-1.162 1.507-1.61 2.754-1.588l.587.008.587.003 2.346-.006v-.008c.501 0 1.003-.008 1.505-.013l.753-.004.752.007.883.03h.122c.665-.02.869-.305.735-1.093-.645-3.766-3.513-6.532-7.34-7.024zm10.378 6.527l.02.327.008.05.027.104-.024.201-.009.095c-.036.417-.07.597-.216.826-.23.363-.627.51-1.123.448-.842-.104-1.106-.557-1.109-1.314l.007-.342c0-.065-.002-.104-.007-.13l-.005-.02c-.153-.418-.109-.807.2-1.066.178-.148.37-.204.613-.22l.177-.005.258.002c.808-.046 1.12.36 1.183 1.044zm-1.227-.488l-.245-.002-.12.005c-.238.02-.437.107-.346.448l.029.09c.178.487-.284 1.33.66 1.447.044.005.086.009.124.01l.108-.004c.502-.05.451-.556.507-.99-.096-.372.102-.977-.523-1.006l-.194.002zM5.115 12.07c-.18-.005-.37.014-.572.053-1.53.296-2.774 1.059-3.665 2.348-.155.223-.364.548-.302.75.065.212.22.256.395.253l.076-.005.256-.03c.041-.005.082-.008.12-.008l1.607-.01h.403c1.62.007 3.241.1 4.854.665l.372.14-.363-.53-.736-1.055c-.243-.353-.48-.71-.705-1.073l-.324-.553c-.34-.61-.762-.886-1.283-.937l-.133-.008zm19.543-7.645c2.093-.97 5.034.846 5.623 3.318l.037.173.177.926-.896-.294c-1.796-.589-3.27-.729-6.287-.709l-2.109.02c-.5 0-.885-.006-1.298-.02l-.156-.007c-.023 0-.06.003-.147.017l-.163.026c-.705.109-1.225-.087-1.32-.87-.113-.938.506-1.757 1.435-1.955.365-.078.702-.103 1.217-.1l.677.007h.15c1.29-.01 2.083-.116 2.877-.45l.183-.082zm5.077 3.426c-.509-2.08-2.96-3.645-4.7-2.982l-.143.06c-1.094.509-2.16.574-3.289.584l-.277-.001-.559-.008c-.372 0-.741.013-1.097.089-.644.138-1.078.69-1 1.345.038.31.2.4.402.41h.077l.08-.005c.187-.02.388-.072.543-.066.45.019.9.025 1.35.026l.452-.001 1.81-.02.453-.003h.454c1.677.012 3.363.12 5.058.61l.423.132-.037-.17zM7.095 1.242C7.25.406 7.546-.032 8.341.002l.146.01.159.02c1.103.163 1.936.785 1.939 1.875.002 1.15-.881 1.764-2.091 1.887-.813.083-1.153-.27-1.362-.998l-.07-.264-.037-.125c-.01-.033-.021-.059-.032-.079l-.015-.026-.21-.308.205-.311c.03-.045.056-.118.084-.247l.038-.194zM8.301.558c-.796.001-.532.928-.864 1.431.315.463.108 1.344 1 1.253.77-.079 1.594-.423 1.592-1.334C10.027 1.049 9.247.683 8.551.58L8.429.565 8.3.558z"/>
        <path fill="url(#prefix__a)" d="M3.05 16.74c-.964 1.599-1.237 3.168.33 4.538.89.779 2.373.85 3.401.226 1.204-.73 1.607-1.95 1.241-3.92 1.915.507 2.084.793 1.615 2.598-.59 2.274-3.053 3.78-5.348 3.271-2.386-.53-4.018-2.93-3.582-5.27.285-1.526.496-1.662 2.344-1.443zm29.413 1.22c.57.027.988.018 1.032.802.124 2.222-1.587 4.373-3.853 4.729-2.22.348-4.55-1.11-5.093-3.187-.277-1.058.247-1.923 1.367-2.24.029.522-.013 1.057.099 1.558.336 1.505 1.728 2.446 3.263 2.27 1.55-.177 2.67-1.472 2.596-3.106-.023-.51-.11-.86.59-.826zm-26.8-1.193c.326.202 1.174-.057.794.77-.214.468.066.761.138 1.133.179.915-.494 1.72-1.403 1.69-.903-.03-1.588-.933-1.318-1.772.289-.897 1.38-1.027 1.788-1.82zm23.317 1.218c.717-.074 1.34.018 1.324.938-.017.918-.523 1.44-1.437 1.425-.877-.014-1.296-.585-1.314-1.42-.021-1.025.711-.997 1.427-.943zM13.626 1.417c.367.338.75.218 1.134.244.455.032.83.18.817.684-.013.457-.392.616-.785.535-1.292-.268-1.719.51-2.117 1.535-.63 1.615-1.37 3.188-1.727 4.9-.661 3.173.95 6.26 3.694 7.018 1.109.305 2.267.293 3.367.06 1.316-.28 2.212-1.178 2.554-2.497.35-1.352.035-2.564-1.012-3.535-.236-.218-.529-.375-.761-.597-.267-.255-.183-.606-.148-.92.048-.414.392-.343.66-.336 2.667.074 5.34-.178 8 .163 3.827.492 6.695 3.258 7.34 7.024.15.88-.123 1.134-.989 1.09-1.25-.065-2.507-.017-3.762-.017v.008c-1.172 0-2.345.017-3.52-.005-1.246-.023-2.215.426-2.753 1.588-.17.367-.334.584-.783.567-2.824-.113-5.661.224-8.475-.252-1.974-.333-3.546-1.288-4.63-3-.345-.546-.643-1.146-1.082-1.606-1.378-1.442-1.403-2.846-.466-4.622 1.278-2.42 2.226-5.014 3.34-7.523.646-1.456.983-1.539 2.104-.506zM36.528 14.71c.768-.044.54.611.642 1.005-.063.491.01 1.076-.739.984-.944-.117-.482-.96-.66-1.447-.244-.664.443-.525.757-.542zM6.531 13.015c.623 1.12 1.411 2.145 2.128 3.21-2.402-.955-4.828-.793-7.237-.794-.295 0-.726.183-.846-.21-.062-.202.147-.527.302-.75.891-1.29 2.135-2.052 3.665-2.348.86-.166 1.507.028 1.988.892zm23.241-4.994c-3.367-1.105-6.704-.608-10-.744-.378-.016-1.021.32-1.101-.34-.08-.655.355-1.206 1-1.344.621-.133 1.287-.075 1.932-.08 1.13-.01 2.195-.075 3.29-.584 1.791-.831 4.455.87 4.88 3.092zM8.43.565c.724.077 1.598.433 1.6 1.343.002.91-.822 1.255-1.591 1.334-.893.09-.686-.79-1.001-1.253.349-.528.04-1.524.992-1.424z"/>
    </g>
</svg>
