<?xml version="1.0" encoding="UTF-8"?>
<svg width="40px" height="36px" viewBox="0 0 40 36" version="1.1" xmlns="http://www.w3.org/2000/svg" xmlns:xlink="http://www.w3.org/1999/xlink">
    <!-- Generator: Sketch 52.6 (67491) - http://www.bohemiancoding.com/sketch -->
    <title>ic_offers</title>
    <desc>Created with Sketch.</desc>
    <g id="ICONS" stroke="none" stroke-width="1" fill="none" fill-rule="evenodd">
        <g id="PLP-3.0-icons" transform="translate(-120.000000, -217.000000)" fill-rule="nonzero">
            <g id="ic_offers" transform="translate(120.000000, 217.000000)">
                <g id="Group-8" transform="translate(4.000000, 2.000000)">
                    <polygon id="Star" fill="#346AA0" points="16 28.9758185 12.1709494 31.5350691 9.96983649 27.4895166 5.39003747 27.976172 5.32111077 23.371105 1.03974012 21.6736782 3.11878987 17.5640621 0.116658014 14.0714131 3.86739898 11.3987114 2.83225815 6.91096405 7.39544078 6.28746042 8.56442925 1.83270359 12.8946834 3.40123525 16 0 19.1053166 3.40123525 23.4355708 1.83270359 24.6045592 6.28746042 29.1677419 6.91096405 28.132601 11.3987114 31.883342 14.0714131 28.8812101 17.5640621 30.9602599 21.6736782 26.6788892 23.371105 26.6099625 27.976172 22.0301635 27.4895166 19.8290506 31.5350691"></polygon>
                    <path d="M20.6666667,11.7647059 L11.7235436,20.707829" id="Line-3" stroke="#FFFFFF" stroke-width="3.2" stroke-linecap="round"></path>
                    <circle id="Oval" stroke="#FFFFFF" stroke-width="1.6" fill="#FFFFFF" cx="12" cy="12" r="1.33333333"></circle>
                    <circle id="Oval" stroke="#FFFFFF" stroke-width="1.6" fill="#FFFFFF" cx="20" cy="21.3333333" r="1.33333333"></circle>
                </g>
            </g>
        </g>
    </g>
</svg>