<?xml version="1.0" encoding="UTF-8"?>
<svg width="46px" height="36px" viewBox="0 0 46 36" version="1.1" xmlns="http://www.w3.org/2000/svg" xmlns:xlink="http://www.w3.org/1999/xlink">
    <!-- Generator: Sketch 52.6 (67491) - http://www.bohemiancoding.com/sketch -->
    <title>ic_recliner</title>
    <desc>Created with Sketch.</desc>
    <g id="ICONS" stroke="none" stroke-width="1" fill="none" fill-rule="evenodd">
        <g id="PLP-3.0-icons" transform="translate(-405.000000, -396.000000)" fill="#346AA0" stroke="#FFFFFF">
            <g id="ic_recliner" transform="translate(405.000000, 396.000000)">
                <g id="Group-4" transform="translate(2.000000, 0.000000)">
                    <path d="M30.7839519,19.5876147 C30.576746,19.6231767 30.3760549,19.6896518 30.1885913,19.7848166 C29.1544178,20.3098085 28.7416446,21.5737618 29.2666365,22.6079353 L33.6239479,31.1913356 C33.8244364,31.5862748 34.1949431,31.8674816 34.6292561,31.9543433 C35.4119733,32.110885 36.1733932,31.6032695 36.329935,30.8205522 L37.2542051,26.1991514 C37.3466484,25.7369298 37.2808934,25.2570476 37.0675216,24.8367298 L34.8139527,20.3974593 C34.3970903,19.5762886 33.4938451,19.1225262 32.5861946,19.2783027 L30.7839519,19.5876147 Z" id="Rectangle-21" transform="translate(33.166802, 25.615337) rotate(-63.000000) translate(-33.166802, -25.615337) "></path>
                    <path d="M4.19440654,1.55882353 C3.79604982,1.55882353 3.40123417,1.63361357 3.03047624,1.77930718 C1.39463943,2.42212814 0.589641035,4.26934523 1.23246199,5.90518203 L12.0522094,33.4390402 C12.2897829,34.0436121 12.873169,34.4411765 13.5227445,34.4411765 L31.4368817,34.4411765 C31.6145294,34.4411765 31.7909051,34.4112172 31.9585891,34.3525588 C32.7822568,34.0644278 33.2163951,33.1631368 32.928264,32.3394691 L29.3689569,22.1646315 C29.1472284,21.5307859 28.5490787,21.1063371 27.8775701,21.1063389 L18.3402984,21.1063653 C17.4634688,21.1063677 16.646657,20.6610393 16.1716568,19.9240149 L10.9068759,11.7550252 L10.8338926,11.5659754 L9.98890533,6.47140612 C9.5188077,3.63710899 7.06742447,1.55882353 4.19440654,1.55882353 Z" id="Rectangle-18"></path>
                </g>
            </g>
        </g>
    </g>
</svg>