<?xml version="1.0" encoding="UTF-8"?>
<svg width="70px" height="36px" viewBox="0 0 70 36" version="1.1" xmlns="http://www.w3.org/2000/svg" xmlns:xlink="http://www.w3.org/1999/xlink">
    <!-- Generator: Sketch 52.6 (67491) - http://www.bohemiancoding.com/sketch -->
    <title>ic_sofa-sets</title>
    <desc>Created with Sketch.</desc>
    <g id="ICONS" stroke="none" stroke-width="1" fill="none" fill-rule="evenodd">
        <g id="PLP-3.0-icons" transform="translate(-247.000000, -396.000000)" fill="#346AA0" stroke="#FFFFFF">
            <g id="ic_sofa-sets" transform="translate(247.000000, 396.000000)">
                <g id="Group-13" transform="translate(1.428571, 2.117647)">
                    <g id="Group-38" transform="translate(9.296703, 0.000000)">
                        <path d="M3.5989011,17.5 L45.9835165,17.5 L45.9835165,2.08 C45.9835165,1.2073901 45.2761264,0.5 44.4035165,0.5 L5.1789011,0.5 C4.30629119,0.5 3.5989011,1.2073901 3.5989011,2.08 L3.5989011,17.5 Z" id="Rectangle-18"></path>
                        <path d="M2.08,6.85294118 C1.2073901,6.85294118 0.5,7.56033127 0.5,8.43294118 L0.5,21.2141176 C0.5,22.0867276 1.2073901,22.7941176 2.08,22.7941176 L47.5024176,22.7941176 C48.3750275,22.7941176 49.0824176,22.0867276 49.0824176,21.2141176 L49.0824176,8.43294118 C49.0824176,7.56033127 48.3750275,6.85294118 47.5024176,6.85294118 L44.4316484,6.85294118 C43.5590384,6.85294118 42.8516484,7.56033127 42.8516484,8.43294118 L42.8516484,13.2729412 C42.8516484,14.6978358 41.696543,15.8529412 40.2716484,15.8529412 L9.31076923,15.8529412 C7.88587458,15.8529412 6.73076923,14.6978358 6.73076923,13.2729412 L6.73076923,8.43294118 C6.73076923,7.56033127 6.02337914,6.85294118 5.15076923,6.85294118 L2.08,6.85294118 Z" id="Rectangle-5"></path>
                    </g>
                    <g id="Group-38" transform="translate(40.285714, 6.352941)">
                        <path d="M3.5989011,17.5 L23.2582418,17.5 L23.2582418,2.08 C23.2582418,1.2073901 22.5508517,0.5 21.6782418,0.5 L5.1789011,0.5 C4.30629119,0.5 3.5989011,1.2073901 3.5989011,2.08 L3.5989011,17.5 Z" id="Rectangle-18"></path>
                        <path d="M2.08,6.85294118 C1.2073901,6.85294118 0.5,7.56033127 0.5,8.43294118 L0.5,21.2141176 C0.5,22.0867276 1.2073901,22.7941176 2.08,22.7941176 L24.7771429,22.7941176 C25.6497528,22.7941176 26.3571429,22.0867276 26.3571429,21.2141176 L26.3571429,8.43294118 C26.3571429,7.56033127 25.6497528,6.85294118 24.7771429,6.85294118 L21.7063736,6.85294118 C20.8337637,6.85294118 20.1263736,7.56033127 20.1263736,8.43294118 L20.1263736,13.2729412 C20.1263736,14.6978358 18.9712683,15.8529412 17.5463736,15.8529412 L9.31076923,15.8529412 C7.88587458,15.8529412 6.73076923,14.6978358 6.73076923,13.2729412 L6.73076923,8.43294118 C6.73076923,7.56033127 6.02337914,6.85294118 5.15076923,6.85294118 L2.08,6.85294118 Z" id="Rectangle-5"></path>
                    </g>
                    <g id="Group-38" transform="translate(0.000000, 6.352941)">
                        <path d="M3.5989011,17.5 L23.2582418,17.5 L23.2582418,2.08 C23.2582418,1.2073901 22.5508517,0.5 21.6782418,0.5 L5.1789011,0.5 C4.30629119,0.5 3.5989011,1.2073901 3.5989011,2.08 L3.5989011,17.5 Z" id="Rectangle-18"></path>
                        <path d="M2.08,6.85294118 C1.2073901,6.85294118 0.5,7.56033127 0.5,8.43294118 L0.5,21.2141176 C0.5,22.0867276 1.2073901,22.7941176 2.08,22.7941176 L24.7771429,22.7941176 C25.6497528,22.7941176 26.3571429,22.0867276 26.3571429,21.2141176 L26.3571429,8.43294118 C26.3571429,7.56033127 25.6497528,6.85294118 24.7771429,6.85294118 L21.7063736,6.85294118 C20.8337637,6.85294118 20.1263736,7.56033127 20.1263736,8.43294118 L20.1263736,13.2729412 C20.1263736,14.6978358 18.9712683,15.8529412 17.5463736,15.8529412 L9.31076923,15.8529412 C7.88587458,15.8529412 6.73076923,14.6978358 6.73076923,13.2729412 L6.73076923,8.43294118 C6.73076923,7.56033127 6.02337914,6.85294118 5.15076923,6.85294118 L2.08,6.85294118 Z" id="Rectangle-5"></path>
                    </g>
                </g>
            </g>
        </g>
    </g>
</svg>